<svg width="100" height="100" viewBox="0 0 100 100" fill="none" xmlns="http://www.w3.org/2000/svg">
<path d="M29 16C26.24 16 24 18.24 24 21V79C24 81.76 26.24 84 29 84H35.2188C34.8787 83.36 34.6219 82.7 34.4219 82H29C27.34 82 26 80.66 26 79V21C26 19.34 27.34 18 29 18H71C72.66 18 74 19.34 74 21V79C74 80.66 72.66 82 71 82H55.5781C55.3781 82.7 55.1213 83.36 54.7812 84H71C73.76 84 76 81.76 76 79V21C76 18.24 73.76 16 71 16H29ZM32.9141 36C32.3741 36 32 36.5149 32 37.0469C32 37.5949 32.3901 38 32.9141 38H67.043C67.555 38 68 37.6089 68 37.0469C68 36.5129 67.583 36 67.043 36H32.9141ZM32.9219 46C32.3779 46 32 46.4774 32 47.0234C32 47.5834 32.3939 48 32.9219 48H57.0352C57.5492 48 58 47.5994 58 47.0234C58 46.4614 57.5671 46 57.0391 46H32.9219ZM45 70C40.038 70 36 74.1424 36 79.2344C36 81.4104 36.768 83.3887 38 84.9688V96.9727C38 97.7327 38.7814 98.2244 39.4414 97.8984L45 95.043L50.5586 97.8984C51.2186 98.2264 52 97.7327 52 96.9727V84.9727C53.232 83.3927 54 81.4163 54 79.2383C54 74.1443 49.962 70 45 70ZM45 72.0508C48.86 72.0508 52 75.2744 52 79.2344C52 83.1944 48.86 86.4219 45 86.4219C41.14 86.4219 38 83.1964 38 79.2344C38 75.2744 41.14 72.0508 45 72.0508Z" fill="#EA5357"/>
</svg>
