<svg width="100" height="100" viewBox="0 0 100 100" fill="none" xmlns="http://www.w3.org/2000/svg">
<path d="M78.1992 18.0156L64.2734 19.7539C62.9894 19.9139 62.4172 21.454 63.2852 22.418L67.7617 27.3672L57.5742 35.8555H49.9375C49.6835 35.8555 49.4418 35.9491 49.2578 36.1211L37.543 47.0547H29.9375C29.7075 47.0547 29.4827 47.1353 29.3047 47.2813L18.3672 56.2227C17.9392 56.5727 17.8766 57.2048 18.2266 57.6328C18.4246 57.8748 18.71 58 19 58C19.222 58 19.4468 57.9255 19.6328 57.7735L30.2969 49.0547H37.9414C38.1954 49.0547 38.4371 48.9611 38.6211 48.7891L50.3359 37.8555H57.9414C58.1754 37.8555 58.3981 37.775 58.5781 37.625L69.1055 28.8516L74.3086 34.6055C75.1866 35.5755 76.7965 35.1375 77.0625 33.8555L79.9648 19.9297C80.1888 18.8557 79.2892 17.8796 78.1992 18.0156ZM79 42C78.448 42 78 42.448 78 43V81C78 81.552 78.448 82 79 82C79.552 82 80 81.552 80 81V43C80 42.448 79.552 42 79 42ZM64 49C63.448 49 63 49.448 63 50V81C63 81.552 63.448 82 64 82C64.552 82 65 81.552 65 81V50C65 49.448 64.552 49 64 49ZM49 56C48.448 56 48 56.448 48 57V81C48 81.552 48.448 82 49 82C49.552 82 50 81.552 50 81V57C50 56.448 49.552 56 49 56ZM34 63C33.448 63 33 63.448 33 64V81C33 81.552 33.448 82 34 82C34.552 82 35 81.552 35 81V64C35 63.448 34.552 63 34 63ZM19 70C18.448 70 18 70.448 18 71V81C18 81.552 18.448 82 19 82C19.552 82 20 81.552 20 81V71C20 70.448 19.552 70 19 70Z" fill="#EA5357"/>
</svg>
