<svg width="100" height="100" viewBox="0 0 100 100" fill="none" xmlns="http://www.w3.org/2000/svg">
<path d="M16.628 44.556L15.598 42.84L40.364 27.982L64.642 37.692L83.664 23.426L84.864 25.026L64.944 39.966L40.544 30.206L16.628 44.556Z" fill="#EA5357"/>
<path d="M40.634 80.51L15.798 72.23L16.43 70.334L40.272 78.282L59.676 63.728L86.07 68.678L85.7 70.642L60.17 65.854L40.634 80.51Z" fill="#EA5357"/>
<path d="M82 69C82 66.238 84.238 64 87 64C89.762 64 92 66.238 92 69C92 71.762 89.762 74 87 74C84.238 74 82 71.762 82 69Z" fill="#EA5357"/>
<path d="M54 65C54 62.238 56.238 60 59 60C61.762 60 64 62.238 64 65C64 67.762 61.762 70 59 70C56.238 70 54 67.762 54 65Z" fill="#EA5357"/>
<path d="M34 79C34 76.238 36.238 74 39 74C41.762 74 44 76.238 44 79C44 81.762 41.762 84 39 84C36.238 84 34 81.762 34 79Z" fill="#EA5357"/>
<path d="M12 71C12 68.238 14.238 66 17 66C19.762 66 22 68.238 22 71C22 73.762 19.762 76 17 76C14.238 76 12 73.762 12 71Z" fill="#EA5357"/>
<path d="M80 23C80 20.238 82.238 18 85 18C87.762 18 90 20.238 90 23C90 25.762 87.762 28 85 28C82.238 28 80 25.762 80 23Z" fill="#EA5357"/>
<path d="M60 37C60 34.238 62.238 32 65 32C67.762 32 70 34.238 70 37C70 39.762 67.762 42 65 42C62.238 42 60 39.762 60 37Z" fill="#EA5357"/>
<path d="M36 29C36 26.238 38.238 24 41 24C43.762 24 46 26.238 46 29C46 31.762 43.762 34 41 34C38.238 34 36 31.762 36 29Z" fill="#EA5357"/>
<path d="M12 43C12 40.238 14.238 38 17 38C19.762 38 22 40.238 22 43C22 45.762 19.762 48 17 48C14.238 48 12 45.762 12 43Z" fill="#EA5357"/>
</svg>
