<svg width="100" height="100" viewBox="0 0 100 100" fill="none" xmlns="http://www.w3.org/2000/svg">
<path d="M17 22C16.448 22 16 22.448 16 23V79C16 79.552 16.448 80 17 80C17.552 80 18 79.552 18 79V72H36.1016C36.5916 75.3841 39.4822 78 43 78C46.5178 78 49.4084 75.3841 49.8984 72H82C82.552 72 83 71.552 83 71C83 70.448 82.552 70 82 70H49.8984C49.4084 66.6159 46.5178 64 43 64C39.4822 64 36.5916 66.6159 36.1016 70H18V52H60.1016C60.5916 55.3841 63.4822 58 67 58C70.5178 58 73.4084 55.3841 73.8984 52H82C82.552 52 83 51.552 83 51C83 50.448 82.552 50 82 50H73.8984C73.4084 46.6159 70.5178 44 67 44C63.4822 44 60.5916 46.6159 60.1016 50H18V32H40.1016C40.5916 35.3841 43.4822 38 47 38C50.5178 38 53.4084 35.3841 53.8984 32H82C82.552 32 83 31.552 83 31C83 30.448 82.552 30 82 30H53.8984C53.4084 26.6159 50.5178 24 47 24C43.4822 24 40.5916 26.6159 40.1016 30H18V23C18 22.448 17.552 22 17 22ZM47 26C49.756 26 52 28.244 52 31C52 33.756 49.756 36 47 36C44.244 36 42 33.756 42 31C42 28.244 44.244 26 47 26ZM67 46C69.756 46 72 48.244 72 51C72 53.756 69.756 56 67 56C64.244 56 62 53.756 62 51C62 48.244 64.244 46 67 46ZM43 66C45.756 66 48 68.244 48 71C48 73.756 45.756 76 43 76C40.244 76 38 73.756 38 71C38 68.244 40.244 66 43 66Z" fill="#EA5357"/>
</svg>
