<svg width="100" height="100" viewBox="0 0 100 100" fill="none" xmlns="http://www.w3.org/2000/svg">
<path d="M20.0002 54.9999C19.6422 54.9999 19.2942 54.8059 19.1162 54.4679C18.8582 53.9799 19.0462 53.3739 19.5342 53.1159L74.7762 23.9179C75.2602 23.6619 75.8682 23.8439 76.1282 24.3339C76.3862 24.8219 76.1982 25.4279 75.7102 25.6859L20.4662 54.8839C20.3182 54.9619 20.1582 54.9999 20.0002 54.9999Z" fill="#EA5357"/>
<path d="M35 84H19C18.448 84 18 83.552 18 83V69C18 68.448 18.448 68 19 68H35C35.552 68 36 68.448 36 69V83C36 83.552 35.552 84 35 84ZM20 82H34V70H20V82Z" fill="#EA5357"/>
<path d="M57 84H41C40.448 84 40 83.552 40 83V59C40 58.448 40.448 58 41 58H57C57.552 58 58 58.448 58 59V83C58 83.552 57.552 84 57 84ZM42 82H56V60H42V82Z" fill="#EA5357"/>
<path d="M79 84H63C62.448 84 62 83.552 62 83V51C62 50.448 62.448 50 63 50H79C79.552 50 80 50.448 80 51V83C80 83.552 79.552 84 79 84ZM64 82H78V52H64V82Z" fill="#EA5357"/>
<path d="M77.902 22.3601C78.66 22.4441 79.094 23.2681 78.732 23.9401L72.052 36.3881C71.644 37.1481 70.55 37.1441 70.148 36.3801L62.786 22.3781C62.384 21.6141 63 20.7101 63.858 20.8061L77.902 22.3601Z" fill="#EA5357"/>
</svg>
