<svg width="100" height="100" viewBox="0 0 100 100" fill="none" xmlns="http://www.w3.org/2000/svg">
<path d="M37.8907 22C35.4687 22 33.1036 22.4556 30.8516 23.3516C29.6976 23.8116 29.1655 24.0225 27.1875 24.8125C25.2095 25.6025 23.1249 26.0094 20.8829 26.0234C16.9509 26.0474 13.5217 28.5858 12.3477 32.3398L8.7852 43.7305C6.9312 49.6645 8.47273 56.1202 12.8047 60.5742C16.8807 64.7662 23.6272 71.6576 25.8672 73.8516L26.7266 74.6992C30.4486 78.3892 35.9676 83.8633 41.3516 83.8633C41.6636 83.8633 41.9732 83.8446 42.2852 83.8086C44.5901 83.5267 46.5498 82.1231 48.1602 79.7305C49.7062 80.5407 51.0948 80.8275 52.3438 80.6797C54.8395 80.3878 56.9421 78.5265 58.7735 75.043C60.0108 75.9601 61.9277 76.6036 64.2579 75.9688C66.891 75.2468 69.0033 73.1397 70.1485 70.1602C72.5448 71.1865 75.4221 70.7318 77.3789 68.7734C78.3596 67.7928 78.9578 66.5767 79.1875 65.3047L79.1993 65.3164L86.1836 59.2266C91.2396 54.8146 93.213 47.8278 91.211 41.4258L88.3672 32.3242C87.2052 28.6062 83.8062 26.0678 79.9102 26.0078L79.5547 26.0039C75.9327 25.9499 74.0296 25.0037 69.8516 23.3438C67.6096 22.4538 65.2499 22 62.8399 22H52.9493H37.8907ZM37.8907 24H47.3282C46.8943 24.3477 46.4849 24.7275 46.1133 25.1562C42.9813 28.7682 40.3115 31.0066 38.1875 31.8086C34.8955 33.0486 32.054 34.1244 32.086 38.5664C32.098 40.1244 33.1242 41.6162 34.9102 42.6602C36.6334 43.6709 43.12 46.4017 54.9493 40.125L75.9649 60.8906C77.7469 62.6746 77.7469 65.5754 75.9649 67.3594C74.2369 69.0894 71.2221 69.0874 69.4961 67.3594L61.0508 58.9141C60.6608 58.5241 60.0268 58.5241 59.6368 58.9141C59.2468 59.3041 59.2468 59.9381 59.6368 60.3281L68.086 68.7734C68.1943 68.8818 68.3199 68.9593 68.4336 69.0586C67.5556 71.6458 65.8418 73.4607 63.7266 74.0391C62.2326 74.4471 60.7384 74.1709 59.7344 73.2969C57.8804 71.6849 55.9626 69.6991 53.3086 66.9531L52.1875 65.7891C51.8035 65.3911 51.1695 65.3836 50.7735 65.7656C50.3755 66.1496 50.3621 66.7837 50.7461 67.1797L51.8711 68.3438C54.0239 70.5734 55.6672 72.2249 57.2344 73.6836C55.6936 76.7873 53.9703 78.474 52.1094 78.6914C49.7114 78.9834 46.7183 76.9344 43.1563 72.6484C42.8003 72.2264 42.1701 72.1734 41.7461 72.5234C41.3221 72.8754 41.2652 73.5057 41.6172 73.9297C43.3962 76.0689 45.0018 77.6032 46.4727 78.6797C45.201 80.5544 43.7521 81.6105 42.043 81.8203C37.341 82.4023 31.5748 76.6932 28.1368 73.2812L27.2696 72.4219C25.2476 70.4399 19.0543 64.1337 14.2383 59.1797C10.4163 55.2517 9.06526 49.5621 10.6993 44.3281L14.2579 32.9336C15.1699 30.0136 17.8379 28.0375 21.0079 28.0195C23.3899 28.0035 25.7236 27.55 27.9336 26.668C30.1436 25.786 30.3478 25.703 31.5938 25.207C33.6038 24.407 35.7247 24 37.8907 24ZM52.9493 24H62.8399C64.9959 24 67.1053 24.4051 69.1133 25.2031C73.1033 26.7891 75.4315 27.9419 79.5235 28.0039L79.8789 28.0078C82.9089 28.0538 85.5512 30.0299 86.4532 32.9219L89.2969 42.0234C91.0629 47.6694 89.3252 53.8307 84.8672 57.7188L79.1368 62.7188C78.8777 61.5294 78.2983 60.3959 77.375 59.4727L55.836 38.1914C55.5149 37.872 55.0378 37.8333 54.6602 38.0391L54.6524 38.0273C45.6484 42.9833 39.0778 42.7815 35.9258 40.9375C34.7838 40.2675 34.0959 39.3748 34.0899 38.5508C34.0699 35.6188 35.4586 34.9757 38.8946 33.6797C41.3666 32.7457 44.225 30.3848 47.625 26.4648C48.985 24.8968 50.9233 24 52.9493 24Z" fill="#EA5357"/>
</svg>
