<svg width="73" height="72" viewBox="0 0 73 72" fill="none" xmlns="http://www.w3.org/2000/svg">
<rect x="1" y="0.5" width="71" height="71" rx="14.5" stroke="#678EC9"/>
<path d="M28.5 18C23.369 18 19.5 19.72 19.5 22V28.0098V34.0098V40.0098V46.0195C19.5 48.2935 23.369 50.0098 28.5 50.0098C32.0755 50.0098 35.0323 49.1744 36.5 47.9004V50.0195C36.5 52.2935 40.369 54.0098 45.5 54.0098C50.631 54.0098 54.5 52.2945 54.5 50.0215V38C54.5 35.72 50.631 34 45.5 34C41.9246 34 38.9678 34.8374 37.5 36.1152V34.0098V28.0098V22C37.5 19.72 33.631 18 28.5 18ZM28.5 19C33.215 19 36.5 20.581 36.5 22C36.5 23.419 33.215 25 28.5 25C23.785 25 20.5 23.419 20.5 22C20.5 20.581 23.785 19 28.5 19ZM20.5 23.8848C21.9678 25.1626 24.9246 26 28.5 26C32.0754 26 35.0322 25.1626 36.5 23.8848V28.0098C36.5 29.4238 33.215 30.998 28.5 30.998C23.785 30.998 20.5 29.4238 20.5 28.0098V23.8848ZM20.5 29.8906C21.9678 31.1649 24.9246 31.998 28.5 31.998C32.0754 31.998 35.0322 31.1649 36.5 29.8906V34.0098C36.5 35.4238 33.215 36.998 28.5 36.998C23.785 36.998 20.5 35.4238 20.5 34.0098V29.8906ZM45.5 35C50.215 35 53.5 36.581 53.5 38C53.5 39.419 50.215 41 45.5 41C40.785 41 37.5 39.419 37.5 38C37.5 36.581 40.785 35 45.5 35ZM20.5 35.8906C21.9678 37.1649 24.9246 37.998 28.5 37.998C32.0754 37.998 35.0322 37.1649 36.5 35.8906V38V40.0098C36.5 41.4238 33.215 42.998 28.5 42.998C23.785 42.998 20.5 41.4238 20.5 40.0098V35.8906ZM37.5 39.8848C38.9678 41.1626 41.9246 42 45.5 42C49.0754 42 52.0322 41.1626 53.5 39.8848V44.0098C53.5 45.4238 50.215 46.998 45.5 46.998C40.785 46.998 37.5 45.4238 37.5 44.0098V40.0098V39.8848ZM20.5 41.8906C21.9678 43.1649 24.9246 43.998 28.5 43.998C32.0754 43.998 35.0322 43.1649 36.5 41.8906V44.0098V46.0215C36.5 47.4355 33.215 49.0098 28.5 49.0098C23.785 49.0098 20.5 47.4355 20.5 46.0215V41.8906ZM37.5 45.8906C38.9678 47.1649 41.9246 47.998 45.5 47.998C49.0754 47.998 52.0322 47.1649 53.5 45.8906V50.0215C53.5 51.4355 50.215 53.0098 45.5 53.0098C40.785 53.0098 37.5 51.4355 37.5 50.0215V45.8906Z" fill="#EA5357"/>
</svg>
