<svg width="73" height="72" viewBox="0 0 73 72" fill="none" xmlns="http://www.w3.org/2000/svg">
<rect x="1" y="0.5" width="71" height="71" rx="14.5" stroke="#678EC9"/>
<path d="M36.5 19C36.224 19 36 19.224 36 19.5V21H22.5C20.846 21 19.5 22.346 19.5 24V42C19.5 43.654 20.846 45 22.5 45H30.3164L26.5703 51.2422C26.4283 51.4792 26.5052 51.7877 26.7422 51.9297C26.8222 51.9777 26.912 52 27 52C27.169 52 27.3347 51.9138 27.4277 51.7578L31.4844 45H41.5156L45.5703 51.7578C45.6643 51.9148 45.831 52 46 52C46.088 52 46.1769 51.9767 46.2559 51.9277C46.4929 51.7857 46.5707 51.4792 46.4277 51.2422L42.6836 45H50.5C52.154 45 53.5 43.654 53.5 42V24C53.5 22.346 52.154 21 50.5 21H37V19.5C37 19.224 36.776 19 36.5 19ZM22.5 22H50.5C51.603 22 52.5 22.897 52.5 24V42C52.5 43.103 51.603 44 50.5 44H22.5C21.397 44 20.5 43.103 20.5 42V24C20.5 22.897 21.397 22 22.5 22ZM45.9434 27.543C45.8162 27.5572 45.6934 27.6196 45.6074 27.7266L39.5703 35.2734L34.4141 31.5898C34.1591 31.4078 33.8548 31.5121 33.7168 31.7051L30.0078 36.9004L27.2227 35.5078C26.9767 35.3858 26.6767 35.4835 26.5527 35.7305C26.4297 35.9775 26.5284 36.2783 26.7754 36.4023L29.9434 37.9844C30.0154 38.0204 30.092 38.0371 30.168 38.0371C30.325 38.0371 30.4783 37.9621 30.5723 37.8281L34.2383 32.6934L39.373 36.3613C39.587 36.5163 39.8896 36.4766 40.0566 36.2676L46.3887 28.3516C46.5607 28.1356 46.5265 27.8214 46.3105 27.6484C46.202 27.5624 46.0705 27.5287 45.9434 27.543Z" fill="#EA5357"/>
</svg>
