<svg width="73" height="72" viewBox="0 0 73 72" fill="none" xmlns="http://www.w3.org/2000/svg">
<rect x="1" y="0.5" width="71" height="71" rx="14.5" stroke="#678EC9"/>
<path d="M25 18C23.621 18 22.5 19.122 22.5 20.5V24.5C22.5 25.878 23.621 27 25 27H27.5V46.5C27.5 47.878 28.621 49 30 49H39.5V50.5C39.5 51.878 40.621 53 42 53H48C49.379 53 50.5 51.878 50.5 50.5V46.5C50.5 45.122 49.379 44 48 44H42C40.621 44 39.5 45.122 39.5 46.5V48H30C29.173 48 28.5 47.327 28.5 46.5V36H39.5V37.5C39.5 38.878 40.621 40 42 40H48C49.379 40 50.5 38.878 50.5 37.5V33.5C50.5 32.122 49.379 31 48 31H42C40.621 31 39.5 32.122 39.5 33.5V35H28.5V27H31C32.379 27 33.5 25.878 33.5 24.5V20.5C33.5 19.122 32.379 18 31 18H25ZM25 19H31C31.827 19 32.5 19.673 32.5 20.5V24.5C32.5 25.327 31.827 26 31 26H25C24.173 26 23.5 25.327 23.5 24.5V20.5C23.5 19.673 24.173 19 25 19ZM42 32H48C48.827 32 49.5 32.673 49.5 33.5V37.5C49.5 38.327 48.827 39 48 39H42C41.173 39 40.5 38.327 40.5 37.5V33.5C40.5 32.673 41.173 32 42 32ZM42 45H48C48.827 45 49.5 45.673 49.5 46.5V50.5C49.5 51.327 48.827 52 48 52H42C41.173 52 40.5 51.327 40.5 50.5V46.5C40.5 45.673 41.173 45 42 45Z" fill="#EA5357"/>
</svg>
