<svg width="100" height="100" viewBox="0 0 100 100" fill="none" xmlns="http://www.w3.org/2000/svg">
<path d="M65.9999 26C59.9339 26 54.9999 31.382 54.9999 38C54.9999 44.618 59.9339 50 65.9999 50C72.0659 50 76.9999 44.618 76.9999 38C76.9999 31.382 72.0659 26 65.9999 26ZM65.9999 28C70.9619 28 74.9999 32.486 74.9999 38C74.9999 43.514 70.9619 48 65.9999 48C61.0379 48 56.9999 43.514 56.9999 38C56.9999 32.486 61.0379 28 65.9999 28ZM33.9999 32C27.9339 32 22.9999 37.382 22.9999 44C22.9999 50.618 27.9339 56 33.9999 56C40.0659 56 44.9999 50.618 44.9999 44C44.9999 37.382 40.0659 32 33.9999 32ZM33.9999 34C38.9619 34 42.9999 38.486 42.9999 44C42.9999 49.514 38.9619 54 33.9999 54C29.0379 54 24.9999 49.514 24.9999 44C24.9999 38.486 29.0379 34 33.9999 34ZM65.9999 54C57.882 54 50.5816 57.3181 46.1406 62.6875C42.5424 60.9601 38.3843 60 33.9999 60C23.9859 60 15.1464 65.0002 11.4804 72.7422C10.0644 75.7262 12.0194 80 16.1874 80H51.8124C55.2868 80 57.3948 76.8704 56.9101 74H83.8124C87.9824 74 89.9355 69.7262 88.5195 66.7422C84.8535 59.0002 76.0139 54 65.9999 54ZM65.9999 56C75.1019 56 83.4269 60.6617 86.7109 67.5977C87.7869 69.8717 85.8144 72 83.8124 72H56.1288C54.3151 68.5717 51.4714 65.7239 47.957 63.6641C52.0664 58.9733 58.765 56 65.9999 56ZM33.9999 62C43.1019 62 51.4269 66.6617 54.7109 73.5977C55.7609 75.8177 53.8664 78 51.8124 78H16.1874C14.1854 78 12.213 75.8717 13.289 73.5977C16.573 66.6617 24.8979 62 33.9999 62Z" fill="#EA5357"/>
</svg>
