<svg width="72" height="72" viewBox="0 0 72 72" fill="none" xmlns="http://www.w3.org/2000/svg">
<rect x="0.5" y="0.5" width="71" height="71" rx="14.5" stroke="#678EC9"/>
<path d="M27.3906 21C22.2046 21 19.1673 23.6854 18.2773 24.6074C18.0963 24.7944 18 25.0388 18 25.2988V49.9043C18 50.4333 18.4343 50.8086 18.9023 50.8086C19.0713 50.8086 19.2443 50.7594 19.4023 50.6504C21.0083 49.5444 23.8776 48.002 27.3926 48.002C30.7826 48.002 33.2756 49.5006 34.6816 50.6426C35.0676 50.9566 35.535 51.1133 36.002 51.1133C36.469 51.1133 36.9333 50.9566 37.3203 50.6426C38.7263 49.4996 41.2184 48.002 44.6094 48.002C48.1234 48.002 50.9936 49.5434 52.5996 50.6504C52.7576 50.7594 52.9306 50.8086 53.0996 50.8086C53.5656 50.8086 54 50.4333 54 49.9043V25.2988C54 25.0378 53.9037 24.7944 53.7227 24.6074C52.8327 23.6854 49.7954 21 44.6094 21C38.3484 21 36 24.1309 36 24.1309C36 24.1309 33.6516 21 27.3906 21ZM27.3906 22C32.2458 22 34.5864 24.1514 35.5 25.3086V49.8105C34.4713 48.9224 31.7549 47.002 27.3906 47.002C23.8156 47.002 20.881 48.4508 19 49.7148L18.9961 25.3008C18.9961 25.3008 22.2486 22 27.3906 22ZM44.6094 22C49.7614 22 53 25.2988 53 25.2988V49.7148C51.119 48.4498 48.1844 47.002 44.6094 47.002C40.2362 47.002 37.5273 48.919 36.5 49.8086V25.2969C37.4295 24.137 39.7836 22 44.6094 22Z" fill="#EA5357"/>
</svg>
