<svg width="72" height="72" viewBox="0 0 72 72" fill="none" xmlns="http://www.w3.org/2000/svg">
<rect x="0.5" y="0.5" width="71" height="71" rx="14.5" stroke="#678EC9"/>
<path d="M31.9395 20C29.6865 20 27.7815 21.6645 27.4395 23.8555C23.2245 24.6385 21 27.1712 21 31.2012C21 32.5812 21.6961 34.1301 22.4531 35.0371C21.8121 35.9771 21.4766 37.0678 21.4766 38.2148C21.4766 40.0998 22.4226 41.8592 23.9746 42.9082C23.7856 43.4152 23.6895 43.9463 23.6895 44.4883C23.6895 46.7943 25.4072 48.7139 27.6602 49.0039C28.3102 50.7849 30.0225 52 31.9395 52C33.7204 52 35.2497 50.9643 36 49.4727C36.7506 50.9643 38.2803 52 40.0605 52C41.9775 52 43.6898 50.7849 44.3398 49.0039C46.5928 48.7139 48.3105 46.7943 48.3105 44.4883C48.3105 43.9453 48.2144 43.4152 48.0254 42.9082C49.5774 41.8592 50.5234 40.1008 50.5234 38.2148C50.5234 37.0678 50.1869 35.9761 49.5469 35.0371C50.3039 34.1301 51 32.5812 51 31.2012C51 27.1712 48.7755 24.6385 44.5605 23.8555C44.2195 21.6645 42.3145 20 40.0605 20C38.2796 20 36.7503 21.0358 36 22.5273C35.2494 21.0357 33.7197 20 31.9395 20ZM31.9395 21C33.9025 21 35.5 22.5975 35.5 24.5605V47.4395C35.5 49.4025 33.9025 51 31.9395 51C30.3525 51 28.7609 49.8647 28.4199 48.0547C26.1619 48.0617 24.6914 46.3773 24.6914 44.4863C24.6914 43.9463 24.8808 43.0758 25.2598 42.5078C23.3848 41.6198 22.4766 39.8918 22.4766 38.2148C22.4766 37.2282 22.8099 36.1662 23.6055 35.1836C25.0396 33.4275 27.3646 34.0488 28.1602 34.8672C28.3542 35.0662 28.6802 35.0438 28.8672 34.8398C29.0542 34.6358 29.0428 34.3198 28.8398 34.1328C28.0208 33.3778 26.8837 32.9607 25.8027 33.0117C24.8268 33.0598 23.9136 33.506 23.125 34.2715C22.5718 33.5541 22 32.4384 22 31.2012C22 26.0192 26.1822 24.9808 28.3672 24.7168C28.3672 22.4958 30.0755 21 31.9395 21ZM40.0605 21C41.9245 21 43.6328 22.4948 43.6328 24.7168C45.8178 24.9798 50 26.0192 50 31.2012C50 32.8627 48.9832 34.287 48.3516 34.8301C46.9531 36.0452 45.5032 36.1308 44.3672 36.0449C44.0912 36.0239 43.853 36.2309 43.832 36.5059C43.813 36.7649 43.9931 36.9922 44.2441 37.0352C44.2601 37.0382 44.277 37.04 44.293 37.041C45.4833 37.1302 47.1817 37.0729 48.8203 35.752C49.3202 36.5679 49.5254 37.4161 49.5254 38.2148C49.5254 39.8908 48.6152 41.6188 46.7402 42.5078C47.1182 43.0758 47.3105 43.9483 47.3105 44.4883C47.3105 46.2973 45.9557 47.9003 43.8613 48.0312C42.2386 47.9451 42.0155 46.606 41.998 46.4473C41.97 46.1743 41.7242 45.983 41.4512 46.002C41.1762 46.029 40.9769 46.2738 41.0039 46.5488C41.0769 47.3003 41.6633 48.6261 43.2754 48.9434C42.6617 50.2227 41.366 51 40.0605 51C38.0975 51 36.5 49.4025 36.5 47.4395V24.5605C36.5 22.5975 38.0975 21 40.0605 21ZM31.543 27.002C31.272 26.974 31.026 27.182 31.002 27.457C30.88 28.851 29.7888 28.963 29.4648 29.002C29.1408 29.041 28.984 29.2592 29.002 29.5332C29.02 29.7972 29.239 30 29.5 30C30.313 30 31.838 29.3689 31.998 27.5449C32.022 27.2699 31.818 27.026 31.543 27.002ZM41.5449 29.002C41.2639 28.98 41.026 29.1811 41.002 29.4551C40.915 30.4331 41.2981 32.4304 43.3711 32.9824C43.4141 32.9944 43.457 33 43.5 33C43.721 33 43.9224 32.8529 43.9824 32.6289C44.0534 32.3619 43.8959 32.0886 43.6289 32.0176C41.8649 31.5476 41.99 29.6419 41.998 29.5449C42.022 29.2699 41.8199 29.026 41.5449 29.002ZM28.4316 40.0039C28.2391 40.0307 28.0716 40.1696 28.0176 40.3691C27.9466 40.6361 28.1041 40.9114 28.3711 40.9824C30.1351 41.4534 30.01 43.3571 30.002 43.4551C29.978 43.7301 30.1971 43.998 30.4551 43.998C30.7921 43.998 30.975 43.8049 30.998 43.5449C31.085 42.5669 30.7019 40.5696 28.6289 40.0176C28.5627 39.9996 28.4958 39.995 28.4316 40.0039Z" fill="#EA5357"/>
</svg>
