<svg width="72" height="72" viewBox="0 0 72 72" fill="none" xmlns="http://www.w3.org/2000/svg">
<rect x="0.5" y="0.5" width="71" height="71" rx="14.5" stroke="#678EC9"/>
<path d="M33 19C31.343 19 30 20.343 30 22H21C19.343 22 18 23.343 18 25V47C18 48.657 19.343 50 21 50H51C52.657 50 54 48.657 54 47V25C54 23.343 52.657 22 51 22H42C42 20.343 40.657 19 39 19H33ZM33 20H39C40.105 20 41 20.895 41 22H31C31 20.895 31.895 20 33 20ZM21 23H51C52.105 23 53 23.895 53 25V33.3965C52.5607 33.4826 44.7227 35.0039 36 35.0039C27.2775 35.0039 19.4389 33.4827 19 33.3965V25C19 23.895 19.895 23 21 23ZM19 34.4473C20.6571 34.7562 26.1272 35.6924 33 35.9375V36.668C33 37.404 33.597 38 34.334 38H37.668C38.404 38 39 37.404 39 36.668V35.9375C45.8728 35.6924 51.3429 34.7562 53 34.4473V47C53 48.105 52.105 49 51 49H21C19.895 49 19 48.105 19 47V34.4473Z" fill="#EA5357"/>
</svg>
