<svg width="72" height="72" viewBox="0 0 72 72" fill="none" xmlns="http://www.w3.org/2000/svg">
<rect x="0.5" y="0.5" width="71" height="71" rx="14.5" stroke="#678EC9"/>
<path d="M36 18C27.47 18 22 23.1479 22 32.0879V37.0586C22 37.0586 21.1758 38.0427 21.1758 39.7227C21.1758 41.9727 22.9086 43.1852 24.1406 43.8262C25.5466 50.0152 32.294 54 36 54C39.706 54 46.4534 50.0152 47.8594 43.8262C49.0914 43.1852 50.8242 41.6973 50.8242 39.4473C50.8242 37.7673 50 37.0586 50 37.0586V32.0879C50 21.5339 43.9238 20.9375 43.9238 20.9375C43.9238 20.9375 40.804 18 36 18ZM36 19C40.323 19 43.4883 21.8926 43.4883 21.8926C43.4883 21.8926 49 22.0599 49 32.0879L48.9785 37H48.1875C47.3175 33.248 45.9046 28.4587 43.1836 26.8887C43.1836 26.8887 38.8244 34.1251 25.4004 33.8691L23.9102 37H23V32.0879C23 23.8929 27.86 19 36 19ZM43.3672 28.2461C44.8482 29.5551 46.2397 32.92 47.3887 38H49.4609C49.6496 38.3011 49.8223 38.7555 49.8223 39.4473C49.8223 41.9673 46.9863 43.1523 46.9863 43.1523C45.8143 49.2893 39.085 53 36 53C32.915 53 26.2777 49.5083 25.0137 43.1523C25.0137 43.1523 22.1758 42.1457 22.1758 39.7227C22.1758 38.9621 22.3844 38.3864 22.5918 38H24.543L26.0352 34.8691C33.9382 34.8131 39.6172 32.6431 43.3672 28.2461Z" fill="#EA5357"/>
</svg>
