<svg width="21" height="20" viewBox="0 0 21 20" fill="none" xmlns="http://www.w3.org/2000/svg">
<path d="M19.2812 12C19.016 12 18.7617 12.1054 18.5741 12.2929C18.3866 12.4804 18.2812 12.7348 18.2812 13V17C18.2812 17.2652 18.1759 17.5196 17.9884 17.7071C17.8008 17.8946 17.5465 18 17.2812 18H3.28125C3.01603 18 2.76168 17.8946 2.57414 17.7071C2.38661 17.5196 2.28125 17.2652 2.28125 17V13C2.28125 12.7348 2.17589 12.4804 1.98836 12.2929C1.80082 12.1054 1.54647 12 1.28125 12C1.01603 12 0.76168 12.1054 0.574143 12.2929C0.386607 12.4804 0.28125 12.7348 0.28125 13V17C0.28125 17.7956 0.597321 18.5587 1.15993 19.1213C1.72254 19.6839 2.4856 20 3.28125 20H17.2812C18.0769 20 18.84 19.6839 19.4026 19.1213C19.9652 18.5587 20.2812 17.7956 20.2812 17V13C20.2812 12.7348 20.1759 12.4804 19.9884 12.2929C19.8008 12.1054 19.5465 12 19.2812 12ZM9.57125 13.71C9.66635 13.801 9.7785 13.8724 9.90125 13.92C10.021 13.9729 10.1504 14.0002 10.2812 14.0002C10.4121 14.0002 10.5415 13.9729 10.6613 13.92C10.784 13.8724 10.8961 13.801 10.9913 13.71L14.9912 9.71C15.1796 9.5217 15.2853 9.2663 15.2853 9C15.2853 8.7337 15.1796 8.4783 14.9912 8.29C14.8029 8.1017 14.5476 7.99591 14.2812 7.99591C14.0149 7.99591 13.7596 8.1017 13.5712 8.29L11.2812 10.59V1C11.2812 0.734784 11.1759 0.48043 10.9884 0.292893C10.8008 0.105357 10.5465 0 10.2812 0C10.016 0 9.76168 0.105357 9.57414 0.292893C9.38661 0.48043 9.28125 0.734784 9.28125 1V10.59L6.99125 8.29C6.89801 8.19676 6.78732 8.1228 6.6655 8.07234C6.54368 8.02188 6.41311 7.99591 6.28125 7.99591C6.14939 7.99591 6.01882 8.02188 5.897 8.07234C5.77518 8.1228 5.66449 8.19676 5.57125 8.29C5.47801 8.38324 5.40405 8.49393 5.35359 8.61575C5.30313 8.73757 5.27716 8.86814 5.27716 9C5.27716 9.13186 5.30313 9.26243 5.35359 9.38425C5.40405 9.50607 5.47801 9.61676 5.57125 9.71L9.57125 13.71Z" fill="#EA5357"/>
</svg>
