<svg width="50" height="50" viewBox="0 0 50 50" fill="none" xmlns="http://www.w3.org/2000/svg">
<path d="M14 7C12.343 7 11 8.343 11 10V40C11 41.657 12.343 43 14 43H36C37.657 43 39 41.657 39 40V10C39 8.343 37.657 7 36 7H14ZM14 8H20V9C20 10.105 20.895 11 22 11H28C29.105 11 30 10.105 30 9V8H36C37.105 8 38 8.895 38 10V40C38 41.105 37.105 42 36 42H14C12.895 42 12 41.105 12 40V10C12 8.895 12.895 8 14 8ZM18 21.5C17.448 21.5 17 21.948 17 22.5C17 23.052 17.448 23.5 18 23.5C18.552 23.5 19 23.052 19 22.5C19 21.948 18.552 21.5 18 21.5ZM23.5 22C23.224 22 23 22.224 23 22.5C23 22.776 23.224 23 23.5 23H32.5C32.776 23 33 22.776 33 22.5C33 22.224 32.776 22 32.5 22H23.5ZM18 27.5C17.448 27.5 17 27.948 17 28.5C17 29.052 17.448 29.5 18 29.5C18.552 29.5 19 29.052 19 28.5C19 27.948 18.552 27.5 18 27.5ZM23.5 28C23.224 28 23 28.224 23 28.5C23 28.776 23.224 29 23.5 29H32.5C32.776 29 33 28.776 33 28.5C33 28.224 32.776 28 32.5 28H23.5ZM20.1992 33.002C20.0712 33.002 19.9432 33.0509 19.8457 33.1484L18.1992 34.7949L17.3535 33.9473C17.1585 33.7523 16.8415 33.7523 16.6465 33.9473C16.4515 34.1423 16.4515 34.4593 16.6465 34.6543L17.8457 35.8535C17.9437 35.9505 18.0712 36 18.1992 36C18.3272 36 18.4557 35.9515 18.5527 35.8555L20.5527 33.8555C20.7477 33.6605 20.7477 33.3434 20.5527 33.1484C20.4552 33.0509 20.3272 33.002 20.1992 33.002ZM24.5 34C24.224 34 24 34.224 24 34.5C24 34.776 24.224 35 24.5 35H32.5C32.776 35 33 34.776 33 34.5C33 34.224 32.776 34 32.5 34H24.5Z" fill="#EA5357"/>
</svg>
