<svg width="50" height="50" viewBox="0 0 50 50" fill="none" xmlns="http://www.w3.org/2000/svg">
<path d="M27.7261 18.738L26.7991 18.362L30.3981 9.48297L31.3251 9.85897L27.7261 18.738Z" fill="#EA5357"/>
<path d="M31.468 23.693L31.179 22.736L40.611 19.883L40.9 20.84L31.468 23.693Z" fill="#EA5357"/>
<path d="M31.6951 39.934L27.1951 31.349L28.0811 30.885L32.5811 39.47L31.6951 39.934Z" fill="#EA5357"/>
<path d="M25 8C34.374 8 42 15.626 42 25C42 34.374 34.374 42 25 42C15.626 42 8 34.374 8 25C8 15.626 15.626 8 25 8ZM25 41C33.822 41 41 33.822 41 25C41 16.178 33.822 9 25 9C16.178 9 9 16.178 9 25C9 33.822 16.178 41 25 41Z" fill="#EA5357"/>
<path d="M25 18C28.86 18 32 21.14 32 25C32 28.86 28.86 32 25 32C21.14 32 18 28.86 18 25C18 21.14 21.14 18 25 18ZM25 31C28.309 31 31 28.309 31 25C31 21.691 28.309 19 25 19C21.691 19 19 21.691 19 25C19 28.309 21.691 31 25 31Z" fill="#EA5357"/>
</svg>
