<svg width="50" height="50" viewBox="0 0 50 50" fill="none" xmlns="http://www.w3.org/2000/svg">
<path d="M14.75 8C14.168 8 13.5757 8.30706 12.8887 8.66406C12.1417 9.05006 11.2787 9.49656 10.5547 9.47656C10.2567 9.46856 10 9.67466 10 9.97266L10.0098 35.8594C10.0089 35.9074 10 35.9517 10 36C10 38.804 11.537 41 13.5 41H36.5C38.463 41 40 38.804 40 36C40 33.196 38.463 31 36.5 31H34V9.87305C34 9.58605 33.7567 9.33595 33.4727 9.37695C32.7377 9.48195 31.8327 9.02195 31.0527 8.62695C30.3897 8.28995 29.817 8 29.25 8C28.685 8 28.0862 8.2982 27.1582 8.7832C26.6802 9.0342 25.79 9.5 25.5 9.5C25.23 9.5 24.4387 9.04673 24.0137 8.80273C23.2637 8.37273 22.614 8 22 8C21.386 8 20.7373 8.37273 19.9863 8.80273C19.5613 9.04673 18.77 9.5 18.5 9.5C18.21 9.5 17.3198 9.0342 16.8418 8.7832C15.9138 8.2982 15.315 8 14.75 8ZM14.75 9C15.5 9 17.5 10.5 18.5 10.5C19.5 10.5 21.25 9 22 9C22.75 9 24.5 10.5 25.5 10.5C26.5 10.5 28.5 9 29.25 9C30 9 31.5 10.2509 33 10.3809V31H13.5C12.5152 31 11.6379 31.5541 11.0078 32.459L11 10.4492C12.5 10.2492 14 9 14.75 9ZM15.5 15C15.224 15 15 15.224 15 15.5C15 15.776 15.224 16 15.5 16H28.5C28.776 16 29 15.776 29 15.5C29 15.224 28.776 15 28.5 15H15.5ZM15.5 20C15.224 20 15 20.224 15 20.5C15 20.776 15.224 21 15.5 21H28.5C28.776 21 29 20.776 29 20.5C29 20.224 28.776 20 28.5 20H15.5ZM15.5 25C15.224 25 15 25.224 15 25.5C15 25.776 15.224 26 15.5 26H28.5C28.776 26 29 25.776 29 25.5C29 25.224 28.776 25 28.5 25H15.5ZM13.5 32C14.855 32 16 33.832 16 36C16 38.168 14.855 40 13.5 40C12.145 40 11 38.168 11 36H11.0098V35.8535C11.0608 33.7514 12.1762 32 13.5 32ZM15.6055 32H36.5C37.855 32 39 33.832 39 36C39 38.168 37.855 40 36.5 40H15.6055C16.4533 39.0958 17 37.6611 17 36C17 34.3389 16.4533 32.9042 15.6055 32Z" fill="#EA5357"/>
</svg>
