<svg width="50" height="50" viewBox="0 0 50 50" fill="none" xmlns="http://www.w3.org/2000/svg">
<path d="M18.5 10C16.57 10 15 11.57 15 13.5V19H10.5C8.57 19 7 20.57 7 22.5V36.5C7 38.981 9.019 41 11.5 41H37.5C39.981 41 42 38.981 42 36.5V13.5C42 11.57 40.43 10 38.5 10H18.5ZM18.5 11H38.5C39.878 11 41 12.122 41 13.5V36.5C41 38.43 39.43 40 37.5 40H14.3262C15.3462 39.174 16 37.912 16 36.5V13.5C16 12.122 17.122 11 18.5 11ZM20.5 16C20.224 16 20 16.224 20 16.5C20 16.776 20.224 17 20.5 17H36.5C36.776 17 37 16.776 37 16.5C37 16.224 36.776 16 36.5 16H20.5ZM10.5 20H15V36.5C15 38.43 13.43 40 11.5 40C9.57 40 8 38.43 8 36.5V22.5C8 21.122 9.122 20 10.5 20ZM20.5 22C20.224 22 20 22.224 20 22.5C20 22.776 20.224 23 20.5 23H36.5C36.776 23 37 22.776 37 22.5C37 22.224 36.776 22 36.5 22H20.5ZM21 28C20.448 28 20 28.448 20 29V34C20 34.552 20.448 35 21 35H26C26.552 35 27 34.552 27 34V29C27 28.448 26.552 28 26 28H21ZM30.5 28C30.224 28 30 28.224 30 28.5C30 28.776 30.224 29 30.5 29H36.5C36.776 29 37 28.776 37 28.5C37 28.224 36.776 28 36.5 28H30.5ZM30.5 34C30.224 34 30 34.224 30 34.5C30 34.776 30.224 35 30.5 35H36.5C36.776 35 37 34.776 37 34.5C37 34.224 36.776 34 36.5 34H30.5Z" fill="#EA5357"/>
</svg>
