<svg width="50" height="50" viewBox="0 0 50 50" fill="none" xmlns="http://www.w3.org/2000/svg">
<path d="M34.05 20.5H22V28.5H34.05C34.29 27.082 35.514 26 37 26C38.657 26 40 27.343 40 29C40 30.657 38.657 32 37 32C35.514 32 34.29 30.918 34.05 29.5H22V35C22 36.25 23 37.5 24.5 37.5H34.05C34.29 36.082 35.514 35 37 35C38.657 35 40 36.343 40 38C40 39.657 38.657 41 37 41C35.514 41 34.29 39.918 34.05 38.5H24.5C22.5 38.5 21 37 21 35V25H13.95C13.711 26.418 12.486 27.5 11 27.5C9.343 27.5 8 26.157 8 24.5C8 22.843 9.343 21.5 11 21.5C12.486 21.5 13.71 22.582 13.95 24H21V14C21 12 22.25 10.5 25 10.5H34.05C34.29 9.082 35.514 8 37 8C38.657 8 40 9.343 40 11C40 12.657 38.657 14 37 14C35.514 14 34.29 12.918 34.05 11.5H25C23.25 11.5 22 12.25 22 14V19.5H34.05C34.29 18.082 35.514 17 37 17C38.657 17 40 18.343 40 20C40 21.657 38.657 23 37 23C35.514 23 34.29 21.918 34.05 20.5Z" fill="#EA5357"/>
</svg>
