<svg width="50" height="50" viewBox="0 0 50 50" fill="none" xmlns="http://www.w3.org/2000/svg">
<path d="M36.9891 36.013C36.1959 36.013 35.4351 36.3291 34.8742 36.8917C34.3132 37.4543 33.9981 38.2174 33.9981 39.013C33.9981 39.8087 34.3132 40.5717 34.8742 41.1343C35.4351 41.6969 36.1959 42.013 36.9891 42.013C37.7824 42.013 38.5432 41.6969 39.1041 41.1343C39.665 40.5717 39.9801 39.8087 39.9801 39.013C39.9801 38.2174 39.665 37.4543 39.1041 36.8917C38.5432 36.3291 37.7824 36.013 36.9891 36.013ZM36.9891 18.007C36.1959 18.007 35.4351 18.3216 34.8742 18.8816C34.3132 19.4416 33.9981 20.2011 33.9981 20.993C33.9981 21.785 34.3132 22.5445 34.8742 23.1044C35.4351 23.6644 36.1959 23.979 36.9891 23.979C37.7824 23.979 38.5432 23.6644 39.1041 23.1044C39.665 22.5445 39.9801 21.785 39.9801 20.993C39.9801 20.2011 39.665 19.4416 39.1041 18.8816C38.5432 18.3216 37.7824 18.007 36.9891 18.007ZM37.0011 9.02002C36.2068 9.02002 35.445 9.33651 34.8833 9.89987C34.3217 10.4632 34.0061 11.2273 34.0061 12.024C34.0061 12.8207 34.3217 13.5848 34.8833 14.1482C35.445 14.7115 36.2068 15.028 37.0011 15.028C37.7954 15.028 38.5572 14.7115 39.1189 14.1482C39.6806 13.5848 39.9961 12.8207 39.9961 12.024C39.9961 11.2273 39.6806 10.4632 39.1189 9.89987C38.5572 9.33651 37.7954 9.02002 37.0011 9.02002ZM36.9961 27.074C38.7711 27.074 39.9831 28.546 39.9831 30.148C39.9831 31.75 38.5481 33.063 37.0101 33.063C35.8561 33.063 34.4561 32.443 34.0091 30.567L28.7711 30.581C27.1691 30.61 25.4521 30.134 24.0811 29.124L22.1191 27.609C20.7481 26.801 19.3631 26.411 18.2091 26.339L13.8371 26.31C13.5921 27.782 12.0221 28.561 10.9941 28.561C9.45711 28.561 8.09111 27.315 7.98811 25.716C7.87711 24 9.27611 22.557 10.9931 22.572C12.6671 22.586 13.7921 23.842 13.9371 25.285L18.1221 25.328C19.7241 25.357 21.8161 26.107 22.9131 26.944L24.5151 28.156C26.1741 29.411 27.3571 29.585 28.7431 29.585L34.0241 29.599C34.2971 27.781 35.9681 27.074 36.9961 27.074Z" fill="#EA5357"/>
</svg>
