<svg width="50" height="50" viewBox="0 0 50 50" fill="none" xmlns="http://www.w3.org/2000/svg">
<path d="M24.9999 6.00195C24.2645 6.00195 23.5289 6.31677 23.0194 6.94727L21.0663 9.36328C20.5683 9.97828 19.7541 10.2421 18.9901 10.0371L15.9901 9.23047C14.4251 8.80947 12.868 9.93959 12.785 11.5586L12.6268 14.6621C12.5858 15.4521 12.0826 16.1447 11.3436 16.4277L8.44129 17.5371C6.92729 18.1171 6.33464 19.9457 7.21864 21.3047L8.912 23.9102C9.343 24.5732 9.343 25.4288 8.912 26.0918L7.21864 28.6953C6.33464 30.0543 6.92729 31.8829 8.44129 32.4629L11.3436 33.5742C12.0826 33.8572 12.5858 34.5498 12.6268 35.3398L12.785 38.4414C12.868 40.0604 14.4241 41.1905 15.9901 40.7695L18.9901 39.9629C19.7541 39.7569 20.5673 40.0217 21.0643 40.6367L23.0194 43.0547C24.0394 44.3157 25.9614 44.3157 26.9804 43.0547L28.9335 40.6367C29.4315 40.0217 30.2457 39.7579 31.0097 39.9629L34.0097 40.7695C35.5747 41.1905 37.1317 40.0604 37.2147 38.4414L37.3729 35.3398C37.4139 34.5498 37.9171 33.8572 38.6561 33.5742L41.5585 32.4629C43.0725 31.8829 43.6651 30.0543 42.7811 28.6953L41.0878 26.0918C40.6568 25.4288 40.6568 24.5732 41.0878 23.9102L42.7811 21.3047C43.6651 19.9457 43.0725 18.1171 41.5585 17.5371L38.6561 16.4258C37.9171 16.1428 37.4139 15.4502 37.3729 14.6602L37.2147 11.5586C37.1317 9.93959 35.5757 8.80947 34.0097 9.23047L31.0097 10.0371C30.2457 10.2431 29.4324 9.97828 28.9354 9.36328L26.9804 6.94727C26.4704 6.31677 25.7353 6.00195 24.9999 6.00195ZM24.9999 7.01562C25.4606 7.01562 25.9206 7.21438 26.2401 7.60938L28.16 9.98242C28.906 10.9054 30.1254 11.3002 31.2714 10.9922L34.2186 10.2012C35.1996 9.93817 36.1745 10.6462 36.2264 11.6602L36.3847 14.707C36.4457 15.892 37.1985 16.9315 38.3065 17.3555L41.1561 18.4453C42.1051 18.8083 42.4777 19.9556 41.9237 20.8066L40.2597 23.3633C39.6127 24.3583 39.6127 25.6417 40.2597 26.6367L41.9237 29.1934C42.4777 30.0444 42.1051 31.1917 41.1561 31.5547L38.3065 32.6445C37.1985 33.0685 36.4457 34.108 36.3847 35.293L36.2264 38.3398C36.1735 39.3548 35.1996 40.0628 34.2186 39.7988L31.2714 39.0078C30.1254 38.6998 28.906 39.0946 28.16 40.0176L26.2401 42.3906C25.6011 43.1806 24.3987 43.1806 23.7597 42.3906L21.8397 40.0176C21.0937 39.0946 19.8744 38.6998 18.7284 39.0078L15.7811 39.7988C14.8001 40.0618 13.8253 39.3538 13.7733 38.3398L13.6151 35.293C13.5541 34.108 12.8012 33.0685 11.6932 32.6445L8.84364 31.5547C7.89464 31.1917 7.52206 30.0444 8.07606 29.1934L9.74012 26.6367C10.3871 25.6417 10.3871 24.3583 9.74012 23.3633L8.07606 20.8066C7.52206 19.9556 7.89464 18.8083 8.84364 18.4453L11.6932 17.3555C12.8012 16.9315 13.5541 15.892 13.6151 14.707L13.7733 11.6602C13.8263 10.6452 14.8001 9.93717 15.7811 10.2012L18.7284 10.9922C19.8744 11.3002 21.0937 10.9054 21.8397 9.98242L23.7597 7.60938C24.0792 7.21438 24.5391 7.01562 24.9999 7.01562ZM32.5878 17.2578C32.3964 17.2237 32.1925 17.3045 32.08 17.4785L23.1522 31.2598L17.8749 25.2617C17.6929 25.0547 17.3768 25.0348 17.1698 25.2168C16.9618 25.3988 16.9409 25.7149 17.1229 25.9219L22.8378 32.4141C22.9328 32.5221 23.0688 32.5859 23.2128 32.5859C23.2248 32.5859 23.2349 32.585 23.2479 32.584C23.4029 32.572 23.5477 32.4884 23.6327 32.3574L32.9198 18.0215C33.0698 17.7895 33.0034 17.4801 32.7714 17.3301C32.7141 17.2926 32.6516 17.2692 32.5878 17.2578Z" fill="#EA5357"/>
</svg>
