<svg width="50" height="50" viewBox="0 0 50 50" fill="none" xmlns="http://www.w3.org/2000/svg">
<path d="M14.4141 10C12.5311 10 11 11.5311 11 13.4141V17.5859C11 18.8255 11.6713 19.9015 12.6621 20.5C11.6713 21.0985 11 22.1745 11 23.4141V27.5859C11 28.8255 11.6713 29.9015 12.6621 30.5C11.6713 31.0985 11 32.1745 11 33.4141V37.5859C11 39.4689 12.5311 41 14.4141 41H33.418C33.087 40.694 32.7847 40.36 32.5137 40H14.4141C13.0821 40 12 38.9179 12 37.5859V33.4141C12 32.0821 13.0821 31 14.4141 31H32.5137C32.6492 30.82 32.7926 30.6472 32.9434 30.4805C33.0941 30.3137 33.2525 30.153 33.418 30H14.4141C13.0821 30 12 28.9179 12 27.5859V23.4141C12 22.0821 13.0821 21 14.4141 21H35.5859C36.9179 21 38 22.0821 38 23.4141V28H38.5H39V23.4141C39 22.1745 38.3287 21.0985 37.3379 20.5C38.3287 19.9015 39 18.8255 39 17.5859V13.4141C39 11.5311 37.4689 10 35.5859 10H14.4141ZM14.4141 11H35.5859C36.9179 11 38 12.0821 38 13.4141V17.5859C38 18.9179 36.9179 20 35.5859 20H14.4141C13.0821 20 12 18.9179 12 17.5859V13.4141C12 12.0821 13.0821 11 14.4141 11ZM38.498 29C34.909 29 31.998 31.91 31.998 35.5C31.998 39.09 34.908 42 38.498 42C42.088 42 44.998 39.09 44.998 35.5C44.998 31.91 42.088 29 38.498 29ZM41.2617 32.6738C41.3374 32.6871 41.4117 32.7155 41.4805 32.7598C41.7545 32.9368 41.8313 33.3022 41.6543 33.5762L38.3633 38.6602C38.2623 38.8162 38.0569 38.9297 37.8809 38.9297C37.7119 38.9297 37.5368 38.8565 37.4238 38.7285L35.3965 36.4277C35.1805 36.1827 35.2042 35.8097 35.4492 35.5938C35.6942 35.3778 36.0672 35.4015 36.2832 35.6465L37.7949 37.3613L40.6621 32.9336C40.7949 32.7281 41.0347 32.6339 41.2617 32.6738Z" fill="#EA5357"/>
</svg>
