<svg width="80" height="80" viewBox="0 0 80 80" fill="none" xmlns="http://www.w3.org/2000/svg">
<path d="M14.48 19.1201C12.5723 19.1201 11 20.6925 11 22.6001V60.8801C11 62.7878 12.5723 64.3601 14.48 64.3601H22.6C23.2389 64.3601 23.76 63.839 23.76 63.2001V61.4601C23.76 61.1067 23.6014 60.7759 23.325 60.5539C22.8447 60.1506 22.6 59.6793 22.6 59.1401C22.6 58.1251 23.325 57.4001 24.34 57.4001C25.355 57.4001 26.08 58.1251 26.08 59.1401C26.08 59.6793 25.8353 60.1506 25.355 60.5539C25.0786 60.7759 24.92 61.1067 24.92 61.4601V63.2001C24.92 63.839 25.4411 64.3601 26.08 64.3601H53.92C54.5589 64.3601 55.08 63.839 55.08 63.2001V61.4601C55.08 61.1067 54.9214 60.7759 54.645 60.5539C54.1647 60.1506 53.92 59.6793 53.92 59.1401C53.92 58.1251 54.645 57.4001 55.66 57.4001C56.675 57.4001 57.4 58.1251 57.4 59.1401C57.4 59.6793 57.1553 60.1506 56.675 60.5539C56.3986 60.7759 56.24 61.1067 56.24 61.4601V63.2001C56.24 63.839 56.7611 64.3601 57.4 64.3601H65.52C67.4277 64.3601 69 62.7878 69 60.8801V22.6001C69 20.6925 67.4277 19.1201 65.52 19.1201H14.48ZM14.48 21.4401H65.52C66.1634 21.4401 66.68 21.9567 66.68 22.6001V60.8801C66.68 61.5236 66.1634 62.0401 65.52 62.0401H58.56V61.8226C59.208 61.0976 59.72 60.205 59.72 59.1401C59.72 56.9107 57.8894 55.0801 55.66 55.0801C53.4306 55.0801 51.6 56.9107 51.6 59.1401C51.6 60.205 52.112 61.0976 52.76 61.8226V62.0401H27.24V61.8226C27.888 61.0976 28.4 60.205 28.4 59.1401C28.4 56.9107 26.5694 55.0801 24.34 55.0801C22.1106 55.0801 20.28 56.9107 20.28 59.1401C20.28 60.205 20.792 61.0976 21.44 61.8226V62.0401H14.48C13.8366 62.0401 13.32 61.5236 13.32 60.8801V22.6001C13.32 21.9567 13.8366 21.4401 14.48 21.4401ZM30.1038 26.0801C27.2717 26.1436 25.2598 27.3896 24.4125 29.2701C23.6377 30.9875 23.7736 32.9948 24.2675 35.0701C23.9911 35.4961 23.8234 36.0036 23.905 36.6289H23.8687C23.8733 36.6606 23.9005 36.6696 23.905 36.7014C24.0183 37.7209 24.5031 38.3779 25.1012 38.8039C25.2281 39.3793 25.3595 39.9639 25.6087 40.4351C25.7764 40.7478 25.9531 41.0151 26.1525 41.2689C26.1887 41.3142 26.2612 41.3368 26.2975 41.3776V42.9726C26.1525 43.2218 25.8897 43.5028 25.2462 43.8064C24.5394 44.1371 23.5697 44.4407 22.5637 44.8576C21.5578 45.2745 20.4748 45.8001 19.5912 46.6701C18.7077 47.5401 18.0642 48.8089 17.96 50.3676L17.8875 51.6001H42.3925L42.32 50.3676C42.2158 48.8089 41.5678 47.5401 40.6887 46.6701C39.8097 45.8001 38.7448 45.2745 37.7525 44.8576C36.7602 44.4407 35.8448 44.1326 35.1787 43.8064C34.5625 43.5073 34.3042 43.2672 34.2 43.0451C34.1502 42.5104 34.1773 41.9984 34.2 41.3776C34.2362 41.3278 34.3088 41.2825 34.345 41.2326C34.5353 40.9743 34.703 40.6753 34.8525 40.3626C35.0791 39.8868 35.2105 39.3295 35.3237 38.7676C35.4733 38.6543 35.6817 38.6589 35.795 38.5139C36.1484 38.0517 36.3478 37.4898 36.4837 36.7376L36.52 36.7014C36.6242 36.067 36.4248 35.5459 36.1575 35.1064C36.452 34.114 36.7556 32.7818 36.6287 31.3001C36.5517 30.4075 36.3161 29.4514 35.7225 28.6539C35.1697 27.9107 34.2634 27.3987 33.185 27.2039C32.8723 26.9184 32.6231 26.5514 32.2425 26.4064C31.5991 26.1662 30.8831 26.0801 30.14 26.0801H30.1038ZM30.14 28.4001C30.1536 28.4001 30.1627 28.4001 30.1762 28.4001C30.6883 28.4046 31.1323 28.4771 31.4087 28.5814C31.6942 28.6901 31.7712 28.7989 31.7712 28.7989L32.0612 29.3426L32.6775 29.4514C33.3436 29.5329 33.6019 29.7142 33.8375 30.0314C34.0731 30.3486 34.2544 30.8651 34.3088 31.4814C34.413 32.7093 34.0369 34.2953 33.8012 34.9614L33.475 35.9401L34.2 36.3389C34.1184 36.7376 34.0233 36.9189 33.9825 36.9914H33.2575L33.1488 38.0426C33.108 38.4414 32.9448 38.9715 32.75 39.3839C32.6503 39.5923 32.5687 39.7871 32.4963 39.8914L31.88 40.2176V40.9426C31.88 41.7718 31.7441 42.4334 31.88 43.5164L31.9525 43.7339C32.3377 44.835 33.2394 45.4739 34.1275 45.9089C35.0156 46.3439 36.0034 46.6656 36.8825 47.0326C37.7616 47.3997 38.5228 47.8075 39.0575 48.3376C39.2886 48.5642 39.3022 48.9946 39.4562 49.2801H20.8237C20.9778 48.9946 20.9914 48.5642 21.2225 48.3376C21.7572 47.8075 22.5411 47.3997 23.4337 47.0326C24.3264 46.6656 25.3097 46.3393 26.225 45.9089C27.1403 45.4784 28.0783 44.912 28.545 43.8426L28.6175 43.5889V40.2176L28.11 39.9639C28.1145 39.9684 28.0828 39.9321 28.0737 39.9276L28.0012 39.8914C27.9922 39.8823 28.0103 39.8642 28.0012 39.8551C27.9152 39.7464 27.7837 39.5561 27.675 39.3476C27.4575 38.9307 27.2762 38.4006 27.24 38.0426L27.1313 36.9914H26.3337C26.3111 36.9461 26.2295 36.8373 26.1887 36.4114V36.3389L26.8775 35.9764L26.6237 35.0701C26.08 33.0628 26.0302 31.2865 26.515 30.2126C26.9953 29.1432 27.9016 28.459 30.14 28.4001ZM54.7175 30.7201C49.3797 30.7201 45.8 34.8798 45.8 39.6376C45.8 44.1598 49.28 46.9601 53.34 46.9601C54.9622 46.9601 56.2536 46.7426 57.7625 46.1626L57.5087 44.8576C56.5798 45.3198 55.3066 45.5826 54.0287 45.5826C50.4309 45.5826 47.9025 43.3623 47.9025 39.4201C47.9025 34.8979 51.0064 32.0976 54.7175 32.0976C58.4286 32.0976 60.4087 34.4448 60.4087 37.4626C60.4087 40.1315 59.1309 41.3776 58.0887 41.3776C57.3909 41.3776 57.2777 40.8112 57.5087 39.4201L58.1975 35.1426C57.4997 34.7937 56.3397 34.5626 55.2975 34.5626C51.8175 34.5626 49.6425 37.1001 49.6425 40.0001C49.6425 41.8579 50.7798 43.0089 52.2887 43.0089C53.5666 43.0089 54.6314 42.4289 55.4425 41.2689C55.5603 42.4289 56.3487 43.0089 57.5087 43.0089C60.0598 43.0089 62.04 40.9426 62.04 37.4626C62.04 33.5204 59.0086 30.7201 54.7175 30.7201ZM54.8625 36.4114C55.0936 36.4114 55.3202 36.5201 55.5513 36.5201L55.2975 38.7314C55.0664 40.1225 54.1602 41.1601 53.2312 41.1601C52.5334 41.1601 52.0712 40.7115 52.0712 39.7826C52.0712 37.9248 53.2403 36.4114 54.8625 36.4114Z" fill="#EA5357"/>
</svg>
