<svg width="80" height="80" viewBox="0 0 80 80" fill="none" xmlns="http://www.w3.org/2000/svg">
<path d="M40.7131 16C38.1572 16 36.208 16.9061 35.2005 18.5223C34.2932 19.978 34.2791 21.8086 34.6996 23.6875C34.4853 24.0701 34.3522 24.5182 34.413 25.0804C34.4837 25.7312 34.6407 26.249 34.938 26.6696C35.0475 26.8245 35.2437 26.833 35.3909 26.9464C35.5421 27.5544 35.7005 28.1831 35.9968 28.5915C36.2048 28.8783 36.4167 29.1194 36.6137 29.3147C36.6222 29.3232 36.6316 29.3266 36.6399 29.3348V30.4688C36.5647 30.6413 36.4417 30.8016 36.0515 31.0268C35.6207 31.2754 34.9766 31.5296 34.2774 31.8772C33.5782 32.2249 32.807 32.6796 32.1774 33.4308C31.5477 34.182 31.1114 35.2288 31.042 36.5089C31.0337 36.664 31.0565 36.8192 31.1089 36.965C31.1613 37.1108 31.2423 37.2441 31.3469 37.3569C31.4515 37.4697 31.5775 37.5596 31.7173 37.621C31.8571 37.6825 32.0077 37.7142 32.1599 37.7143H47.8401C47.9923 37.7142 48.1429 37.6825 48.2827 37.621C48.4225 37.5596 48.5485 37.4697 48.6531 37.3569C48.7577 37.2441 48.8387 37.1108 48.8911 36.965C48.9435 36.8192 48.9663 36.664 48.958 36.5089C48.8886 35.2288 48.4523 34.182 47.8226 33.4308C47.193 32.6796 46.4218 32.225 45.7226 31.8772C45.0234 31.5295 44.3794 31.2732 43.9485 31.0246C43.5583 30.7994 43.4353 30.641 43.3601 30.4688V29.3214C43.3709 29.3102 43.3838 29.304 43.3951 29.2924C43.5888 29.0935 43.7981 28.8507 44.001 28.5647C44.2877 28.1607 44.4393 27.5525 44.5895 26.9643C44.7371 26.8508 44.9326 26.8427 45.0423 26.6875C45.34 26.2663 45.4994 25.7492 45.5695 25.0982C45.6166 24.6627 45.5772 24.2554 45.4295 23.8772C45.4096 23.8265 45.3223 23.7991 45.2982 23.7478C45.6108 22.4393 45.7127 21.044 45.2173 19.7634C44.7444 18.5411 43.5219 17.7027 41.995 17.3996L41.7653 16.7522C41.6868 16.5318 41.5437 16.3415 41.3554 16.2069C41.1672 16.0723 40.943 16.0001 40.7131 16ZM39.9737 18.4129L40.0678 18.6763C40.1464 18.8967 40.2895 19.0871 40.4777 19.2217C40.6659 19.3563 40.8902 19.4285 41.12 19.4286C42.4563 19.4286 42.8434 19.8553 43.1326 20.6027C43.4217 21.3501 43.3903 22.567 43.0582 23.6629C42.9979 23.8633 42.9927 24.0767 43.0432 24.2798C43.0938 24.483 43.1981 24.668 43.3447 24.8147C43.3452 24.8366 43.3461 24.8151 43.3426 24.8482C43.3079 25.1708 43.2593 25.235 43.2463 25.2634C43.0521 25.3546 42.8876 25.5005 42.7721 25.6841C42.6565 25.8676 42.5949 26.081 42.5944 26.2991C42.5944 26.438 42.4416 26.8674 42.1875 27.2254C42.0605 27.4045 41.9188 27.5681 41.8069 27.683C41.695 27.7979 41.5527 27.8847 41.6844 27.808C41.5131 27.9079 41.3708 28.0521 41.2717 28.2262C41.1726 28.4002 41.1202 28.5978 41.12 28.7991V30.7813C41.1203 30.9074 41.141 31.0326 41.1813 31.1518C41.4882 32.0669 42.1912 32.639 42.8438 33.0156C43.4964 33.3922 44.1615 33.6429 44.7404 33.9308C45.3193 34.2187 45.7948 34.5286 46.1207 34.9174C46.2178 35.0332 46.2225 35.2902 46.3001 35.4286H33.6999C33.7774 35.2902 33.7822 35.0332 33.8793 34.9174C34.2051 34.5287 34.6807 34.2209 35.2596 33.933C35.8385 33.6451 36.5035 33.3923 37.1562 33.0156C37.8089 32.6389 38.5119 32.0671 38.8187 31.1518C38.859 31.0326 38.8797 30.9074 38.88 30.7813V28.7991C38.8797 28.597 38.8269 28.3986 38.727 28.2241C38.6271 28.0496 38.4836 27.9053 38.3112 27.8058C38.4238 27.8707 38.2879 27.7877 38.1756 27.6763C38.0633 27.565 37.9237 27.4066 37.7971 27.2321C37.544 26.8832 37.3859 26.4697 37.3859 26.2812C37.3856 26.0634 37.3243 25.8501 37.2092 25.6666C37.0941 25.4831 36.93 25.337 36.7362 25.2455C36.7229 25.2167 36.6728 25.1531 36.6377 24.8304C36.6329 24.786 36.6421 24.8004 36.6487 24.7857C36.7884 24.6414 36.888 24.4618 36.9372 24.2653C36.9864 24.0687 36.9835 23.8624 36.9287 23.6674C36.4492 21.9601 36.5591 20.6027 37.0906 19.75C37.5399 19.0292 38.4842 18.5652 39.9737 18.4129ZM20.9596 26.2857C20.6626 26.2857 20.3777 26.4062 20.1677 26.6205C19.9577 26.8348 19.8397 27.1255 19.8396 27.4286V38.8571C19.8375 39.0086 19.8649 39.1589 19.9203 39.2995C19.9756 39.44 20.0578 39.5679 20.162 39.6758C20.2662 39.7836 20.3904 39.8693 20.5273 39.9277C20.6643 39.9862 20.8112 40.0163 20.9596 40.0163C21.1081 40.0163 21.255 39.9862 21.392 39.9277C21.5289 39.8693 21.6531 39.7836 21.7573 39.6758C21.8615 39.5679 21.9437 39.44 21.999 39.2995C22.0543 39.1589 22.0818 39.0086 22.0797 38.8571V28.5714H31.0398C31.1882 28.5736 31.3356 28.5456 31.4733 28.4891C31.6111 28.4326 31.7364 28.3488 31.8421 28.2425C31.9478 28.1361 32.0317 28.0094 32.089 27.8697C32.1463 27.73 32.1758 27.58 32.1758 27.4286C32.1758 27.2771 32.1463 27.1272 32.089 26.9874C32.0317 26.8477 31.9478 26.721 31.8421 26.6147C31.7364 26.5083 31.6111 26.4245 31.4733 26.368C31.3356 26.3116 31.1882 26.2836 31.0398 26.2857H20.9596ZM48.9602 26.2857C48.8117 26.2836 48.6644 26.3116 48.5267 26.368C48.3889 26.4245 48.2636 26.5083 48.1579 26.6147C48.0522 26.721 47.9683 26.8477 47.911 26.9874C47.8537 27.1272 47.8242 27.2771 47.8242 27.4286C47.8242 27.58 47.8537 27.73 47.911 27.8697C47.9683 28.0094 48.0522 28.1361 48.1579 28.2425C48.2636 28.3488 48.3889 28.4326 48.5267 28.4891C48.6644 28.5456 48.8117 28.5736 48.9602 28.5714H57.9203V38.8571C57.9182 39.0086 57.9456 39.1589 58.001 39.2995C58.0563 39.44 58.1385 39.5679 58.2427 39.6758C58.3469 39.7836 58.4711 39.8693 58.608 39.9277C58.745 39.9862 58.8919 40.0163 59.0403 40.0163C59.1888 40.0163 59.3357 39.9862 59.4727 39.9277C59.6096 39.8693 59.7338 39.7836 59.838 39.6758C59.9422 39.5679 60.0244 39.44 60.0797 39.2995C60.135 39.1589 60.1625 39.0086 60.1604 38.8571V27.4286C60.1603 27.1255 60.0423 26.8348 59.8323 26.6205C59.6223 26.4062 59.3374 26.2857 59.0403 26.2857H48.9602ZM21.6728 42.2857C19.1168 42.2857 17.1676 43.1918 16.1602 44.808C15.2528 46.2637 15.2387 48.0943 15.6592 49.9732C15.445 50.3558 15.3118 50.804 15.3727 51.3661C15.4434 52.017 15.6004 52.5348 15.8977 52.9554C16.0072 53.1102 16.2033 53.1187 16.3505 53.2321C16.5018 53.8401 16.6602 54.4688 16.9564 54.8772C17.1645 55.164 17.3763 55.4051 17.5733 55.6004C17.5819 55.6089 17.5913 55.6123 17.5996 55.6205V56.7545C17.5243 56.9271 17.4013 57.0873 17.0111 57.3125C16.5803 57.5611 15.9362 57.8153 15.237 58.1629C14.5379 58.5106 13.7667 58.9654 13.137 59.7165C12.5073 60.4677 12.0711 61.5146 12.0017 62.7946C11.9934 62.9497 12.0161 63.1049 12.0685 63.2507C12.1209 63.3965 12.2019 63.5298 12.3065 63.6426C12.4111 63.7554 12.5372 63.8453 12.677 63.9067C12.8167 63.9682 12.9673 63.9999 13.1195 64H28.7998C28.952 63.9999 29.1026 63.9682 29.2423 63.9067C29.3821 63.8453 29.5082 63.7554 29.6128 63.6426C29.7174 63.5298 29.7984 63.3965 29.8508 63.2507C29.9032 63.1049 29.9259 62.9497 29.9176 62.7946C29.8482 61.5146 29.4119 60.4678 28.7823 59.7165C28.1526 58.9653 27.3814 58.5107 26.6823 58.1629C25.9831 57.8152 25.339 57.5589 24.9082 57.3103C24.518 57.0851 24.3949 56.9267 24.3197 56.7545V55.6071C24.3306 55.5959 24.3434 55.5897 24.3547 55.5781C24.5485 55.3792 24.7577 55.1364 24.9607 54.8504C25.2474 54.4464 25.3989 53.8382 25.5491 53.25C25.6967 53.1365 25.8922 53.1284 26.0019 52.9732C26.2996 52.552 26.4591 52.035 26.5291 51.3839C26.5763 50.9484 26.5369 50.5411 26.3891 50.1629C26.3693 50.1122 26.282 50.0848 26.2579 50.0335C26.5705 48.7251 26.6723 47.3297 26.1769 46.0491C25.7041 44.8268 24.4815 43.9884 22.9547 43.6853L22.725 43.0379C22.6464 42.8176 22.5033 42.6272 22.3151 42.4926C22.1269 42.358 21.9026 42.2858 21.6728 42.2857ZM40.7131 42.2857C38.1572 42.2857 36.208 43.1918 35.2005 44.808C34.2932 46.2637 34.2791 48.0943 34.6996 49.9732C34.4853 50.3558 34.3522 50.804 34.413 51.3661C34.4837 52.017 34.6407 52.5348 34.938 52.9554C35.0475 53.1102 35.2437 53.1187 35.3909 53.2321C35.5421 53.8401 35.7005 54.4688 35.9968 54.8772C36.2048 55.164 36.4167 55.4051 36.6137 55.6004C36.6222 55.6089 36.6316 55.6123 36.6399 55.6205V56.7545C36.5647 56.9271 36.4417 57.0873 36.0515 57.3125C35.6207 57.5611 34.9766 57.8153 34.2774 58.1629C33.5782 58.5106 32.807 58.9654 32.1774 59.7165C31.5477 60.4677 31.1114 61.5146 31.042 62.7946C31.0337 62.9497 31.0565 63.1049 31.1089 63.2507C31.1613 63.3965 31.2423 63.5298 31.3469 63.6426C31.4515 63.7554 31.5775 63.8453 31.7173 63.9067C31.8571 63.9682 32.0077 63.9999 32.1599 64H47.8401C47.9923 63.9999 48.1429 63.9682 48.2827 63.9067C48.4225 63.8453 48.5485 63.7554 48.6531 63.6426C48.7577 63.5298 48.8387 63.3965 48.8911 63.2507C48.9435 63.1049 48.9663 62.9497 48.958 62.7946C48.8886 61.5146 48.4523 60.4678 47.8226 59.7165C47.193 58.9653 46.4218 58.5107 45.7226 58.1629C45.0234 57.8152 44.3794 57.5589 43.9485 57.3103C43.5583 57.0851 43.4353 56.9267 43.3601 56.7545V55.6071C43.3709 55.5959 43.3838 55.5897 43.3951 55.5781C43.5888 55.3792 43.7981 55.1364 44.001 54.8504C44.2877 54.4464 44.4393 53.8382 44.5895 53.25C44.7371 53.1365 44.9326 53.1284 45.0423 52.9732C45.34 52.552 45.4994 52.035 45.5695 51.3839C45.6166 50.9484 45.5772 50.5411 45.4295 50.1629C45.4096 50.1122 45.3223 50.0848 45.2982 50.0335C45.6108 48.7251 45.7127 47.3297 45.2173 46.0491C44.7444 44.8268 43.5219 43.9884 41.995 43.6853L41.7653 43.0379C41.6868 42.8176 41.5437 42.6272 41.3554 42.4926C41.1672 42.358 40.943 42.2858 40.7131 42.2857ZM59.7535 42.2857C57.1975 42.2857 55.2483 43.1918 54.2409 44.808C53.3335 46.2637 53.3194 48.0943 53.7399 49.9732C53.5257 50.3558 53.3925 50.804 53.4534 51.3661C53.5241 52.017 53.6811 52.5348 53.9784 52.9554C54.0879 53.1102 54.284 53.1187 54.4312 53.2321C54.5825 53.8401 54.7409 54.4688 55.0372 54.8772C55.2452 55.164 55.457 55.4051 55.654 55.6004C55.6625 55.6089 55.672 55.6123 55.6803 55.6205V56.7545C55.605 56.9271 55.482 57.0873 55.0918 57.3125C54.661 57.5611 54.0169 57.8153 53.3177 58.1629C52.6186 58.5106 51.8474 58.9654 51.2177 59.7165C50.588 60.4677 50.1518 61.5146 50.0824 62.7946C50.0741 62.9497 50.0968 63.1049 50.1492 63.2507C50.2016 63.3965 50.2826 63.5298 50.3872 63.6426C50.4918 63.7554 50.6179 63.8453 50.7577 63.9067C50.8974 63.9682 51.048 63.9999 51.2002 64H66.8805C67.0327 63.9999 67.1833 63.9682 67.323 63.9067C67.4628 63.8453 67.5889 63.7554 67.6935 63.6426C67.7981 63.5298 67.8791 63.3965 67.9315 63.2507C67.9839 63.1049 68.0066 62.9497 67.9983 62.7946C67.9289 61.5146 67.4926 60.4678 66.863 59.7165C66.2333 58.9653 65.4621 58.5107 64.763 58.1629C64.0638 57.8152 63.4197 57.5589 62.9889 57.3103C62.5987 57.0851 62.4756 56.9267 62.4004 56.7545V55.6071C62.4113 55.5959 62.4241 55.5897 62.4354 55.5781C62.6292 55.3792 62.8384 55.1364 63.0414 54.8504C63.3281 54.4464 63.4796 53.8382 63.6298 53.25C63.7774 53.1365 63.9729 53.1284 64.0826 52.9732C64.3803 52.552 64.5398 52.035 64.6098 51.3839C64.657 50.9484 64.6176 50.5411 64.4698 50.1629C64.45 50.1122 64.3627 50.0848 64.3386 50.0335C64.6512 48.7251 64.753 47.3297 64.2576 46.0491C63.7848 44.8268 62.5622 43.9884 61.0354 43.6853L60.8057 43.0379C60.7271 42.8176 60.584 42.6272 60.3958 42.4926C60.2076 42.358 59.9833 42.2858 59.7535 42.2857ZM20.9334 44.6987L21.0275 44.9621C21.106 45.1824 21.2491 45.3728 21.4374 45.5074C21.6256 45.642 21.8498 45.7142 22.0797 45.7143C23.416 45.7143 23.8031 46.141 24.0922 46.8884C24.3814 47.6358 24.3499 48.8527 24.0178 49.9487C23.9575 50.149 23.9523 50.3624 24.0029 50.5655C24.0534 50.7687 24.1577 50.9537 24.3044 51.1004C24.3048 51.1223 24.3058 51.1009 24.3022 51.1339C24.2675 51.4565 24.219 51.5207 24.206 51.5491C24.0118 51.6403 23.8472 51.7863 23.7317 51.9698C23.6162 52.1533 23.5546 52.3667 23.5541 52.5848C23.5541 52.7237 23.4013 53.1531 23.1472 53.5112C23.0201 53.6902 22.8785 53.8539 22.7666 53.9688C22.6546 54.0836 22.5124 54.1704 22.6441 54.0938C22.4728 54.1936 22.3304 54.3378 22.2313 54.5119C22.1322 54.6859 22.0799 54.8835 22.0797 55.0848V57.067C22.0799 57.1931 22.1006 57.3183 22.1409 57.4375C22.4479 58.3527 23.1508 58.9247 23.8034 59.3013C24.4561 59.6779 25.1211 59.9286 25.7 60.2165C26.2789 60.5045 26.7545 60.8143 27.0804 61.2031C27.1774 61.3189 27.1822 61.5759 27.2598 61.7143H14.6595C14.7371 61.576 14.7419 61.3189 14.8389 61.2031C15.1648 60.8144 15.6403 60.5066 16.2192 60.2188C16.7982 59.9309 17.4631 59.678 18.1158 59.3013C18.7686 58.9246 19.4715 58.3528 19.7784 57.4375C19.8187 57.3183 19.8394 57.1931 19.8396 57.067V55.0848C19.8393 54.8827 19.7866 54.6843 19.6866 54.5098C19.5867 54.3353 19.4433 54.191 19.2709 54.0915C19.3835 54.1564 19.2476 54.0734 19.1352 53.9621C19.0229 53.8507 18.8834 53.6923 18.7568 53.5179C18.5037 53.1689 18.3455 52.7554 18.3455 52.567C18.3452 52.3491 18.2839 52.1359 18.1688 51.9524C18.0537 51.7689 17.8896 51.6228 17.6958 51.5312C17.6825 51.5024 17.6325 51.4388 17.5974 51.1161C17.5926 51.0717 17.6018 51.0861 17.6083 51.0714C17.7481 50.9271 17.8476 50.7475 17.8968 50.551C17.946 50.3545 17.9431 50.1481 17.8883 49.9531C17.4089 48.2458 17.5187 46.8884 18.0502 46.0357C18.4995 45.3149 19.4438 44.8509 20.9334 44.6987ZM39.9737 44.6987L40.0678 44.9621C40.1464 45.1824 40.2895 45.3728 40.4777 45.5074C40.6659 45.642 40.8902 45.7142 41.12 45.7143C42.4563 45.7143 42.8434 46.141 43.1326 46.8884C43.4217 47.6358 43.3903 48.8527 43.0582 49.9487C42.9979 50.149 42.9927 50.3624 43.0432 50.5655C43.0938 50.7687 43.1981 50.9537 43.3447 51.1004C43.3452 51.1223 43.3461 51.1009 43.3426 51.1339C43.3079 51.4565 43.2593 51.5207 43.2463 51.5491C43.0521 51.6403 42.8876 51.7863 42.7721 51.9698C42.6565 52.1533 42.5949 52.3667 42.5944 52.5848C42.5944 52.7237 42.4416 53.1531 42.1875 53.5112C42.0605 53.6902 41.9188 53.8539 41.8069 53.9688C41.695 54.0836 41.5527 54.1704 41.6844 54.0938C41.5131 54.1936 41.3708 54.3378 41.2717 54.5119C41.1726 54.6859 41.1202 54.8835 41.12 55.0848V57.067C41.1203 57.1931 41.141 57.3183 41.1813 57.4375C41.4882 58.3527 42.1912 58.9247 42.8438 59.3013C43.4964 59.6779 44.1615 59.9286 44.7404 60.2165C45.3193 60.5045 45.7948 60.8143 46.1207 61.2031C46.2178 61.3189 46.2225 61.5759 46.3001 61.7143H33.6999C33.7774 61.576 33.7822 61.3189 33.8793 61.2031C34.2051 60.8144 34.6807 60.5066 35.2596 60.2188C35.8385 59.9309 36.5035 59.678 37.1562 59.3013C37.8089 58.9246 38.5119 58.3528 38.8187 57.4375C38.859 57.3183 38.8797 57.1931 38.88 57.067V55.0848C38.8797 54.8827 38.8269 54.6843 38.727 54.5098C38.6271 54.3353 38.4836 54.191 38.3112 54.0915C38.4238 54.1564 38.2879 54.0734 38.1756 53.9621C38.0633 53.8507 37.9237 53.6923 37.7971 53.5179C37.544 53.1689 37.3859 52.7554 37.3859 52.567C37.3856 52.3491 37.3243 52.1359 37.2092 51.9524C37.0941 51.7689 36.93 51.6228 36.7362 51.5312C36.7229 51.5024 36.6728 51.4388 36.6377 51.1161C36.6329 51.0717 36.6421 51.0861 36.6487 51.0714C36.7884 50.9271 36.888 50.7475 36.9372 50.551C36.9864 50.3545 36.9835 50.1481 36.9287 49.9531C36.4492 48.2458 36.5591 46.8884 37.0906 46.0357C37.5399 45.3149 38.4842 44.8509 39.9737 44.6987ZM59.0141 44.6987L59.1082 44.9621C59.1867 45.1824 59.3298 45.3728 59.5181 45.5074C59.7063 45.642 59.9305 45.7142 60.1604 45.7143C61.4967 45.7143 61.8838 46.141 62.1729 46.8884C62.4621 47.6358 62.4306 48.8527 62.0985 49.9487C62.0382 50.149 62.0331 50.3624 62.0836 50.5655C62.1341 50.7687 62.2384 50.9537 62.3851 51.1004C62.3855 51.1223 62.3865 51.1009 62.3829 51.1339C62.3482 51.4565 62.2997 51.5207 62.2867 51.5491C62.0925 51.6403 61.9279 51.7863 61.8124 51.9698C61.6969 52.1533 61.6353 52.3667 61.6348 52.5848C61.6348 52.7237 61.482 53.1531 61.2279 53.5112C61.1008 53.6902 60.9592 53.8539 60.8473 53.9688C60.7353 54.0836 60.5931 54.1704 60.7248 54.0938C60.5535 54.1936 60.4111 54.3378 60.312 54.5119C60.2129 54.6859 60.1606 54.8835 60.1604 55.0848V57.067C60.1606 57.1931 60.1813 57.3183 60.2216 57.4375C60.5286 58.3527 61.2315 58.9247 61.8842 59.3013C62.5368 59.6779 63.2019 59.9286 63.7808 60.2165C64.3596 60.5045 64.8352 60.8143 65.1611 61.2031C65.2581 61.3189 65.2629 61.5759 65.3405 61.7143H52.7402C52.8178 61.576 52.8226 61.3189 52.9196 61.2031C53.2455 60.8144 53.721 60.5066 54.2999 60.2188C54.8789 59.9309 55.5438 59.678 56.1965 59.3013C56.8493 58.9246 57.5522 58.3528 57.8591 57.4375C57.8994 57.3183 57.9201 57.1931 57.9203 57.067V55.0848C57.9201 54.8827 57.8673 54.6843 57.7673 54.5098C57.6674 54.3353 57.524 54.191 57.3516 54.0915C57.4642 54.1564 57.3283 54.0734 57.2159 53.9621C57.1036 53.8507 56.9641 53.6923 56.8375 53.5179C56.5844 53.1689 56.4262 52.7554 56.4262 52.567C56.4259 52.3491 56.3646 52.1359 56.2495 51.9524C56.1344 51.7689 55.9703 51.6228 55.7765 51.5312C55.7632 51.5024 55.7132 51.4388 55.6781 51.1161C55.6733 51.0717 55.6825 51.0861 55.689 51.0714C55.8288 50.9271 55.9283 50.7475 55.9775 50.551C56.0268 50.3545 56.0238 50.1481 55.969 49.9531C55.4896 48.2458 55.5994 46.8884 56.1309 46.0357C56.5802 45.3149 57.5245 44.8509 59.0141 44.6987Z" fill="#EA5357"/>
</svg>
