<svg width="80" height="80" viewBox="0 0 80 80" fill="none" xmlns="http://www.w3.org/2000/svg">
<g clip-path="url(#clip0_701_5428)">
<path d="M19.1201 13.3198V66.6798H50.3948C49.7452 65.9954 49.0954 65.2182 48.469 64.3598H21.4401V15.6398H44.6401V29.5598H58.5601V41.2414C59.4301 41.3342 60.1841 41.5543 60.8801 41.8327V27.924L46.2759 13.3198H19.1201ZM46.9601 17.2756L56.9243 27.2398H46.9601V17.2756ZM28.4001 38.8398V41.1598H51.6001V38.8398H28.4001ZM57.4001 43.4798C55.6601 43.4798 54.501 44.0594 53.109 44.7554C51.717 45.4514 49.977 46.2638 46.729 46.9598L45.8001 47.1909V48.1198C45.8001 63.1998 56.4721 68.6523 56.8201 68.8843L57.4001 69.1154L57.9801 68.8843C58.4441 68.6523 69.0001 62.7358 69.0001 48.1198V47.1909L68.0712 46.9598C64.8232 46.2638 63.0832 45.4514 61.6912 44.7554C60.2992 44.0594 59.1401 43.4798 57.4001 43.4798ZM28.4001 45.7998V48.1198H43.4801V45.7998H28.4001ZM57.4001 45.7998C58.6761 45.7998 59.373 46.1483 60.649 46.8443C62.041 47.4243 63.7801 48.3527 66.6801 49.0487C66.3321 59.8367 59.3721 65.1727 57.4001 66.4487C55.3121 65.2887 48.4681 60.3007 48.1201 49.0487C51.1361 48.3527 52.8752 47.4243 54.1512 46.8443C55.4272 46.1483 56.1241 45.7998 57.4001 45.7998ZM28.4001 52.7598V55.0798H44.2572C44.0716 54.3374 43.9314 53.5602 43.8154 52.7598H28.4001Z" fill="#EA5357"/>
</g>
<defs>
<clipPath id="clip0_701_5428">
<rect width="58" height="58" fill="white" transform="translate(11 11)"/>
</clipPath>
</defs>
</svg>
