<svg width="80" height="80" viewBox="0 0 80 80" fill="none" xmlns="http://www.w3.org/2000/svg">
<path d="M27.68 12C25.5406 12 23.4713 12.3588 21.52 13.2163C21.1438 13.365 20.8769 13.7106 20.8288 14.1175C20.7763 14.5244 20.9513 14.9225 21.2838 15.1588C21.6119 15.3994 22.0494 15.4388 22.4169 15.2638C24.0488 14.5506 25.79 14.24 27.68 14.24C35.1438 14.24 41.12 20.2163 41.12 27.68C41.12 35.1438 35.1438 41.12 27.68 41.12C20.2163 41.12 14.24 35.1438 14.24 27.68C14.24 24.2763 15.5438 21.2313 17.6 18.8163V21.7431C17.5956 22.1456 17.8056 22.5219 18.1556 22.7275C18.5056 22.9288 18.9344 22.9288 19.2844 22.7275C19.6344 22.5219 19.8444 22.1456 19.84 21.7431V15.36H13.4569C13.0544 15.3556 12.6781 15.5656 12.4725 15.9156C12.2713 16.2656 12.2713 16.6944 12.4725 17.0444C12.6781 17.3944 13.0544 17.6044 13.4569 17.6H15.6881C13.4394 20.3431 12 23.8213 12 27.68C12 36.3469 19.0131 43.36 27.68 43.36C36.3469 43.36 43.36 36.3469 43.36 27.68C43.36 19.0131 36.3469 12 27.68 12ZM54.56 12C53.335 12 52.32 13.015 52.32 14.24V16.48H41.645C42.2138 17.1844 42.7213 17.9369 43.1763 18.72H52.32V20.96C52.32 22.185 53.335 23.2 54.56 23.2H56.8C58.025 23.2 59.04 22.185 59.04 20.96V18.72H64.64V26.56H45.5431C45.565 26.9319 45.6 27.2994 45.6 27.68C45.6 28.0606 45.565 28.4281 45.5431 28.8H64.64V63.52H17.6V42.485C16.7994 41.9381 16.06 41.3213 15.36 40.6606V63.52C15.36 64.8194 16.3006 65.76 17.6 65.76H64.64C65.9394 65.76 66.88 64.8194 66.88 63.52V18.72C66.88 17.4206 65.9394 16.48 64.64 16.48H59.04V14.24C59.04 13.015 58.025 12 56.8 12H54.56ZM54.56 14.24H56.8V20.96H54.56V14.24ZM27.6625 17.5825C27.0456 17.5956 26.5513 18.1031 26.56 18.72V27.5006C26.525 27.7413 26.5644 27.9862 26.6825 28.2006C26.7831 28.4019 26.945 28.5681 27.1419 28.6775L31.4906 31.9369C31.985 32.3088 32.685 32.2081 33.0569 31.7094C33.4288 31.215 33.3281 30.515 32.8294 30.1431L28.8 27.12V18.72C28.8044 18.4181 28.6863 18.125 28.4719 17.9106C28.2575 17.6963 27.9644 17.5781 27.6625 17.5825ZM44.69 33.28C44.4363 34.0544 44.1213 34.7981 43.7669 35.52H47.84V41.12H40V48.96H34.4V44.2831C33.6781 44.5763 32.9256 44.8125 32.16 45.0094V48.96H26.56V45.5431C25.7988 45.495 25.0506 45.4119 24.32 45.2719V59.04H57.92V33.28H44.69ZM50.08 35.52H55.68V41.12H50.08V35.52ZM42.24 43.36H47.84V48.96H42.24V43.36ZM50.08 43.36H55.68V48.96H50.08V43.36ZM26.56 51.2H32.16V56.8H26.56V51.2ZM34.4 51.2H40V56.8H34.4V51.2ZM42.24 51.2H47.84V56.8H42.24V51.2ZM50.08 51.2H55.68V56.8H50.08V51.2Z" fill="#EA5357"/>
</svg>
