<svg width="80" height="80" viewBox="0 0 80 80" fill="none" xmlns="http://www.w3.org/2000/svg">
<path d="M26.3637 16C25.1216 16 24.091 17.0361 24.091 18.2849V20.5699H17.2728C16.0307 20.5699 15.0001 21.606 15.0001 22.8548V62.8413C14.998 62.9926 15.0258 63.143 15.082 63.2834C15.1381 63.4239 15.2215 63.5518 15.3272 63.6596C15.4329 63.7674 15.5589 63.853 15.6979 63.9115C15.8368 63.9699 15.9859 64 16.1365 64C16.2871 64 16.4362 63.9699 16.5751 63.9115C16.714 63.853 16.84 63.7674 16.9457 63.6596C17.0515 63.5518 17.1348 63.4239 17.191 63.2834C17.2471 63.143 17.275 62.9926 17.2728 62.8413V31.9946H62.7272V62.8413C62.725 62.9926 62.7529 63.143 62.809 63.2834C62.8652 63.4239 62.9485 63.5518 63.0543 63.6596C63.16 63.7674 63.286 63.853 63.4249 63.9115C63.5638 63.9699 63.7129 64 63.8635 64C64.0141 64 64.1632 63.9699 64.3021 63.9115C64.4411 63.853 64.5671 63.7674 64.6728 63.6596C64.7785 63.5518 64.8619 63.4239 64.918 63.2834C64.9742 63.143 65.002 62.9926 64.9999 62.8413V22.8548C64.9999 21.606 63.9693 20.5699 62.7272 20.5699H55.909V18.2849C55.909 17.0361 54.8784 16 53.6363 16H51.3636C50.1215 16 49.0909 17.0361 49.0909 18.2849V20.5699H30.9091V18.2849C30.9091 17.0361 29.8785 16 28.6364 16H26.3637ZM26.3637 18.2849H28.6364V25.1398H26.3637V21.9042C26.384 21.7809 26.384 21.655 26.3637 21.5316V18.2849ZM51.3636 18.2849H53.6363V21.5204C53.616 21.6438 53.616 21.7697 53.6363 21.8931V25.1398H51.3636V18.2849ZM17.2728 22.8548H24.091V25.1398C24.091 26.3885 25.1216 27.4247 26.3637 27.4247H28.6364C29.8785 27.4247 30.9091 26.3885 30.9091 25.1398V22.8548H49.0909V25.1398C49.0909 26.3885 50.1215 27.4247 51.3636 27.4247H53.6363C54.8784 27.4247 55.909 26.3885 55.909 25.1398V22.8548H62.7272V29.7096H17.2728V22.8548ZM21.8183 34.2795C21.5169 34.2795 21.2279 34.3999 21.0148 34.6142C20.8017 34.8284 20.6819 35.119 20.6819 35.422V36.5645H21.8183H22.9546V35.422V34.2795H21.8183ZM24.091 34.2795V36.5645H26.3637V34.2795H24.091ZM27.5001 34.2795V36.5645H29.7728V34.2795H27.5001ZM30.9091 34.2795V35.422V36.5645H32.0455H33.1818V35.422C33.1818 35.119 33.0621 34.8284 32.849 34.6142C32.6359 34.3999 32.3469 34.2795 32.0455 34.2795H30.9091ZM20.6819 37.7069V39.9919H22.9546V37.7069H20.6819ZM30.9091 37.7069V39.9919H33.1818V37.7069H30.9091ZM36.5909 38.8494C36.4403 38.8473 36.2908 38.8752 36.1511 38.9317C36.0114 38.9881 35.8842 39.0719 35.7769 39.1782C35.6697 39.2845 35.5846 39.4112 35.5264 39.5509C35.4683 39.6906 35.4384 39.8405 35.4384 39.9919C35.4384 40.1433 35.4683 40.2932 35.5264 40.4328C35.5846 40.5725 35.6697 40.6992 35.7769 40.8055C35.8842 40.9118 36.0114 40.9956 36.1511 41.052C36.2908 41.1085 36.4403 41.1365 36.5909 41.1343H52.4999V45.2312L51.0307 43.754C50.9248 43.6445 50.7981 43.5575 50.6582 43.4981C50.5183 43.4387 50.368 43.4081 50.2161 43.4081C49.9901 43.4082 49.7692 43.476 49.5817 43.603C49.3941 43.7299 49.2486 43.9102 49.1635 44.1208C49.0784 44.3313 49.0578 44.5626 49.1041 44.7851C49.1505 45.0075 49.2618 45.211 49.4238 45.3695L52.8329 48.7969C53.046 49.0111 53.335 49.1314 53.6363 49.1314C53.9376 49.1314 54.2266 49.0111 54.4397 48.7969L57.8488 45.3695C57.9579 45.2642 58.045 45.1381 58.1049 44.9986C58.1649 44.8591 58.1966 44.7089 58.1981 44.5569C58.1997 44.4049 58.171 44.2542 58.1139 44.1134C58.0567 43.9727 57.9722 43.8449 57.8653 43.7374C57.7584 43.6299 57.6313 43.5449 57.4913 43.4875C57.3513 43.43 57.2014 43.4012 57.0502 43.4028C56.899 43.4043 56.7496 43.4362 56.6108 43.4965C56.4721 43.5568 56.3466 43.6443 56.2419 43.754L54.7727 45.2312V39.9919C54.7726 39.6889 54.6529 39.3983 54.4398 39.184C54.2267 38.9698 53.9377 38.8494 53.6363 38.8494H36.5909ZM20.6819 41.1343V43.4193H22.9546V41.1343H20.6819ZM30.9091 41.1343V43.4193H33.1818V41.1343H30.9091ZM20.6819 44.5617V45.7042C20.6819 46.0072 20.8017 46.2978 21.0148 46.512C21.2279 46.7263 21.5169 46.8466 21.8183 46.8467H22.9546V45.7042V44.5617H21.8183H20.6819ZM24.091 44.5617V46.8467H26.3637V44.5617H24.091ZM27.5001 44.5617V46.8467H29.7728V44.5617H27.5001ZM30.9091 44.5617V45.7042V46.8467H32.0455C32.3469 46.8466 32.6359 46.7263 32.849 46.512C33.0621 46.2978 33.1818 46.0072 33.1818 45.7042V44.5617H32.0455H30.9091ZM47.9545 51.4166C47.6531 51.4166 47.3641 51.537 47.151 51.7512C46.9379 51.9655 46.8182 52.256 46.8182 52.559V62.8413C46.8182 63.1442 46.9379 63.4348 47.151 63.6491C47.3641 63.8633 47.6531 63.9837 47.9545 63.9837H58.1817C58.4831 63.9837 58.7721 63.8633 58.9852 63.6491C59.1983 63.4348 59.3181 63.1442 59.3181 62.8413V52.559C59.3181 52.256 59.1983 51.9655 58.9852 51.7512C58.7721 51.537 58.4831 51.4166 58.1817 51.4166H47.9545ZM49.0909 53.7015H57.0454V61.6988H49.0909V53.7015Z" fill="#EA5357"/>
</svg>
