<svg width="80" height="80" viewBox="0 0 80 80" fill="none" xmlns="http://www.w3.org/2000/svg">
<path d="M19.1201 19.1201C17.212 19.1201 15.6401 20.692 15.6401 22.6001V57.4001C15.6401 59.3083 17.212 60.8801 19.1201 60.8801H60.8801C62.7883 60.8801 64.3601 59.3083 64.3601 57.4001V22.6001C64.3601 20.692 62.7883 19.1201 60.8801 19.1201H19.1201ZM19.1201 21.4401H60.8801C61.5356 21.4401 62.0401 21.9447 62.0401 22.6001V26.0801H17.9601V22.6001C17.9601 21.9447 18.4647 21.4401 19.1201 21.4401ZM20.2801 22.6001C19.9725 22.6001 19.6774 22.7223 19.4599 22.9399C19.2424 23.1574 19.1201 23.4525 19.1201 23.7601C19.1201 24.0678 19.2424 24.3628 19.4599 24.5804C19.6774 24.7979 19.9725 24.9201 20.2801 24.9201C20.5878 24.9201 20.8828 24.7979 21.1004 24.5804C21.3179 24.3628 21.4401 24.0678 21.4401 23.7601C21.4401 23.4525 21.3179 23.1574 21.1004 22.9399C20.8828 22.7223 20.5878 22.6001 20.2801 22.6001ZM23.7601 22.6001C23.4525 22.6001 23.1574 22.7223 22.9399 22.9399C22.7224 23.1574 22.6001 23.4525 22.6001 23.7601C22.6001 24.0678 22.7224 24.3628 22.9399 24.5804C23.1574 24.7979 23.4525 24.9201 23.7601 24.9201C24.0678 24.9201 24.3628 24.7979 24.5804 24.5804C24.7979 24.3628 24.9201 24.0678 24.9201 23.7601C24.9201 23.4525 24.7979 23.1574 24.5804 22.9399C24.3628 22.7223 24.0678 22.6001 23.7601 22.6001ZM27.2401 22.6001C26.9325 22.6001 26.6374 22.7223 26.4199 22.9399C26.2024 23.1574 26.0801 23.4525 26.0801 23.7601C26.0801 24.0678 26.2024 24.3628 26.4199 24.5804C26.6374 24.7979 26.9325 24.9201 27.2401 24.9201C27.5478 24.9201 27.8428 24.7979 28.0604 24.5804C28.2779 24.3628 28.4001 24.0678 28.4001 23.7601C28.4001 23.4525 28.2779 23.1574 28.0604 22.9399C27.8428 22.7223 27.5478 22.6001 27.2401 22.6001ZM17.9601 28.4001H62.0401V57.4001C62.0401 58.0555 61.5356 58.5601 60.8801 58.5601H19.1201C18.4647 58.5601 17.9601 58.0555 17.9601 57.4001V28.4001ZM52.7601 35.3601C52.1448 35.3601 51.5547 35.6045 51.1196 36.0396C50.6846 36.4747 50.4401 37.0648 50.4401 37.6801C50.4402 37.9685 50.4939 38.2543 50.5987 38.5229L43.8268 46.9896C43.7121 46.9711 43.5963 46.9612 43.4801 46.9601C43.3233 46.9609 43.1669 46.9776 43.0134 47.01L36.4001 39.5696C36.4788 39.3345 36.5194 39.0881 36.5201 38.8401C36.5201 38.2248 36.2757 37.6347 35.8406 37.1996C35.4055 36.7645 34.8154 36.5201 34.2001 36.5201C33.5848 36.5201 32.9947 36.7645 32.5597 37.1996C32.1246 37.6347 31.8801 38.2248 31.8801 38.8401C31.8812 39.0422 31.9086 39.2433 31.9617 39.4382L27.8405 43.5594C27.6447 43.5069 27.4429 43.4802 27.2401 43.4801C26.6248 43.4801 26.0347 43.7245 25.5997 44.1596C25.1646 44.5947 24.9201 45.1848 24.9201 45.8001C24.9201 46.4154 25.1646 47.0055 25.5997 47.4406C26.0347 47.8757 26.6248 48.1201 27.2401 48.1201C27.8554 48.1201 28.4455 47.8757 28.8806 47.4406C29.3157 47.0055 29.5601 46.4154 29.5601 45.8001C29.5591 45.598 29.5317 45.397 29.4786 45.202L33.5997 41.0808C33.7956 41.1334 33.9974 41.16 34.2001 41.1601C34.3577 41.1602 34.5148 41.1443 34.6691 41.1125L41.2802 48.5506C41.2015 48.7858 41.1609 49.0321 41.1601 49.2801C41.1601 49.8954 41.4046 50.4855 41.8397 50.9206C42.2747 51.3557 42.8648 51.6001 43.4801 51.6001C44.0954 51.6001 44.6855 51.3557 45.1206 50.9206C45.5557 50.4855 45.8001 49.8954 45.8001 49.2801C45.8001 48.9918 45.7463 48.7059 45.6415 48.4373L52.4135 39.9707C52.5281 39.9891 52.644 39.999 52.7601 40.0001C53.3754 40.0001 53.9655 39.7557 54.4006 39.3206C54.8357 38.8855 55.0801 38.2954 55.0801 37.6801C55.0801 37.0648 54.8357 36.4747 54.4006 36.0396C53.9655 35.6045 53.3754 35.3601 52.7601 35.3601Z" fill="#EA5357"/>
</svg>
