<svg width="81" height="80" viewBox="0 0 81 80" fill="none" xmlns="http://www.w3.org/2000/svg">
<path d="M40.5 7C36.6445 7 33.5 10.1445 33.5 14C33.5 17.8555 36.6445 21 40.5 21C44.3555 21 47.5 17.8555 47.5 14C47.5 10.1445 44.3555 7 40.5 7ZM40.5 9C43.2734 9 45.5 11.2266 45.5 14C45.5 16.7734 43.2734 19 40.5 19C37.7266 19 35.5 16.7734 35.5 14C35.5 11.2266 37.7266 9 40.5 9ZM14.5 19C10.6445 19 7.5 22.1445 7.5 26C7.5 29.8555 10.6445 33 14.5 33C16.9531 33 19.1133 31.7266 20.3633 29.8086L20.4883 30.293L20.7656 30.5117L20.8555 30.5586L21.75 30.582L22.3086 29.8828L22.0781 29.0156L21.8008 28.7969L21.7148 28.75L20.9414 28.7266C21.3008 27.8867 21.5 26.9648 21.5 26C21.5 22.1445 18.3555 19 14.5 19ZM14.5 21C17.2734 21 19.5 23.2266 19.5 26C19.5 28.7734 17.2734 31 14.5 31C11.7266 31 9.5 28.7734 9.5 26C9.5 23.2266 11.7266 21 14.5 21ZM40.2188 21.25L39.5625 21.8633L39.5 22.2109V22.3125L39.9023 23.1094L40.7812 23.2695L41.4375 22.6562L41.5 22.3125V22.2109L41.0977 21.4102L40.2188 21.25ZM66.5 22C62.6445 22 59.5 25.1445 59.5 29C59.5 29.6562 59.5977 30.2852 59.7656 30.8906L59.3555 31.375L59.5508 32.2461L60.3711 32.6094L60.5 32.582C61.7266 34.625 63.9531 36 66.5 36C70.3555 36 73.5 32.8555 73.5 29C73.5 25.1445 70.3555 22 66.5 22ZM66.5 24C69.2734 24 71.5 26.2266 71.5 29C71.5 31.7734 69.2734 34 66.5 34C63.7266 34 61.5 31.7734 61.5 29C61.5 26.2266 63.7266 24 66.5 24ZM40.2188 25.3516L39.5625 25.9648L39.5 26.3125V26.4102L39.9023 27.2148L40.7812 27.3711L41.4375 26.7578L41.5 26.4102V26.3125L41.0977 25.5117L40.2188 25.3516ZM40.2188 29.4531L39.5781 30.0469C36.457 30.3359 33.7461 32.0664 32.1172 34.5664L31.6523 34.5547L31.0938 35.2539L31.3086 36.0742C30.7891 37.2773 30.5 38.6055 30.5 40C30.5 42.9648 31.8047 45.625 33.8633 47.457L33.8125 47.707L34.418 48.375L34.9648 48.3164C36.5508 49.3789 38.4531 50 40.5 50C43.2852 50 45.8086 48.8516 47.625 47.0039L47.7891 46.8906L47.793 46.8164C49.4648 45.0312 50.5 42.6367 50.5 40C50.5 38.8594 50.2969 37.7656 49.9414 36.7422L50.0625 36.6055L49.8594 35.7305L49.4375 35.543C47.9102 32.4961 44.875 30.332 41.3125 30.043L41.0977 29.6094L40.2188 29.4531ZM24.4297 30.668L23.875 31.3711L24.1016 32.2344L24.375 32.4531L24.4648 32.5L25.3594 32.5273L25.918 31.8281L25.6875 30.9609L25.4141 30.7383L25.3281 30.6914L24.4297 30.668ZM40.5 32C44.9297 32 48.5 35.5703 48.5 40C48.5 44.4297 44.9297 48 40.5 48C36.0703 48 32.5 44.4297 32.5 40C32.5 35.5703 36.0703 32 40.5 32ZM56.5938 32.1719L56.25 32.25L56.1602 32.2891L55.5781 32.9688L55.7773 33.8438L56.5938 34.207L56.9375 34.1289L57.0312 34.0938L57.6094 33.4102L57.4141 32.5352L56.5938 32.1719ZM28.0391 32.6094L27.4844 33.3125L27.7109 34.1797L27.9844 34.3984L28.0742 34.4453L28.9688 34.4727L29.5273 33.7695L29.2969 32.9062L29.0234 32.6875L28.9375 32.6367L28.0391 32.6094ZM52.8164 33.7695L52.4727 33.8477L52.3828 33.8867L51.8008 34.5664L52 35.4414L52.8164 35.8086L53.1602 35.7305L53.2539 35.6875L53.8359 35.0078L53.6406 34.1328L52.8164 33.7695ZM40.5 34C39.9492 34 39.5 34.4492 39.5 35C39.5 35.5508 39.9492 36 40.5 36C41.0508 36 41.5 35.5508 41.5 35C41.5 34.4492 41.0508 34 40.5 34ZM44.0469 35.4648C43.7773 35.4609 43.5195 35.5664 43.3281 35.7539C42.9375 36.1445 42.9375 36.7812 43.3281 37.1719C43.7188 37.5586 44.3516 37.5586 44.7422 37.1719C45.1328 36.7812 45.1328 36.1445 44.7422 35.7539C44.5586 35.5703 44.3086 35.4648 44.0469 35.4648ZM36.9805 35.4648C36.707 35.4609 36.4453 35.5664 36.2539 35.7578C35.8672 36.1484 35.8672 36.7812 36.2539 37.1719C36.6445 37.5625 37.2812 37.5625 37.6719 37.1719C38.0586 36.7812 38.0586 36.1484 37.6719 35.7578C37.4844 35.5742 37.2383 35.4688 36.9805 35.4648ZM35.5 39C34.9492 39 34.5 39.4492 34.5 40C34.5 40.5508 34.9492 41 35.5 41C36.0508 41 36.5 40.5508 36.5 40C36.5 39.4492 36.0508 39 35.5 39ZM45.5 39C44.9492 39 44.5 39.4492 44.5 40C44.5 40.5508 44.9492 41 45.5 41C46.0508 41 46.5 40.5508 46.5 40C46.5 39.4492 46.0508 39 45.5 39ZM36.9805 42.5352C36.707 42.5312 36.4492 42.6367 36.2578 42.8281C35.8672 43.2188 35.8672 43.8516 36.2578 44.2422C36.6484 44.6328 37.2812 44.6328 37.6719 44.2422C38.0625 43.8516 38.0625 43.2188 37.6719 42.8281C37.4883 42.6445 37.2383 42.5391 36.9805 42.5352ZM44.0508 42.5352C43.7812 42.5312 43.5195 42.6367 43.3281 42.8281C42.9375 43.2188 42.9375 43.8516 43.3281 44.2422C43.7188 44.6328 44.3516 44.6328 44.7422 44.2422C45.1328 43.8516 45.1328 43.2188 44.7422 42.8281C44.5586 42.6445 44.3125 42.5391 44.0508 42.5352ZM40.5 44C39.9492 44 39.5 44.4492 39.5 45C39.5 45.5508 39.9492 46 40.5 46C41.0508 46 41.5 45.5508 41.5 45C41.5 44.4492 41.0508 44 40.5 44ZM49.5938 48.25L48.8594 48.7617L48.8281 49.6562L49.0312 49.9453L49.1055 50.0156L49.9531 50.2969L50.6875 49.7852L50.7188 48.8906L50.5156 48.6055L50.4453 48.5312L49.5938 48.25ZM32.6992 49.6758L31.8086 49.7656L31.5469 50L31.4844 50.0781L31.3125 50.957L31.918 51.6211L32.8125 51.5352L33.0703 51.2969L33.1289 51.2188L33.3008 50.3398L32.6992 49.6758ZM52.4961 51.1484L51.7617 51.6602L51.7305 52.5586L51.9336 52.8438L52 52.918L52.8516 53.1992L53.5898 52.6875L53.6172 51.793L53.418 51.5L53.3438 51.4336L52.4961 51.1484ZM30.1992 52.9258L29.3086 53.0117L29.0469 53.25L28.9844 53.3281L28.8125 54.207L29.418 54.8711L30.3125 54.7852L30.5703 54.5469L30.6289 54.4688L30.8008 53.5898L30.1992 52.9258ZM55.3945 54.0469L54.6562 54.5625L54.6289 55.4531L54.8281 55.7461L54.9023 55.8125L55.75 56.0977L56.4844 55.5859L56.5156 54.6875L56.3125 54.4023L56.2461 54.3281L55.3945 54.0469ZM27.6992 56.1758L26.8086 56.2617L26.5469 56.5L26.4844 56.5781L26.3164 57.457L26.918 58.1211L27.8125 58.0352L28.0703 57.7969L28.1328 57.7188L28.3008 56.8398L27.6992 56.1758ZM58.293 56.9492L57.5586 57.457L57.5273 58.3555L57.7305 58.6445L57.8008 58.7148L58.6523 58.9961L59.3867 58.4844L59.418 57.5898L59.2148 57.3008L59.1445 57.2305L58.293 56.9492ZM20.5 59C16.6445 59 13.5 62.1445 13.5 66C13.5 69.8555 16.6445 73 20.5 73C24.3555 73 27.5 69.8555 27.5 66C27.5 64.1016 26.7344 62.375 25.5 61.1133L25.5703 61.0469L25.6328 60.9688L25.8008 60.0898L25.1992 59.4258L24.3086 59.5117L24.0469 59.75L23.9844 59.8281L23.9688 59.9297C22.9414 59.3398 21.7617 59 20.5 59ZM66.5 59C64.9141 59 63.4531 59.5391 62.2773 60.4336L62.1133 60.1992L62.043 60.1289L61.1914 59.8438L60.457 60.3594L60.4258 61.2539L60.6289 61.543L60.6992 61.6133L60.9844 61.707C60.0586 62.8945 59.5 64.3828 59.5 66C59.5 69.8555 62.6445 73 66.5 73C70.3555 73 73.5 69.8555 73.5 66C73.5 62.1445 70.3555 59 66.5 59ZM20.5 61C23.2734 61 25.5 63.2266 25.5 66C25.5 68.7734 23.2734 71 20.5 71C17.7266 71 15.5 68.7734 15.5 66C15.5 63.2266 17.7266 61 20.5 61ZM66.5 61C69.2734 61 71.5 63.2266 71.5 66C71.5 68.7734 69.2734 71 66.5 71C63.7266 71 61.5 68.7734 61.5 66C61.5 63.2266 63.7266 61 66.5 61Z" fill="#EA5357"/>
</svg>
