<svg width="81" height="80" viewBox="0 0 81 80" fill="none" xmlns="http://www.w3.org/2000/svg">
<path d="M55.5 12C53.8555 12 52.5 13.3555 52.5 15V19C51.9492 19 51.5 19.4492 51.5 20C51.5 20.5508 51.9492 21 52.5 21V25C52.5 26.6445 53.8555 28 55.5 28H67.5C69.1445 28 70.5 26.6445 70.5 25V15C70.5 13.3555 69.1445 12 67.5 12H55.5ZM55.5 14H67.5C68.0664 14 68.5 14.4336 68.5 15V25C68.5 25.5664 68.0664 26 67.5 26H55.5C54.9336 26 54.5 25.5664 54.5 25V15C54.5 14.4336 54.9336 14 55.5 14ZM57.5 16C56.9492 16 56.5 16.4492 56.5 17C56.5 17.5508 56.9492 18 57.5 18C58.0508 18 58.5 17.5508 58.5 17C58.5 16.4492 58.0508 16 57.5 16ZM61.5 16C60.9492 16 60.5 16.4492 60.5 17C60.5 17.5508 60.9492 18 61.5 18C62.0508 18 62.5 17.5508 62.5 17C62.5 16.4492 62.0508 16 61.5 16ZM65.5 16C64.9492 16 64.5 16.4492 64.5 17C64.5 17.5508 64.9492 18 65.5 18C66.0508 18 66.5 17.5508 66.5 17C66.5 16.4492 66.0508 16 65.5 16ZM36.5 19C35.9492 19 35.5 19.4492 35.5 20C35.5 20.5508 35.9492 21 36.5 21C37.0508 21 37.5 20.5508 37.5 20C37.5 19.4492 37.0508 19 36.5 19ZM40.5 19C39.9492 19 39.5 19.4492 39.5 20C39.5 20.5508 39.9492 21 40.5 21C41.0508 21 41.5 20.5508 41.5 20C41.5 19.4492 41.0508 19 40.5 19ZM44.5 19C43.9492 19 43.5 19.4492 43.5 20C43.5 20.5508 43.9492 21 44.5 21C45.0508 21 45.5 20.5508 45.5 20C45.5 19.4492 45.0508 19 44.5 19ZM48.5 19C47.9492 19 47.5 19.4492 47.5 20C47.5 20.5508 47.9492 21 48.5 21C49.0508 21 49.5 20.5508 49.5 20C49.5 19.4492 49.0508 19 48.5 19ZM36.5 23C35.9492 23 35.5 23.4492 35.5 24C35.5 24.5508 35.9492 25 36.5 25C37.0508 25 37.5 24.5508 37.5 24C37.5 23.4492 37.0508 23 36.5 23ZM36.5 27C35.9492 27 35.5 27.4492 35.5 28C35.5 28.5508 35.9492 29 36.5 29C37.0508 29 37.5 28.5508 37.5 28C37.5 27.4492 37.0508 27 36.5 27ZM36.5 31C35.9492 31 35.5 31.4492 35.5 32C35.5 32.5508 35.9492 33 36.5 33C37.0508 33 37.5 32.5508 37.5 32C37.5 31.4492 37.0508 31 36.5 31ZM13.5 32C11.8555 32 10.5 33.3555 10.5 35V45C10.5 46.6445 11.8555 48 13.5 48H25.5C27.1445 48 28.5 46.6445 28.5 45V41C29.0508 41 29.5 40.5508 29.5 40C29.5 39.4492 29.0508 39 28.5 39V35C28.5 33.3555 27.1445 32 25.5 32H13.5ZM55.5 32C53.8555 32 52.5 33.3555 52.5 35V39C51.9492 39 51.5 39.4492 51.5 40C51.5 40.5508 51.9492 41 52.5 41V45C52.5 46.6445 53.8555 48 55.5 48H67.5C69.1445 48 70.5 46.6445 70.5 45V35C70.5 33.3555 69.1445 32 67.5 32H55.5ZM13.5 34H25.5C26.0664 34 26.5 34.4336 26.5 35V45C26.5 45.5664 26.0664 46 25.5 46H13.5C12.9336 46 12.5 45.5664 12.5 45V35C12.5 34.4336 12.9336 34 13.5 34ZM55.5 34H67.5C68.0664 34 68.5 34.4336 68.5 35V45C68.5 45.5664 68.0664 46 67.5 46H55.5C54.9336 46 54.5 45.5664 54.5 45V35C54.5 34.4336 54.9336 34 55.5 34ZM36.5 35C35.9492 35 35.5 35.4492 35.5 36C35.5 36.5508 35.9492 37 36.5 37C37.0508 37 37.5 36.5508 37.5 36C37.5 35.4492 37.0508 35 36.5 35ZM15.5 36C14.9492 36 14.5 36.4492 14.5 37C14.5 37.5508 14.9492 38 15.5 38C16.0508 38 16.5 37.5508 16.5 37C16.5 36.4492 16.0508 36 15.5 36ZM19.5 36C18.9492 36 18.5 36.4492 18.5 37C18.5 37.5508 18.9492 38 19.5 38C20.0508 38 20.5 37.5508 20.5 37C20.5 36.4492 20.0508 36 19.5 36ZM23.5 36C22.9492 36 22.5 36.4492 22.5 37C22.5 37.5508 22.9492 38 23.5 38C24.0508 38 24.5 37.5508 24.5 37C24.5 36.4492 24.0508 36 23.5 36ZM57.5 36C56.9492 36 56.5 36.4492 56.5 37C56.5 37.5508 56.9492 38 57.5 38C58.0508 38 58.5 37.5508 58.5 37C58.5 36.4492 58.0508 36 57.5 36ZM61.5 36C60.9492 36 60.5 36.4492 60.5 37C60.5 37.5508 60.9492 38 61.5 38C62.0508 38 62.5 37.5508 62.5 37C62.5 36.4492 62.0508 36 61.5 36ZM65.5 36C64.9492 36 64.5 36.4492 64.5 37C64.5 37.5508 64.9492 38 65.5 38C66.0508 38 66.5 37.5508 66.5 37C66.5 36.4492 66.0508 36 65.5 36ZM32.5 39C31.9492 39 31.5 39.4492 31.5 40C31.5 40.5508 31.9492 41 32.5 41C33.0508 41 33.5 40.5508 33.5 40C33.5 39.4492 33.0508 39 32.5 39ZM36.5 39C35.9492 39 35.5 39.4492 35.5 40C35.5 40.5508 35.9492 41 36.5 41C37.0508 41 37.5 40.5508 37.5 40C37.5 39.4492 37.0508 39 36.5 39ZM40.5 39C39.9492 39 39.5 39.4492 39.5 40C39.5 40.5508 39.9492 41 40.5 41C41.0508 41 41.5 40.5508 41.5 40C41.5 39.4492 41.0508 39 40.5 39ZM44.5 39C43.9492 39 43.5 39.4492 43.5 40C43.5 40.5508 43.9492 41 44.5 41C45.0508 41 45.5 40.5508 45.5 40C45.5 39.4492 45.0508 39 44.5 39ZM48.5 39C47.9492 39 47.5 39.4492 47.5 40C47.5 40.5508 47.9492 41 48.5 41C49.0508 41 49.5 40.5508 49.5 40C49.5 39.4492 49.0508 39 48.5 39ZM36.5 43C35.9492 43 35.5 43.4492 35.5 44C35.5 44.5508 35.9492 45 36.5 45C37.0508 45 37.5 44.5508 37.5 44C37.5 43.4492 37.0508 43 36.5 43ZM36.5 47C35.9492 47 35.5 47.4492 35.5 48C35.5 48.5508 35.9492 49 36.5 49C37.0508 49 37.5 48.5508 37.5 48C37.5 47.4492 37.0508 47 36.5 47ZM36.5 51C35.9492 51 35.5 51.4492 35.5 52C35.5 52.5508 35.9492 53 36.5 53C37.0508 53 37.5 52.5508 37.5 52C37.5 51.4492 37.0508 51 36.5 51ZM55.5 52C53.8555 52 52.5 53.3555 52.5 55V59C51.9492 59 51.5 59.4492 51.5 60C51.5 60.5508 51.9492 61 52.5 61V65C52.5 66.6445 53.8555 68 55.5 68H67.5C69.1445 68 70.5 66.6445 70.5 65V55C70.5 53.3555 69.1445 52 67.5 52H55.5ZM55.5 54H67.5C68.0664 54 68.5 54.4336 68.5 55V65C68.5 65.5664 68.0664 66 67.5 66H55.5C54.9336 66 54.5 65.5664 54.5 65V55C54.5 54.4336 54.9336 54 55.5 54ZM36.5 55C35.9492 55 35.5 55.4492 35.5 56C35.5 56.5508 35.9492 57 36.5 57C37.0508 57 37.5 56.5508 37.5 56C37.5 55.4492 37.0508 55 36.5 55ZM57.5 56C56.9492 56 56.5 56.4492 56.5 57C56.5 57.5508 56.9492 58 57.5 58C58.0508 58 58.5 57.5508 58.5 57C58.5 56.4492 58.0508 56 57.5 56ZM61.5 56C60.9492 56 60.5 56.4492 60.5 57C60.5 57.5508 60.9492 58 61.5 58C62.0508 58 62.5 57.5508 62.5 57C62.5 56.4492 62.0508 56 61.5 56ZM65.5 56C64.9492 56 64.5 56.4492 64.5 57C64.5 57.5508 64.9492 58 65.5 58C66.0508 58 66.5 57.5508 66.5 57C66.5 56.4492 66.0508 56 65.5 56ZM36.5 59C35.9492 59 35.5 59.4492 35.5 60C35.5 60.5508 35.9492 61 36.5 61C37.0508 61 37.5 60.5508 37.5 60C37.5 59.4492 37.0508 59 36.5 59ZM40.5 59C39.9492 59 39.5 59.4492 39.5 60C39.5 60.5508 39.9492 61 40.5 61C41.0508 61 41.5 60.5508 41.5 60C41.5 59.4492 41.0508 59 40.5 59ZM44.5 59C43.9492 59 43.5 59.4492 43.5 60C43.5 60.5508 43.9492 61 44.5 61C45.0508 61 45.5 60.5508 45.5 60C45.5 59.4492 45.0508 59 44.5 59ZM48.5 59C47.9492 59 47.5 59.4492 47.5 60C47.5 60.5508 47.9492 61 48.5 61C49.0508 61 49.5 60.5508 49.5 60C49.5 59.4492 49.0508 59 48.5 59Z" fill="#EA5357"/>
</svg>
