<svg width="81" height="80" viewBox="0 0 81 80" fill="none" xmlns="http://www.w3.org/2000/svg">
<path d="M57.6543 4.64259C57.4575 4.64376 57.2655 4.70294 57.1022 4.81272C56.9389 4.92251 56.8117 5.07801 56.7363 5.25978L44.5762 34.6172C44.5005 34.7999 44.4807 35.001 44.5193 35.195C44.5579 35.389 44.6531 35.5672 44.793 35.707C44.9329 35.8469 45.111 35.9421 45.305 35.9807C45.499 36.0193 45.7001 35.9995 45.8828 35.9238L75.2402 23.7637C75.4852 23.6621 75.6799 23.4674 75.7813 23.2224C75.8828 22.9774 75.8828 22.7021 75.7812 22.457C72.3198 14.1014 65.79 7.92811 58.043 4.71877C57.9198 4.66772 57.7876 4.64182 57.6543 4.64259ZM40.5 7.00002C22.304 7.00002 7.5 21.804 7.5 40C7.5 58.196 22.304 73 40.5 73C58.696 73 73.5 58.196 73.5 40C73.5 35.986 72.778 32.1372 71.459 28.5762L69.6113 29.3418C70.8323 32.6668 71.5 36.257 71.5 40C71.5 48.1878 68.3031 55.6382 63.0996 61.1856L41.5 39.586V9.0215C44.8822 9.12939 48.1308 9.77698 51.1582 10.8887L51.9238 9.04103C48.3628 7.72203 44.514 7.00002 40.5 7.00002ZM58.1641 7.03713C64.7459 10.017 70.2624 15.2861 73.457 22.3379L47.3477 33.1524L58.1641 7.03713ZM38.5039 9.07228C38.5222 9.32411 38.635 9.55971 38.8197 9.73179C39.0045 9.90387 39.2475 9.99969 39.5 10V14C39.2348 14 38.9804 14.1054 38.7929 14.2929C38.6054 14.4804 38.5 14.7348 38.5 15C38.5 15.2652 38.6054 15.5196 38.7929 15.7071C38.9804 15.8947 39.2348 16 39.5 16V20C39.2348 20 38.9804 20.1054 38.7929 20.2929C38.6054 20.4804 38.5 20.7348 38.5 21C38.5 21.2652 38.6054 21.5196 38.7929 21.7071C38.9804 21.8947 39.2348 22 39.5 22V26C39.2348 26 38.9804 26.1054 38.7929 26.2929C38.6054 26.4804 38.5 26.7348 38.5 27C38.5 27.2652 38.6054 27.5196 38.7929 27.7071C38.9804 27.8947 39.2348 28 39.5 28V32C39.2348 32 38.9804 32.1054 38.7929 32.2929C38.6054 32.4804 38.5 32.7348 38.5 33C38.5 33.2652 38.6054 33.5196 38.7929 33.7071C38.9804 33.8947 39.2348 34 39.5 34V38C39.2348 38 38.9804 38.1054 38.7929 38.2929C38.6054 38.4804 38.5 38.7348 38.5 39H34.5C34.5 38.7348 34.3946 38.4804 34.2071 38.2929C34.0196 38.1054 33.7652 38 33.5 38C33.2348 38 32.9804 38.1054 32.7929 38.2929C32.6054 38.4804 32.5 38.7348 32.5 39H28.5C28.5 38.7348 28.3946 38.4804 28.2071 38.2929C28.0196 38.1054 27.7652 38 27.5 38C27.2348 38 26.9804 38.1054 26.7929 38.2929C26.6054 38.4804 26.5 38.7348 26.5 39H22.5C22.5 38.7348 22.3946 38.4804 22.2071 38.2929C22.0196 38.1054 21.7652 38 21.5 38C21.2348 38 20.9804 38.1054 20.7929 38.2929C20.6054 38.4804 20.5 38.7348 20.5 39H16.5C16.5 38.7348 16.3946 38.4804 16.2071 38.2929C16.0196 38.1054 15.7652 38 15.5 38C15.2348 38 14.9804 38.1054 14.7929 38.2929C14.6054 38.4804 14.5 38.7348 14.5 39H9.52539C9.72748 32.6655 11.8354 26.8078 15.2988 21.9785C15.365 21.9925 15.4324 21.9997 15.5 22C15.7652 22 16.0196 21.8947 16.2071 21.7071C16.3946 21.5196 16.5 21.2652 16.5 21C16.4994 20.8417 16.4613 20.6857 16.3887 20.5449C16.8733 19.9455 17.3811 19.3662 17.9082 18.8047C18.0796 18.9312 18.287 18.9996 18.5 19C18.7652 19 19.0196 18.8947 19.2071 18.7071C19.3946 18.5196 19.5 18.2652 19.5 18C19.4996 17.787 19.4312 17.5796 19.3047 17.4082C19.8661 16.8812 20.4456 16.3732 21.0449 15.8887C21.1857 15.9613 21.3416 15.9995 21.5 16C21.7652 16 22.0196 15.8947 22.2071 15.7071C22.3946 15.5196 22.5 15.2652 22.5 15C22.5003 14.9325 22.4938 14.8651 22.4805 14.7988C25.6274 12.5422 29.2093 10.8587 33.0781 9.90431C33.2101 9.96661 33.3541 9.99928 33.5 10C33.6492 9.99976 33.7964 9.96613 33.9309 9.90158C34.0654 9.83703 34.1838 9.7432 34.2773 9.62697C35.6549 9.34518 37.067 9.16409 38.5039 9.07228ZM30.5 11C30.2348 11 29.9804 11.1054 29.7929 11.2929C29.6054 11.4804 29.5 11.7348 29.5 12C29.5 12.2652 29.6054 12.5196 29.7929 12.7071C29.9804 12.8947 30.2348 13 30.5 13C30.7652 13 31.0196 12.8947 31.2071 12.7071C31.3946 12.5196 31.5 12.2652 31.5 12C31.5 11.7348 31.3946 11.4804 31.2071 11.2929C31.0196 11.1054 30.7652 11 30.5 11ZM36.5 11C36.2348 11 35.9804 11.1054 35.7929 11.2929C35.6054 11.4804 35.5 11.7348 35.5 12C35.5 12.2652 35.6054 12.5196 35.7929 12.7071C35.9804 12.8947 36.2348 13 36.5 13C36.7652 13 37.0196 12.8947 37.2071 12.7071C37.3946 12.5196 37.5 12.2652 37.5 12C37.5 11.7348 37.3946 11.4804 37.2071 11.2929C37.0196 11.1054 36.7652 11 36.5 11ZM27.5 14C27.2348 14 26.9804 14.1054 26.7929 14.2929C26.6054 14.4804 26.5 14.7348 26.5 15C26.5 15.2652 26.6054 15.5196 26.7929 15.7071C26.9804 15.8947 27.2348 16 27.5 16C27.7652 16 28.0196 15.8947 28.2071 15.7071C28.3946 15.5196 28.5 15.2652 28.5 15C28.5 14.7348 28.3946 14.4804 28.2071 14.2929C28.0196 14.1054 27.7652 14 27.5 14ZM33.5 14C33.2348 14 32.9804 14.1054 32.7929 14.2929C32.6054 14.4804 32.5 14.7348 32.5 15C32.5 15.2652 32.6054 15.5196 32.7929 15.7071C32.9804 15.8947 33.2348 16 33.5 16C33.7652 16 34.0196 15.8947 34.2071 15.7071C34.3946 15.5196 34.5 15.2652 34.5 15C34.5 14.7348 34.3946 14.4804 34.2071 14.2929C34.0196 14.1054 33.7652 14 33.5 14ZM24.5 17C24.2348 17 23.9804 17.1054 23.7929 17.2929C23.6054 17.4804 23.5 17.7348 23.5 18C23.5 18.2652 23.6054 18.5196 23.7929 18.7071C23.9804 18.8947 24.2348 19 24.5 19C24.7652 19 25.0196 18.8947 25.2071 18.7071C25.3946 18.5196 25.5 18.2652 25.5 18C25.5 17.7348 25.3946 17.4804 25.2071 17.2929C25.0196 17.1054 24.7652 17 24.5 17ZM30.5 17C30.2348 17 29.9804 17.1054 29.7929 17.2929C29.6054 17.4804 29.5 17.7348 29.5 18C29.5 18.2652 29.6054 18.5196 29.7929 18.7071C29.9804 18.8947 30.2348 19 30.5 19C30.7652 19 31.0196 18.8947 31.2071 18.7071C31.3946 18.5196 31.5 18.2652 31.5 18C31.5 17.7348 31.3946 17.4804 31.2071 17.2929C31.0196 17.1054 30.7652 17 30.5 17ZM36.5 17C36.2348 17 35.9804 17.1054 35.7929 17.2929C35.6054 17.4804 35.5 17.7348 35.5 18C35.5 18.2652 35.6054 18.5196 35.7929 18.7071C35.9804 18.8947 36.2348 19 36.5 19C36.7652 19 37.0196 18.8947 37.2071 18.7071C37.3946 18.5196 37.5 18.2652 37.5 18C37.5 17.7348 37.3946 17.4804 37.2071 17.2929C37.0196 17.1054 36.7652 17 36.5 17ZM21.5 20C21.2348 20 20.9804 20.1054 20.7929 20.2929C20.6054 20.4804 20.5 20.7348 20.5 21C20.5 21.2652 20.6054 21.5196 20.7929 21.7071C20.9804 21.8947 21.2348 22 21.5 22C21.7652 22 22.0196 21.8947 22.2071 21.7071C22.3946 21.5196 22.5 21.2652 22.5 21C22.5 20.7348 22.3946 20.4804 22.2071 20.2929C22.0196 20.1054 21.7652 20 21.5 20ZM27.5 20C27.2348 20 26.9804 20.1054 26.7929 20.2929C26.6054 20.4804 26.5 20.7348 26.5 21C26.5 21.2652 26.6054 21.5196 26.7929 21.7071C26.9804 21.8947 27.2348 22 27.5 22C27.7652 22 28.0196 21.8947 28.2071 21.7071C28.3946 21.5196 28.5 21.2652 28.5 21C28.5 20.7348 28.3946 20.4804 28.2071 20.2929C28.0196 20.1054 27.7652 20 27.5 20ZM33.5 20C33.2348 20 32.9804 20.1054 32.7929 20.2929C32.6054 20.4804 32.5 20.7348 32.5 21C32.5 21.2652 32.6054 21.5196 32.7929 21.7071C32.9804 21.8947 33.2348 22 33.5 22C33.7652 22 34.0196 21.8947 34.2071 21.7071C34.3946 21.5196 34.5 21.2652 34.5 21C34.5 20.7348 34.3946 20.4804 34.2071 20.2929C34.0196 20.1054 33.7652 20 33.5 20ZM18.5 23C18.2348 23 17.9804 23.1054 17.7929 23.2929C17.6054 23.4804 17.5 23.7348 17.5 24C17.5 24.2652 17.6054 24.5196 17.7929 24.7071C17.9804 24.8947 18.2348 25 18.5 25C18.7652 25 19.0196 24.8947 19.2071 24.7071C19.3946 24.5196 19.5 24.2652 19.5 24C19.5 23.7348 19.3946 23.4804 19.2071 23.2929C19.0196 23.1054 18.7652 23 18.5 23ZM24.5 23C24.2348 23 23.9804 23.1054 23.7929 23.2929C23.6054 23.4804 23.5 23.7348 23.5 24C23.5 24.2652 23.6054 24.5196 23.7929 24.7071C23.9804 24.8947 24.2348 25 24.5 25C24.7652 25 25.0196 24.8947 25.2071 24.7071C25.3946 24.5196 25.5 24.2652 25.5 24C25.5 23.7348 25.3946 23.4804 25.2071 23.2929C25.0196 23.1054 24.7652 23 24.5 23ZM30.5 23C30.2348 23 29.9804 23.1054 29.7929 23.2929C29.6054 23.4804 29.5 23.7348 29.5 24C29.5 24.2652 29.6054 24.5196 29.7929 24.7071C29.9804 24.8947 30.2348 25 30.5 25C30.7652 25 31.0196 24.8947 31.2071 24.7071C31.3946 24.5196 31.5 24.2652 31.5 24C31.5 23.7348 31.3946 23.4804 31.2071 23.2929C31.0196 23.1054 30.7652 23 30.5 23ZM36.5 23C36.2348 23 35.9804 23.1054 35.7929 23.2929C35.6054 23.4804 35.5 23.7348 35.5 24C35.5 24.2652 35.6054 24.5196 35.7929 24.7071C35.9804 24.8947 36.2348 25 36.5 25C36.7652 25 37.0196 24.8947 37.2071 24.7071C37.3946 24.5196 37.5 24.2652 37.5 24C37.5 23.7348 37.3946 23.4804 37.2071 23.2929C37.0196 23.1054 36.7652 23 36.5 23ZM15.5 26C15.2348 26 14.9804 26.1054 14.7929 26.2929C14.6054 26.4804 14.5 26.7348 14.5 27C14.5 27.2652 14.6054 27.5196 14.7929 27.7071C14.9804 27.8947 15.2348 28 15.5 28C15.7652 28 16.0196 27.8947 16.2071 27.7071C16.3946 27.5196 16.5 27.2652 16.5 27C16.5 26.7348 16.3946 26.4804 16.2071 26.2929C16.0196 26.1054 15.7652 26 15.5 26ZM21.5 26C21.2348 26 20.9804 26.1054 20.7929 26.2929C20.6054 26.4804 20.5 26.7348 20.5 27C20.5 27.2652 20.6054 27.5196 20.7929 27.7071C20.9804 27.8947 21.2348 28 21.5 28C21.7652 28 22.0196 27.8947 22.2071 27.7071C22.3946 27.5196 22.5 27.2652 22.5 27C22.5 26.7348 22.3946 26.4804 22.2071 26.2929C22.0196 26.1054 21.7652 26 21.5 26ZM27.5 26C27.2348 26 26.9804 26.1054 26.7929 26.2929C26.6054 26.4804 26.5 26.7348 26.5 27C26.5 27.2652 26.6054 27.5196 26.7929 27.7071C26.9804 27.8947 27.2348 28 27.5 28C27.7652 28 28.0196 27.8947 28.2071 27.7071C28.3946 27.5196 28.5 27.2652 28.5 27C28.5 26.7348 28.3946 26.4804 28.2071 26.2929C28.0196 26.1054 27.7652 26 27.5 26ZM33.5 26C33.2348 26 32.9804 26.1054 32.7929 26.2929C32.6054 26.4804 32.5 26.7348 32.5 27C32.5 27.2652 32.6054 27.5196 32.7929 27.7071C32.9804 27.8947 33.2348 28 33.5 28C33.7652 28 34.0196 27.8947 34.2071 27.7071C34.3946 27.5196 34.5 27.2652 34.5 27C34.5 26.7348 34.3946 26.4804 34.2071 26.2929C34.0196 26.1054 33.7652 26 33.5 26ZM12.5 29C12.2348 29 11.9804 29.1054 11.7929 29.2929C11.6054 29.4804 11.5 29.7348 11.5 30C11.5 30.2652 11.6054 30.5196 11.7929 30.7071C11.9804 30.8947 12.2348 31 12.5 31C12.7652 31 13.0196 30.8947 13.2071 30.7071C13.3946 30.5196 13.5 30.2652 13.5 30C13.5 29.7348 13.3946 29.4804 13.2071 29.2929C13.0196 29.1054 12.7652 29 12.5 29ZM18.5 29C18.2348 29 17.9804 29.1054 17.7929 29.2929C17.6054 29.4804 17.5 29.7348 17.5 30C17.5 30.2652 17.6054 30.5196 17.7929 30.7071C17.9804 30.8947 18.2348 31 18.5 31C18.7652 31 19.0196 30.8947 19.2071 30.7071C19.3946 30.5196 19.5 30.2652 19.5 30C19.5 29.7348 19.3946 29.4804 19.2071 29.2929C19.0196 29.1054 18.7652 29 18.5 29ZM24.5 29C24.2348 29 23.9804 29.1054 23.7929 29.2929C23.6054 29.4804 23.5 29.7348 23.5 30C23.5 30.2652 23.6054 30.5196 23.7929 30.7071C23.9804 30.8947 24.2348 31 24.5 31C24.7652 31 25.0196 30.8947 25.2071 30.7071C25.3946 30.5196 25.5 30.2652 25.5 30C25.5 29.7348 25.3946 29.4804 25.2071 29.2929C25.0196 29.1054 24.7652 29 24.5 29ZM30.5 29C30.2348 29 29.9804 29.1054 29.7929 29.2929C29.6054 29.4804 29.5 29.7348 29.5 30C29.5 30.2652 29.6054 30.5196 29.7929 30.7071C29.9804 30.8947 30.2348 31 30.5 31C30.7652 31 31.0196 30.8947 31.2071 30.7071C31.3946 30.5196 31.5 30.2652 31.5 30C31.5 29.7348 31.3946 29.4804 31.2071 29.2929C31.0196 29.1054 30.7652 29 30.5 29ZM36.5 29C36.2348 29 35.9804 29.1054 35.7929 29.2929C35.6054 29.4804 35.5 29.7348 35.5 30C35.5 30.2652 35.6054 30.5196 35.7929 30.7071C35.9804 30.8947 36.2348 31 36.5 31C36.7652 31 37.0196 30.8947 37.2071 30.7071C37.3946 30.5196 37.5 30.2652 37.5 30C37.5 29.7348 37.3946 29.4804 37.2071 29.2929C37.0196 29.1054 36.7652 29 36.5 29ZM15.5 32C15.2348 32 14.9804 32.1054 14.7929 32.2929C14.6054 32.4804 14.5 32.7348 14.5 33C14.5 33.2652 14.6054 33.5196 14.7929 33.7071C14.9804 33.8947 15.2348 34 15.5 34C15.7652 34 16.0196 33.8947 16.2071 33.7071C16.3946 33.5196 16.5 33.2652 16.5 33C16.5 32.7348 16.3946 32.4804 16.2071 32.2929C16.0196 32.1054 15.7652 32 15.5 32ZM21.5 32C21.2348 32 20.9804 32.1054 20.7929 32.2929C20.6054 32.4804 20.5 32.7348 20.5 33C20.5 33.2652 20.6054 33.5196 20.7929 33.7071C20.9804 33.8947 21.2348 34 21.5 34C21.7652 34 22.0196 33.8947 22.2071 33.7071C22.3946 33.5196 22.5 33.2652 22.5 33C22.5 32.7348 22.3946 32.4804 22.2071 32.2929C22.0196 32.1054 21.7652 32 21.5 32ZM27.5 32C27.2348 32 26.9804 32.1054 26.7929 32.2929C26.6054 32.4804 26.5 32.7348 26.5 33C26.5 33.2652 26.6054 33.5196 26.7929 33.7071C26.9804 33.8947 27.2348 34 27.5 34C27.7652 34 28.0196 33.8947 28.2071 33.7071C28.3946 33.5196 28.5 33.2652 28.5 33C28.5 32.7348 28.3946 32.4804 28.2071 32.2929C28.0196 32.1054 27.7652 32 27.5 32ZM33.5 32C33.2348 32 32.9804 32.1054 32.7929 32.2929C32.6054 32.4804 32.5 32.7348 32.5 33C32.5 33.2652 32.6054 33.5196 32.7929 33.7071C32.9804 33.8947 33.2348 34 33.5 34C33.7652 34 34.0196 33.8947 34.2071 33.7071C34.3946 33.5196 34.5 33.2652 34.5 33C34.5 32.7348 34.3946 32.4804 34.2071 32.2929C34.0196 32.1054 33.7652 32 33.5 32ZM12.5 35C12.2348 35 11.9804 35.1054 11.7929 35.2929C11.6054 35.4804 11.5 35.7348 11.5 36C11.5 36.2652 11.6054 36.5196 11.7929 36.7071C11.9804 36.8947 12.2348 37 12.5 37C12.7652 37 13.0196 36.8947 13.2071 36.7071C13.3946 36.5196 13.5 36.2652 13.5 36C13.5 35.7348 13.3946 35.4804 13.2071 35.2929C13.0196 35.1054 12.7652 35 12.5 35ZM18.5 35C18.2348 35 17.9804 35.1054 17.7929 35.2929C17.6054 35.4804 17.5 35.7348 17.5 36C17.5 36.2652 17.6054 36.5196 17.7929 36.7071C17.9804 36.8947 18.2348 37 18.5 37C18.7652 37 19.0196 36.8947 19.2071 36.7071C19.3946 36.5196 19.5 36.2652 19.5 36C19.5 35.7348 19.3946 35.4804 19.2071 35.2929C19.0196 35.1054 18.7652 35 18.5 35ZM24.5 35C24.2348 35 23.9804 35.1054 23.7929 35.2929C23.6054 35.4804 23.5 35.7348 23.5 36C23.5 36.2652 23.6054 36.5196 23.7929 36.7071C23.9804 36.8947 24.2348 37 24.5 37C24.7652 37 25.0196 36.8947 25.2071 36.7071C25.3946 36.5196 25.5 36.2652 25.5 36C25.5 35.7348 25.3946 35.4804 25.2071 35.2929C25.0196 35.1054 24.7652 35 24.5 35ZM30.5 35C30.2348 35 29.9804 35.1054 29.7929 35.2929C29.6054 35.4804 29.5 35.7348 29.5 36C29.5 36.2652 29.6054 36.5196 29.7929 36.7071C29.9804 36.8947 30.2348 37 30.5 37C30.7652 37 31.0196 36.8947 31.2071 36.7071C31.3946 36.5196 31.5 36.2652 31.5 36C31.5 35.7348 31.3946 35.4804 31.2071 35.2929C31.0196 35.1054 30.7652 35 30.5 35ZM36.5 35C36.2348 35 35.9804 35.1054 35.7929 35.2929C35.6054 35.4804 35.5 35.7348 35.5 36C35.5 36.2652 35.6054 36.5196 35.7929 36.7071C35.9804 36.8947 36.2348 37 36.5 37C36.7652 37 37.0196 36.8947 37.2071 36.7071C37.3946 36.5196 37.5 36.2652 37.5 36C37.5 35.7348 37.3946 35.4804 37.2071 35.2929C37.0196 35.1054 36.7652 35 36.5 35ZM9.52539 41H40.0859L61.6875 62.6016C58.9497 65.1697 55.7471 67.2455 52.2207 68.6914C52.3995 68.5056 52.4995 68.2579 52.5 68C52.5 67.7348 52.3946 67.4804 52.2071 67.2929C52.0196 67.1054 51.7652 67 51.5 67C51.2348 67 50.9804 67.1054 50.7929 67.2929C50.6054 67.4804 50.5 67.7348 50.5 68C50.5001 68.2557 50.5982 68.5016 50.774 68.6872C50.9498 68.8728 51.19 68.9841 51.4453 68.9981C48.0397 70.2878 44.3521 71 40.5 71C36.1909 71 32.0858 70.1153 28.3535 68.5195C28.449 68.3631 28.4997 68.1833 28.5 68C28.5 67.7348 28.3946 67.4804 28.2071 67.2929C28.0196 67.1054 27.7652 67 27.5 67C27.2922 67.0004 27.0898 67.0655 26.9207 67.1863C26.7517 67.307 26.6244 67.4774 26.5566 67.6738C16.73 62.7023 9.89725 52.6558 9.52539 41ZM15.5 43C15.2348 43 14.9804 43.1054 14.7929 43.2929C14.6054 43.4804 14.5 43.7348 14.5 44C14.5 44.2652 14.6054 44.5196 14.7929 44.7071C14.9804 44.8947 15.2348 45 15.5 45C15.7652 45 16.0196 44.8947 16.2071 44.7071C16.3946 44.5196 16.5 44.2652 16.5 44C16.5 43.7348 16.3946 43.4804 16.2071 43.2929C16.0196 43.1054 15.7652 43 15.5 43ZM21.5 43C21.2348 43 20.9804 43.1054 20.7929 43.2929C20.6054 43.4804 20.5 43.7348 20.5 44C20.5 44.2652 20.6054 44.5196 20.7929 44.7071C20.9804 44.8947 21.2348 45 21.5 45C21.7652 45 22.0196 44.8947 22.2071 44.7071C22.3946 44.5196 22.5 44.2652 22.5 44C22.5 43.7348 22.3946 43.4804 22.2071 43.2929C22.0196 43.1054 21.7652 43 21.5 43ZM27.5 43C27.2348 43 26.9804 43.1054 26.7929 43.2929C26.6054 43.4804 26.5 43.7348 26.5 44C26.5 44.2652 26.6054 44.5196 26.7929 44.7071C26.9804 44.8947 27.2348 45 27.5 45C27.7652 45 28.0196 44.8947 28.2071 44.7071C28.3946 44.5196 28.5 44.2652 28.5 44C28.5 43.7348 28.3946 43.4804 28.2071 43.2929C28.0196 43.1054 27.7652 43 27.5 43ZM33.5 43C33.2348 43 32.9804 43.1054 32.7929 43.2929C32.6054 43.4804 32.5 43.7348 32.5 44C32.5 44.2652 32.6054 44.5196 32.7929 44.7071C32.9804 44.8947 33.2348 45 33.5 45C33.7652 45 34.0196 44.8947 34.2071 44.7071C34.3946 44.5196 34.5 44.2652 34.5 44C34.5 43.7348 34.3946 43.4804 34.2071 43.2929C34.0196 43.1054 33.7652 43 33.5 43ZM39.5 43C39.2348 43 38.9804 43.1054 38.7929 43.2929C38.6054 43.4804 38.5 43.7348 38.5 44C38.5 44.2652 38.6054 44.5196 38.7929 44.7071C38.9804 44.8947 39.2348 45 39.5 45C39.7652 45 40.0196 44.8947 40.2071 44.7071C40.3946 44.5196 40.5 44.2652 40.5 44C40.5 43.7348 40.3946 43.4804 40.2071 43.2929C40.0196 43.1054 39.7652 43 39.5 43ZM15.5 49C15.2348 49 14.9804 49.1054 14.7929 49.2929C14.6054 49.4804 14.5 49.7348 14.5 50C14.5 50.2652 14.6054 50.5196 14.7929 50.7071C14.9804 50.8947 15.2348 51 15.5 51C15.7652 51 16.0196 50.8947 16.2071 50.7071C16.3946 50.5196 16.5 50.2652 16.5 50C16.5 49.7348 16.3946 49.4804 16.2071 49.2929C16.0196 49.1054 15.7652 49 15.5 49ZM21.5 49C21.2348 49 20.9804 49.1054 20.7929 49.2929C20.6054 49.4804 20.5 49.7348 20.5 50C20.5 50.2652 20.6054 50.5196 20.7929 50.7071C20.9804 50.8947 21.2348 51 21.5 51C21.7652 51 22.0196 50.8947 22.2071 50.7071C22.3946 50.5196 22.5 50.2652 22.5 50C22.5 49.7348 22.3946 49.4804 22.2071 49.2929C22.0196 49.1054 21.7652 49 21.5 49ZM27.5 49C27.2348 49 26.9804 49.1054 26.7929 49.2929C26.6054 49.4804 26.5 49.7348 26.5 50C26.5 50.2652 26.6054 50.5196 26.7929 50.7071C26.9804 50.8947 27.2348 51 27.5 51C27.7652 51 28.0196 50.8947 28.2071 50.7071C28.3946 50.5196 28.5 50.2652 28.5 50C28.5 49.7348 28.3946 49.4804 28.2071 49.2929C28.0196 49.1054 27.7652 49 27.5 49ZM33.5 49C33.2348 49 32.9804 49.1054 32.7929 49.2929C32.6054 49.4804 32.5 49.7348 32.5 50C32.5 50.2652 32.6054 50.5196 32.7929 50.7071C32.9804 50.8947 33.2348 51 33.5 51C33.7652 51 34.0196 50.8947 34.2071 50.7071C34.3946 50.5196 34.5 50.2652 34.5 50C34.5 49.7348 34.3946 49.4804 34.2071 49.2929C34.0196 49.1054 33.7652 49 33.5 49ZM39.5 49C39.2348 49 38.9804 49.1054 38.7929 49.2929C38.6054 49.4804 38.5 49.7348 38.5 50C38.5 50.2652 38.6054 50.5196 38.7929 50.7071C38.9804 50.8947 39.2348 51 39.5 51C39.7652 51 40.0196 50.8947 40.2071 50.7071C40.3946 50.5196 40.5 50.2652 40.5 50C40.5 49.7348 40.3946 49.4804 40.2071 49.2929C40.0196 49.1054 39.7652 49 39.5 49ZM45.5 49C45.2348 49 44.9804 49.1054 44.7929 49.2929C44.6054 49.4804 44.5 49.7348 44.5 50C44.5 50.2652 44.6054 50.5196 44.7929 50.7071C44.9804 50.8947 45.2348 51 45.5 51C45.7652 51 46.0196 50.8947 46.2071 50.7071C46.3946 50.5196 46.5 50.2652 46.5 50C46.5 49.7348 46.3946 49.4804 46.2071 49.2929C46.0196 49.1054 45.7652 49 45.5 49ZM15.5 55C15.2348 55 14.9804 55.1054 14.7929 55.2929C14.6054 55.4804 14.5 55.7348 14.5 56C14.5 56.2652 14.6054 56.5196 14.7929 56.7071C14.9804 56.8947 15.2348 57 15.5 57C15.7652 57 16.0196 56.8947 16.2071 56.7071C16.3946 56.5196 16.5 56.2652 16.5 56C16.5 55.7348 16.3946 55.4804 16.2071 55.2929C16.0196 55.1054 15.7652 55 15.5 55ZM21.5 55C21.2348 55 20.9804 55.1054 20.7929 55.2929C20.6054 55.4804 20.5 55.7348 20.5 56C20.5 56.2652 20.6054 56.5196 20.7929 56.7071C20.9804 56.8947 21.2348 57 21.5 57C21.7652 57 22.0196 56.8947 22.2071 56.7071C22.3946 56.5196 22.5 56.2652 22.5 56C22.5 55.7348 22.3946 55.4804 22.2071 55.2929C22.0196 55.1054 21.7652 55 21.5 55ZM27.5 55C27.2348 55 26.9804 55.1054 26.7929 55.2929C26.6054 55.4804 26.5 55.7348 26.5 56C26.5 56.2652 26.6054 56.5196 26.7929 56.7071C26.9804 56.8947 27.2348 57 27.5 57C27.7652 57 28.0196 56.8947 28.2071 56.7071C28.3946 56.5196 28.5 56.2652 28.5 56C28.5 55.7348 28.3946 55.4804 28.2071 55.2929C28.0196 55.1054 27.7652 55 27.5 55ZM33.5 55C33.2348 55 32.9804 55.1054 32.7929 55.2929C32.6054 55.4804 32.5 55.7348 32.5 56C32.5 56.2652 32.6054 56.5196 32.7929 56.7071C32.9804 56.8947 33.2348 57 33.5 57C33.7652 57 34.0196 56.8947 34.2071 56.7071C34.3946 56.5196 34.5 56.2652 34.5 56C34.5 55.7348 34.3946 55.4804 34.2071 55.2929C34.0196 55.1054 33.7652 55 33.5 55ZM39.5 55C39.2348 55 38.9804 55.1054 38.7929 55.2929C38.6054 55.4804 38.5 55.7348 38.5 56C38.5 56.2652 38.6054 56.5196 38.7929 56.7071C38.9804 56.8947 39.2348 57 39.5 57C39.7652 57 40.0196 56.8947 40.2071 56.7071C40.3946 56.5196 40.5 56.2652 40.5 56C40.5 55.7348 40.3946 55.4804 40.2071 55.2929C40.0196 55.1054 39.7652 55 39.5 55ZM45.5 55C45.2348 55 44.9804 55.1054 44.7929 55.2929C44.6054 55.4804 44.5 55.7348 44.5 56C44.5 56.2652 44.6054 56.5196 44.7929 56.7071C44.9804 56.8947 45.2348 57 45.5 57C45.7652 57 46.0196 56.8947 46.2071 56.7071C46.3946 56.5196 46.5 56.2652 46.5 56C46.5 55.7348 46.3946 55.4804 46.2071 55.2929C46.0196 55.1054 45.7652 55 45.5 55ZM51.5 55C51.2348 55 50.9804 55.1054 50.7929 55.2929C50.6054 55.4804 50.5 55.7348 50.5 56C50.5 56.2652 50.6054 56.5196 50.7929 56.7071C50.9804 56.8947 51.2348 57 51.5 57C51.7652 57 52.0196 56.8947 52.2071 56.7071C52.3946 56.5196 52.5 56.2652 52.5 56C52.5 55.7348 52.3946 55.4804 52.2071 55.2929C52.0196 55.1054 51.7652 55 51.5 55ZM21.5 61C21.2348 61 20.9804 61.1054 20.7929 61.2929C20.6054 61.4804 20.5 61.7348 20.5 62C20.5 62.2652 20.6054 62.5196 20.7929 62.7071C20.9804 62.8947 21.2348 63 21.5 63C21.7652 63 22.0196 62.8947 22.2071 62.7071C22.3946 62.5196 22.5 62.2652 22.5 62C22.5 61.7348 22.3946 61.4804 22.2071 61.2929C22.0196 61.1054 21.7652 61 21.5 61ZM27.5 61C27.2348 61 26.9804 61.1054 26.7929 61.2929C26.6054 61.4804 26.5 61.7348 26.5 62C26.5 62.2652 26.6054 62.5196 26.7929 62.7071C26.9804 62.8947 27.2348 63 27.5 63C27.7652 63 28.0196 62.8947 28.2071 62.7071C28.3946 62.5196 28.5 62.2652 28.5 62C28.5 61.7348 28.3946 61.4804 28.2071 61.2929C28.0196 61.1054 27.7652 61 27.5 61ZM33.5 61C33.2348 61 32.9804 61.1054 32.7929 61.2929C32.6054 61.4804 32.5 61.7348 32.5 62C32.5 62.2652 32.6054 62.5196 32.7929 62.7071C32.9804 62.8947 33.2348 63 33.5 63C33.7652 63 34.0196 62.8947 34.2071 62.7071C34.3946 62.5196 34.5 62.2652 34.5 62C34.5 61.7348 34.3946 61.4804 34.2071 61.2929C34.0196 61.1054 33.7652 61 33.5 61ZM39.5 61C39.2348 61 38.9804 61.1054 38.7929 61.2929C38.6054 61.4804 38.5 61.7348 38.5 62C38.5 62.2652 38.6054 62.5196 38.7929 62.7071C38.9804 62.8947 39.2348 63 39.5 63C39.7652 63 40.0196 62.8947 40.2071 62.7071C40.3946 62.5196 40.5 62.2652 40.5 62C40.5 61.7348 40.3946 61.4804 40.2071 61.2929C40.0196 61.1054 39.7652 61 39.5 61ZM45.5 61C45.2348 61 44.9804 61.1054 44.7929 61.2929C44.6054 61.4804 44.5 61.7348 44.5 62C44.5 62.2652 44.6054 62.5196 44.7929 62.7071C44.9804 62.8947 45.2348 63 45.5 63C45.7652 63 46.0196 62.8947 46.2071 62.7071C46.3946 62.5196 46.5 62.2652 46.5 62C46.5 61.7348 46.3946 61.4804 46.2071 61.2929C46.0196 61.1054 45.7652 61 45.5 61ZM51.5 61C51.2348 61 50.9804 61.1054 50.7929 61.2929C50.6054 61.4804 50.5 61.7348 50.5 62C50.5 62.2652 50.6054 62.5196 50.7929 62.7071C50.9804 62.8947 51.2348 63 51.5 63C51.7652 63 52.0196 62.8947 52.2071 62.7071C52.3946 62.5196 52.5 62.2652 52.5 62C52.5 61.7348 52.3946 61.4804 52.2071 61.2929C52.0196 61.1054 51.7652 61 51.5 61ZM57.5 61C57.2348 61 56.9804 61.1054 56.7929 61.2929C56.6054 61.4804 56.5 61.7348 56.5 62C56.5 62.2652 56.6054 62.5196 56.7929 62.7071C56.9804 62.8947 57.2348 63 57.5 63C57.7652 63 58.0196 62.8947 58.2071 62.7071C58.3946 62.5196 58.5 62.2652 58.5 62C58.5 61.7348 58.3946 61.4804 58.2071 61.2929C58.0196 61.1054 57.7652 61 57.5 61ZM33.5 67C33.2348 67 32.9804 67.1054 32.7929 67.2929C32.6054 67.4804 32.5 67.7348 32.5 68C32.5 68.2652 32.6054 68.5196 32.7929 68.7071C32.9804 68.8947 33.2348 69 33.5 69C33.7652 69 34.0196 68.8947 34.2071 68.7071C34.3946 68.5196 34.5 68.2652 34.5 68C34.5 67.7348 34.3946 67.4804 34.2071 67.2929C34.0196 67.1054 33.7652 67 33.5 67ZM39.5 67C39.2348 67 38.9804 67.1054 38.7929 67.2929C38.6054 67.4804 38.5 67.7348 38.5 68C38.5 68.2652 38.6054 68.5196 38.7929 68.7071C38.9804 68.8947 39.2348 69 39.5 69C39.7652 69 40.0196 68.8947 40.2071 68.7071C40.3946 68.5196 40.5 68.2652 40.5 68C40.5 67.7348 40.3946 67.4804 40.2071 67.2929C40.0196 67.1054 39.7652 67 39.5 67ZM45.5 67C45.2348 67 44.9804 67.1054 44.7929 67.2929C44.6054 67.4804 44.5 67.7348 44.5 68C44.5 68.2652 44.6054 68.5196 44.7929 68.7071C44.9804 68.8947 45.2348 69 45.5 69C45.7652 69 46.0196 68.8947 46.2071 68.7071C46.3946 68.5196 46.5 68.2652 46.5 68C46.5 67.7348 46.3946 67.4804 46.2071 67.2929C46.0196 67.1054 45.7652 67 45.5 67Z" fill="#EA5357"/>
</svg>
