<svg width="163" height="128" viewBox="0 0 163 128" fill="none" xmlns="http://www.w3.org/2000/svg">
<path opacity="0.1" d="M36.5428 0C44.236 0 50.647 2.08521 55.7758 6.25564C61.2252 10.1053 65.3923 15.5589 68.2773 22.6165C71.1622 29.3534 72.6047 37.3734 72.6047 46.6767C72.6047 57.2632 70.6814 67.6892 66.8348 77.9549C63.3087 88.2206 57.6991 97.6842 50.0059 106.346C42.3127 115.008 32.3756 122.226 20.1947 128L0 109.233C8.65487 106.346 16.1878 102.336 22.5988 97.203C29.3304 92.0702 34.7797 86.2958 38.9469 79.8797C43.1141 73.4637 45.8387 66.8872 47.1209 60.1504L45.1976 59.188C43.9154 60.1504 42.3127 60.9524 40.3894 61.594C38.4661 62.2356 35.5811 62.5564 31.7345 62.5564C27.8879 62.5564 23.881 61.4336 19.7139 59.188C15.8673 56.9424 12.5015 53.7343 9.61652 49.5639C6.73156 45.0727 5.28908 39.2983 5.28908 32.2406C5.28908 26.4662 6.73156 21.1729 9.61652 16.3609C12.5015 11.2281 16.1878 7.21805 20.6755 4.33083C25.4838 1.44362 30.7729 0 36.5428 0ZM126.938 0C134.631 0 141.042 2.08521 146.171 6.25564C151.62 10.1053 155.788 15.5589 158.673 22.6165C161.558 29.3534 163 37.3734 163 46.6767C163 57.2632 161.077 67.6892 157.23 77.9549C153.704 88.2206 148.094 97.6842 140.401 106.346C132.708 115.008 122.771 122.226 110.59 128L90.3953 109.233C99.0501 106.346 106.583 102.336 112.994 97.203C119.726 92.0702 125.175 86.2958 129.342 79.8797C133.509 73.4637 136.234 66.8872 137.516 60.1504L135.593 59.188C134.311 60.1504 132.708 60.9524 130.785 61.594C128.861 62.2356 125.976 62.5564 122.13 62.5564C118.283 62.5564 114.276 61.4336 110.109 59.188C106.263 56.9424 102.897 53.7343 100.012 49.5639C97.1268 45.0727 95.6844 39.2983 95.6844 32.2406C95.6844 26.4662 97.1268 21.1729 100.012 16.3609C102.897 11.2281 106.583 7.21805 111.071 4.33083C115.879 1.44362 121.168 0 126.938 0Z" fill="#678EC9"/>
</svg>
