<svg width="816" height="816" viewBox="0 0 816 816" fill="none" xmlns="http://www.w3.org/2000/svg">
<g opacity="0.3">
<path d="M407.753 549.678C486.136 549.678 549.678 486.137 549.678 407.754C549.678 329.371 486.136 265.829 407.753 265.829C329.37 265.829 265.829 329.371 265.829 407.754C265.829 486.137 329.37 549.678 407.753 549.678Z" stroke="#678EC9" stroke-miterlimit="10"/>
<path opacity="0.5" d="M408 574.018C499.689 574.018 574.017 499.689 574.017 408.001C574.017 316.312 499.689 241.983 408 241.983C316.311 241.983 241.983 316.312 241.983 408.001C241.983 499.689 316.311 574.018 408 574.018Z" stroke="#678EC9" stroke-width="0.5" stroke-miterlimit="10"/>
<path d="M408 598.117C512.999 598.117 598.117 512.999 598.117 408C598.117 303.001 512.999 217.883 408 217.883C303.002 217.883 217.883 303.001 217.883 408C217.883 512.999 303.002 598.117 408 598.117Z" stroke="#678EC9" stroke-miterlimit="10"/>
<path opacity="0.5" d="M408 622.216C526.309 622.216 622.217 526.308 622.217 408C622.217 289.691 526.309 193.783 408 193.783C289.691 193.783 193.783 289.691 193.783 408C193.783 526.308 289.691 622.216 408 622.216Z" stroke="#678EC9" stroke-width="0.5" stroke-miterlimit="10"/>
<path d="M408 646.316C539.618 646.316 646.316 539.618 646.316 408C646.316 276.381 539.618 169.684 408 169.684C276.381 169.684 169.684 276.381 169.684 408C169.684 539.618 276.381 646.316 408 646.316Z" stroke="#678EC9" stroke-miterlimit="10"/>
<path d="M408 670.409C552.925 670.409 670.409 552.924 670.409 408C670.409 263.075 552.925 145.591 408 145.591C263.076 145.591 145.591 263.075 145.591 408C145.591 552.924 263.076 670.409 408 670.409Z" stroke="#678EC9" stroke-miterlimit="10"/>
<path opacity="0.5" d="M408 694.508C566.234 694.508 694.508 566.234 694.508 408C694.508 249.766 566.234 121.491 408 121.491C249.766 121.491 121.491 249.766 121.491 408C121.491 566.234 249.766 694.508 408 694.508Z" stroke="#678EC9" stroke-width="0.5" stroke-miterlimit="10"/>
<path opacity="0.5" d="M408 718.609C579.544 718.609 718.608 579.545 718.608 408C718.608 236.456 579.544 97.3921 408 97.3921C236.456 97.3921 97.3916 236.456 97.3916 408C97.3916 579.545 236.456 718.609 408 718.609Z" stroke="#678EC9" stroke-width="0.5" stroke-miterlimit="10"/>
<path d="M408 742.708C592.854 742.708 742.708 592.854 742.708 408C742.708 223.146 592.854 73.2922 408 73.2922C223.146 73.2922 73.2917 223.146 73.2917 408C73.2917 592.854 223.146 742.708 408 742.708Z" stroke="#678EC9" stroke-miterlimit="10"/>
<path opacity="0.5" d="M408 766.801C606.16 766.801 766.8 606.161 766.8 408.001C766.8 209.84 606.16 49.2 408 49.2C209.84 49.2 49.1992 209.84 49.1992 408.001C49.1992 606.161 209.84 766.801 408 766.801Z" stroke="#678EC9" stroke-width="0.5" stroke-miterlimit="10"/>
<path opacity="0.5" d="M408 790.9C619.47 790.9 790.9 619.47 790.9 408C790.9 196.53 619.47 25.0996 408 25.0996C196.53 25.0996 25.0996 196.53 25.0996 408C25.0996 619.47 196.53 790.9 408 790.9Z" stroke="#678EC9" stroke-width="0.5" stroke-miterlimit="10"/>
<path opacity="0.5" d="M408 815C632.78 815 815 632.78 815 408C815 183.22 632.78 1 408 1C183.22 1 1 183.22 1 408C1 632.78 183.22 815 408 815Z" stroke="#678EC9" stroke-width="0.5" stroke-miterlimit="10"/>
</g>
</svg>
