<svg width="554" height="554" viewBox="0 0 554 554" fill="none" xmlns="http://www.w3.org/2000/svg">
<path d="M276.833 373.076C329.987 373.076 373.077 329.987 373.077 276.833C373.077 223.679 329.987 180.589 276.833 180.589C223.679 180.589 180.589 223.679 180.589 276.833C180.589 329.987 223.679 373.076 276.833 373.076Z" stroke="#EA5357" stroke-miterlimit="10"/>
<path opacity="0.5" d="M277 389.582C339.177 389.582 389.582 339.177 389.582 277C389.582 214.823 339.177 164.418 277 164.418C214.823 164.418 164.418 214.823 164.418 277C164.418 339.177 214.823 389.582 277 389.582Z" stroke="#EA5357" stroke-width="0.5" stroke-miterlimit="10"/>
<path d="M277 405.924C348.203 405.924 405.924 348.203 405.924 277C405.924 205.797 348.203 148.075 277 148.075C205.797 148.075 148.076 205.797 148.076 277C148.076 348.203 205.797 405.924 277 405.924Z" stroke="#EA5357" stroke-miterlimit="10"/>
<path opacity="0.5" d="M277 422.267C357.229 422.267 422.267 357.229 422.267 277C422.267 196.771 357.229 131.733 277 131.733C196.771 131.733 131.733 196.771 131.733 277C131.733 357.229 196.771 422.267 277 422.267Z" stroke="#EA5357" stroke-width="0.5" stroke-miterlimit="10"/>
<path d="M277 438.61C366.255 438.61 438.61 366.255 438.61 277C438.61 187.745 366.255 115.39 277 115.39C187.745 115.39 115.39 187.745 115.39 277C115.39 366.255 187.745 438.61 277 438.61Z" stroke="#EA5357" stroke-miterlimit="10"/>
<path d="M277 454.948C375.278 454.948 454.948 375.278 454.948 277C454.948 178.722 375.278 99.0519 277 99.0519C178.722 99.0519 99.052 178.722 99.052 277C99.052 375.278 178.722 454.948 277 454.948Z" stroke="#EA5357" stroke-miterlimit="10"/>
<path opacity="0.5" d="M277 471.291C384.304 471.291 471.291 384.304 471.291 277C471.291 169.696 384.304 82.7091 277 82.7091C169.696 82.7091 82.7092 169.696 82.7092 277C82.7092 384.304 169.696 471.291 277 471.291Z" stroke="#EA5357" stroke-width="0.5" stroke-miterlimit="10"/>
<path opacity="0.5" d="M277 487.634C393.33 487.634 487.634 393.33 487.634 277C487.634 160.67 393.33 66.3665 277 66.3665C160.67 66.3665 66.3664 160.67 66.3664 277C66.3664 393.33 160.67 487.634 277 487.634Z" stroke="#EA5357" stroke-width="0.5" stroke-miterlimit="10"/>
<path d="M277 503.977C402.356 503.977 503.976 402.356 503.976 277C503.976 151.645 402.356 50.0237 277 50.0237C151.644 50.0237 50.0235 151.645 50.0235 277C50.0235 402.356 151.644 503.977 277 503.977Z" stroke="#EA5357" stroke-miterlimit="10"/>
<path opacity="0.5" d="M277 520.314C411.379 520.314 520.314 411.379 520.314 277C520.314 142.621 411.379 33.6857 277 33.6857C142.621 33.6857 33.6856 142.621 33.6856 277C33.6856 411.379 142.621 520.314 277 520.314Z" stroke="#EA5357" stroke-width="0.5" stroke-miterlimit="10"/>
<path opacity="0.5" d="M277 536.657C420.405 536.657 536.657 420.405 536.657 277C536.657 133.595 420.405 17.3429 277 17.3429C133.595 17.3429 17.3428 133.595 17.3428 277C17.3428 420.405 133.595 536.657 277 536.657Z" stroke="#EA5357" stroke-width="0.5" stroke-miterlimit="10"/>
<path opacity="0.5" d="M277 553C429.431 553 553 429.431 553 277C553 124.569 429.431 1 277 1C124.569 1 1 124.569 1 277C1 429.431 124.569 553 277 553Z" stroke="#EA5357" stroke-width="0.5" stroke-miterlimit="10"/>
<g filter="url(#filter0_d_13_128)">
<circle cx="364.075" cy="140.935" r="6.85221" fill="url(#paint0_linear_13_128)"/>
</g>
<g filter="url(#filter1_d_13_128)">
<circle cx="136.721" cy="476.094" r="2.44722" fill="url(#paint1_linear_13_128)"/>
</g>
<g filter="url(#filter2_d_13_128)">
<circle cx="373.023" cy="280.437" r="2.44722" fill="url(#paint2_linear_13_128)"/>
</g>
<g filter="url(#filter3_d_13_128)">
<circle cx="39.5741" cy="172.749" r="2.44722" fill="url(#paint3_linear_13_128)"/>
</g>
<g filter="url(#filter4_d_13_128)">
<circle cx="520.562" cy="280.781" r="3.78082" fill="url(#paint4_linear_13_128)"/>
</g>
<g filter="url(#filter5_d_13_128)">
<circle cx="139" cy="324.305" r="3.78082" fill="url(#paint5_linear_13_128)"/>
</g>
<defs>
<filter id="filter0_d_13_128" x="339.223" y="115.083" width="49.7044" height="49.7045" filterUnits="userSpaceOnUse" color-interpolation-filters="sRGB">
<feFlood flood-opacity="0" result="BackgroundImageFix"/>
<feColorMatrix in="SourceAlpha" type="matrix" values="0 0 0 0 0 0 0 0 0 0 0 0 0 0 0 0 0 0 127 0" result="hardAlpha"/>
<feOffset dy="-1"/>
<feGaussianBlur stdDeviation="9"/>
<feComposite in2="hardAlpha" operator="out"/>
<feColorMatrix type="matrix" values="0 0 0 0 0.917647 0 0 0 0 0.32549 0 0 0 0 0.341176 0 0 0 1 0"/>
<feBlend mode="normal" in2="BackgroundImageFix" result="effect1_dropShadow_13_128"/>
<feBlend mode="normal" in="SourceGraphic" in2="effect1_dropShadow_13_128" result="shape"/>
</filter>
<filter id="filter1_d_13_128" x="128.274" y="467.647" width="16.8944" height="16.8944" filterUnits="userSpaceOnUse" color-interpolation-filters="sRGB">
<feFlood flood-opacity="0" result="BackgroundImageFix"/>
<feColorMatrix in="SourceAlpha" type="matrix" values="0 0 0 0 0 0 0 0 0 0 0 0 0 0 0 0 0 0 127 0" result="hardAlpha"/>
<feOffset/>
<feGaussianBlur stdDeviation="3"/>
<feComposite in2="hardAlpha" operator="out"/>
<feColorMatrix type="matrix" values="0 0 0 0 0.917647 0 0 0 0 0.32549 0 0 0 0 0.341176 0 0 0 1 0"/>
<feBlend mode="normal" in2="BackgroundImageFix" result="effect1_dropShadow_13_128"/>
<feBlend mode="normal" in="SourceGraphic" in2="effect1_dropShadow_13_128" result="shape"/>
</filter>
<filter id="filter2_d_13_128" x="364.575" y="271.99" width="16.8944" height="16.8944" filterUnits="userSpaceOnUse" color-interpolation-filters="sRGB">
<feFlood flood-opacity="0" result="BackgroundImageFix"/>
<feColorMatrix in="SourceAlpha" type="matrix" values="0 0 0 0 0 0 0 0 0 0 0 0 0 0 0 0 0 0 127 0" result="hardAlpha"/>
<feOffset/>
<feGaussianBlur stdDeviation="3"/>
<feComposite in2="hardAlpha" operator="out"/>
<feColorMatrix type="matrix" values="0 0 0 0 0.917647 0 0 0 0 0.32549 0 0 0 0 0.341176 0 0 0 1 0"/>
<feBlend mode="normal" in2="BackgroundImageFix" result="effect1_dropShadow_13_128"/>
<feBlend mode="normal" in="SourceGraphic" in2="effect1_dropShadow_13_128" result="shape"/>
</filter>
<filter id="filter3_d_13_128" x="31.1268" y="164.301" width="16.8944" height="16.8944" filterUnits="userSpaceOnUse" color-interpolation-filters="sRGB">
<feFlood flood-opacity="0" result="BackgroundImageFix"/>
<feColorMatrix in="SourceAlpha" type="matrix" values="0 0 0 0 0 0 0 0 0 0 0 0 0 0 0 0 0 0 127 0" result="hardAlpha"/>
<feOffset/>
<feGaussianBlur stdDeviation="3"/>
<feComposite in2="hardAlpha" operator="out"/>
<feColorMatrix type="matrix" values="0 0 0 0 0.917647 0 0 0 0 0.32549 0 0 0 0 0.341176 0 0 0 1 0"/>
<feBlend mode="normal" in2="BackgroundImageFix" result="effect1_dropShadow_13_128"/>
<feBlend mode="normal" in="SourceGraphic" in2="effect1_dropShadow_13_128" result="shape"/>
</filter>
<filter id="filter4_d_13_128" x="506.781" y="266" width="27.5616" height="27.5616" filterUnits="userSpaceOnUse" color-interpolation-filters="sRGB">
<feFlood flood-opacity="0" result="BackgroundImageFix"/>
<feColorMatrix in="SourceAlpha" type="matrix" values="0 0 0 0 0 0 0 0 0 0 0 0 0 0 0 0 0 0 127 0" result="hardAlpha"/>
<feOffset dy="-1"/>
<feGaussianBlur stdDeviation="5"/>
<feComposite in2="hardAlpha" operator="out"/>
<feColorMatrix type="matrix" values="0 0 0 0 0.917647 0 0 0 0 0.32549 0 0 0 0 0.341176 0 0 0 1 0"/>
<feBlend mode="normal" in2="BackgroundImageFix" result="effect1_dropShadow_13_128"/>
<feBlend mode="normal" in="SourceGraphic" in2="effect1_dropShadow_13_128" result="shape"/>
</filter>
<filter id="filter5_d_13_128" x="125.219" y="309.524" width="27.5616" height="27.5616" filterUnits="userSpaceOnUse" color-interpolation-filters="sRGB">
<feFlood flood-opacity="0" result="BackgroundImageFix"/>
<feColorMatrix in="SourceAlpha" type="matrix" values="0 0 0 0 0 0 0 0 0 0 0 0 0 0 0 0 0 0 127 0" result="hardAlpha"/>
<feOffset dy="-1"/>
<feGaussianBlur stdDeviation="5"/>
<feComposite in2="hardAlpha" operator="out"/>
<feColorMatrix type="matrix" values="0 0 0 0 0.917647 0 0 0 0 0.32549 0 0 0 0 0.341176 0 0 0 1 0"/>
<feBlend mode="normal" in2="BackgroundImageFix" result="effect1_dropShadow_13_128"/>
<feBlend mode="normal" in="SourceGraphic" in2="effect1_dropShadow_13_128" result="shape"/>
</filter>
<linearGradient id="paint0_linear_13_128" x1="360.22" y1="147.787" x2="372.64" y2="132.798" gradientUnits="userSpaceOnUse">
<stop stop-color="#EA5357"/>
<stop offset="1" stop-color="#FF8083"/>
</linearGradient>
<linearGradient id="paint1_linear_13_128" x1="135.345" y1="478.542" x2="139.78" y2="473.188" gradientUnits="userSpaceOnUse">
<stop stop-color="#EA5357"/>
<stop offset="1" stop-color="#FF8083"/>
</linearGradient>
<linearGradient id="paint2_linear_13_128" x1="371.646" y1="282.884" x2="376.082" y2="277.531" gradientUnits="userSpaceOnUse">
<stop stop-color="#EA5357"/>
<stop offset="1" stop-color="#FF8083"/>
</linearGradient>
<linearGradient id="paint3_linear_13_128" x1="38.1975" y1="175.196" x2="42.6331" y2="169.843" gradientUnits="userSpaceOnUse">
<stop stop-color="#EA5357"/>
<stop offset="1" stop-color="#FF8083"/>
</linearGradient>
<linearGradient id="paint4_linear_13_128" x1="518.435" y1="284.562" x2="525.288" y2="276.291" gradientUnits="userSpaceOnUse">
<stop stop-color="#EA5357"/>
<stop offset="1" stop-color="#FF8083"/>
</linearGradient>
<linearGradient id="paint5_linear_13_128" x1="136.873" y1="328.086" x2="143.726" y2="319.815" gradientUnits="userSpaceOnUse">
<stop stop-color="#EA5357"/>
<stop offset="1" stop-color="#FF8083"/>
</linearGradient>
</defs>
</svg>
