<svg width="72" height="72" viewBox="0 0 72 72" fill="none" xmlns="http://www.w3.org/2000/svg">
<rect x="0.5" y="0.5" width="71" height="71" rx="14.5" stroke="#678EC9"/>
<path d="M50.5 45C52.5 45 54 46.75 54 48.25V50.5C54 52.75 52.25 54 50.5 54H48.5C47.25 54 45 53 45 50.5V50H35.5C35.25 50 35 49.75 35 49.5C35 49.25 35.25 49 35.5 49H45V48.5C45 46.75 46.25 45 48.5 45H49V41.5C49 41.25 49.25 41 49.5 41C49.75 41 50 41.25 50 41.5V45H50.5ZM53 50.75V48.5C53 47.25 51.75 46 50.75 46H48.25C47 46 46 47.25 46 48.25V50.75C46 52 47.5 53 48.25 53H50.5C51.75 53 53 52 53 50.75ZM31.5 49C31.75 49 32 49.25 32 49.5C32 49.75 31.75 50 31.5 50H28V50.492C28 53 26 54 24.5 54H22.25C21 54 19.25 53 19 50.75V48.5C19 46.5 20.5 45 22.5 45H23V35.5C23 35.25 23.25 35 23.5 35C23.75 35 24 35.25 24 35.5V45H24.5C26.75 45 28 46.75 28 48.492V49H31.5ZM27 50.5V48.25C27 47 25.5 46 24.75 45.992H22.5C21.25 46 20 47.25 20 48.25V50.75C20 51.75 21.25 53 22.25 52.992H24.5C26 53 27 51.5 27 50.5ZM50.75 19C52 19 54 20.25 54 22.25V24.5C54 26.5 52.5 28 50.5 28H50V37.5C50 37.75 49.75 38 49.5 38C49.25 38 49 37.75 49 37.5V28H48.5C47.25 28 45 27 45 24.5V24H41.5C41.25 24 41 23.75 41 23.5C41 23.25 41.25 23 41.5 23H45V22.5C45 20.5 46.5 19 48.5 19H50.75ZM53 24.5V22.5C53 21 51.75 20 50.5 20H48.5C47.25 20 46 21 46 22.5V24.5C46 26.25 47.698 27 48.25 27H50.5C51.75 27 53 26 53 24.5ZM37.5 23C37.75 23 38 23.25 38 23.5C38 23.75 37.75 24 37.5 24H28V24.5C28 26.5 26.5 28 24.5 28H24V31.25C24 31.5 24 32 23.5 32C23 32 23 31.5 23 31.25V28H22.5C20.17 28 19 26 19 24.5V22.25C19 20.5 20.75 19 22.5 19H24.5C26.5 19 28 20.5 28 22.58V23H37.5ZM27 24.5V22.25C27 21.25 25.75 20 24.75 20H22.5C21.25 20 20 21.25 20 22.25V24.75C20 25.75 21.25 27 22.25 27H24.5C26 27 27 25.75 27 24.5Z" fill="#EA5357"/>
</svg>
