<svg width="72" height="72" viewBox="0 0 72 72" fill="none" xmlns="http://www.w3.org/2000/svg">
<rect x="0.5" y="0.5" width="71" height="71" rx="14.5" stroke="#678EC9"/>
<path d="M32.5 19C31.121 19 30 20.122 30 21.5V27.5C30 28.878 31.121 30 32.5 30H35.5V36H23.5C22.121 36 21 37.122 21 38.5V43H18.5C17.121 43 16 44.122 16 45.5V49.5C16 50.878 17.121 52 18.5 52H24.5C25.879 52 27 50.878 27 49.5V45.5C27 44.122 25.879 43 24.5 43H22V38.5C22 37.673 22.673 37 23.5 37H35.5V43H33C31.621 43 30.5 44.122 30.5 45.5V49.5C30.5 50.878 31.621 52 33 52H39C40.379 52 41.5 50.878 41.5 49.5V45.5C41.5 44.122 40.379 43 39 43H36.5V37H48.5C49.327 37 50 37.673 50 38.5V43H47.5C46.121 43 45 44.122 45 45.5V49.5C45 50.878 46.121 52 47.5 52H53.5C54.879 52 56 50.878 56 49.5V45.5C56 44.122 54.879 43 53.5 43H51V38.5C51 37.122 49.879 36 48.5 36H36.5V30H39.5C40.879 30 42 28.878 42 27.5V21.5C42 20.122 40.879 19 39.5 19H32.5ZM32.5 20H39.5C40.327 20 41 20.673 41 21.5V27.5C41 28.327 40.327 29 39.5 29H32.5C31.673 29 31 28.327 31 27.5V21.5C31 20.673 31.673 20 32.5 20ZM18.5 44H24.5C25.327 44 26 44.673 26 45.5V49.5C26 50.327 25.327 51 24.5 51H18.5C17.673 51 17 50.327 17 49.5V45.5C17 44.673 17.673 44 18.5 44ZM33 44H39C39.827 44 40.5 44.673 40.5 45.5V49.5C40.5 50.327 39.827 51 39 51H33C32.173 51 31.5 50.327 31.5 49.5V45.5C31.5 44.673 32.173 44 33 44ZM47.5 44H53.5C54.327 44 55 44.673 55 45.5V49.5C55 50.327 54.327 51 53.5 51H47.5C46.673 51 46 50.327 46 49.5V45.5C46 44.673 46.673 44 47.5 44Z" fill="#EA5357"/>
</svg>
