<svg width="72" height="72" viewBox="0 0 72 72" fill="none" xmlns="http://www.w3.org/2000/svg">
<rect x="0.5" y="0.5" width="71" height="71" rx="14.5" stroke="#678EC9"/>
<path d="M44.496 26C45.325 25.998 45.998 26.668 46 27.496C46.002 28.325 45.332 28.998 44.504 29C43.675 29.002 43.002 28.332 43 27.504C42.998 26.675 43.668 26.002 44.496 26Z" fill="#EA5357"/>
<path d="M35.981 28C40.399 27.989 43.99 31.563 44 35.981C44.011 40.399 40.437 43.99 36.019 44C31.601 44.011 28.01 40.437 28 36.019C27.989 31.601 31.563 28.011 35.981 28ZM36.017 43C39.883 42.991 43.009 39.849 43 35.983C42.991 32.117 39.849 28.991 35.983 29C32.117 29.009 28.991 32.151 29 36.017C29.009 39.883 32.151 43.009 36.017 43Z" fill="#EA5357"/>
<path d="M51 35.85V36.15C51 49.922 49.922 51 36.15 51H35.85C22.078 51 21 49.922 21 36.15V35.85C21 22.078 22.078 21 35.85 21H36.15C49.922 21 51 22.078 51 35.85ZM50 37.248V34.752C50 22.926 49.074 22 37.248 22H34.752C22.926 22 22 22.926 22 34.752V37.248C22 49.074 22.926 50 34.752 50H37.248C49.074 50 50 49.074 50 37.248Z" fill="#EA5357"/>
</svg>
