<svg width="72" height="72" viewBox="0 0 72 72" fill="none" xmlns="http://www.w3.org/2000/svg">
<rect x="0.5" y="0.5" width="71" height="71" rx="14.5" stroke="#678EC9"/>
<path d="M31.63 47.024L30.751 46.547L33.466 41.538L34.345 42.015L31.63 47.024Z" fill="#EA5357"/>
<path d="M30.34 36H24V35H30.34V36Z" fill="#EA5357"/>
<path d="M32.495 31.206L28.761 26.259L29.559 25.656L33.293 30.603L32.495 31.206Z" fill="#EA5357"/>
<path d="M41.417 31.159L40.646 30.521L43.952 26.524L44.723 27.162L41.417 31.159Z" fill="#EA5357"/>
<path d="M46.6291 42.394L42.4871 39.663L43.0381 38.828L47.1801 41.559L46.6291 42.394Z" fill="#EA5357"/>
<path d="M37 43C33.14 43 30 39.86 30 36C30 32.14 33.14 29 37 29C40.86 29 44 32.14 44 36C44 39.86 40.86 43 37 43ZM37 30C33.691 30 31 32.691 31 36C31 39.309 33.691 42 37 42C40.309 42 43 39.309 43 36C43 32.691 40.309 30 37 30Z" fill="#EA5357"/>
<path d="M29.5 53C27.57 53 26 51.43 26 49.5C26 47.57 27.57 46 29.5 46C31.43 46 33 47.57 33 49.5C33 51.43 31.43 53 29.5 53ZM29.5 47C28.122 47 27 48.122 27 49.5C27 50.878 28.122 52 29.5 52C30.878 52 32 50.878 32 49.5C32 48.122 30.878 47 29.5 47Z" fill="#EA5357"/>
<path d="M49.5 47C47.57 47 46 45.43 46 43.5C46 41.57 47.57 40 49.5 40C51.43 40 53 41.57 53 43.5C53 45.43 51.43 47 49.5 47ZM49.5 41C48.122 41 47 42.122 47 43.5C47 44.878 48.122 46 49.5 46C50.878 46 52 44.878 52 43.5C52 42.122 50.878 41 49.5 41Z" fill="#EA5357"/>
<path d="M46.5 28C44.57 28 43 26.43 43 24.5C43 22.57 44.57 21 46.5 21C48.43 21 50 22.57 50 24.5C50 26.43 48.43 28 46.5 28ZM46.5 22C45.122 22 44 23.122 44 24.5C44 25.878 45.122 27 46.5 27C47.878 27 49 25.878 49 24.5C49 23.122 47.878 22 46.5 22Z" fill="#EA5357"/>
<path d="M27.5 27C25.57 27 24 25.43 24 23.5C24 21.57 25.57 20 27.5 20C29.43 20 31 21.57 31 23.5C31 25.43 29.43 27 27.5 27ZM27.5 21C26.122 21 25 22.122 25 23.5C25 24.878 26.122 26 27.5 26C28.878 26 30 24.878 30 23.5C30 22.122 28.878 21 27.5 21Z" fill="#EA5357"/>
<path d="M20.905 39C18.975 39 17.405 37.43 17.405 35.5C17.405 33.57 18.975 32 20.905 32C22.835 32 24.405 33.57 24.405 35.5C24.405 37.43 22.834 39 20.905 39ZM20.905 33C19.527 33 18.405 34.122 18.405 35.5C18.405 36.878 19.527 38 20.905 38C22.283 38 23.405 36.878 23.405 35.5C23.405 34.122 22.283 33 20.905 33Z" fill="#EA5357"/>
</svg>
