<svg width="72" height="72" viewBox="0 0 72 72" fill="none" xmlns="http://www.w3.org/2000/svg">
<rect x="0.5" y="0.5" width="71" height="71" rx="14.5" stroke="#678EC9"/>
<path d="M36 52C27.178 52 20 44.822 20 36H21C21 44.271 27.729 51 36 51C44.271 51 51 44.271 51 36C51 27.729 44.271 21 36 21V20C44.822 20 52 27.178 52 36C52 44.822 44.822 52 36 52Z" fill="#EA5357"/>
<path d="M36 36.5H18C17.724 36.5 17.5 36.276 17.5 36C17.5 25.799 25.799 17.5 36 17.5C36.276 17.5 36.5 17.724 36.5 18V36C36.5 36.276 36.276 36.5 36 36.5ZM18.507 35.5H35.5V18.507C26.247 18.768 18.768 26.247 18.507 35.5Z" fill="#EA5357"/>
</svg>
