<svg width="21" height="20" viewBox="0 0 21 20" fill="none" xmlns="http://www.w3.org/2000/svg">
<path d="M19.2398 0H1.42741C1.13547 0 0.855485 0.115893 0.649051 0.322183C0.442618 0.528473 0.326645 0.808262 0.326645 1.1V18.9C0.326645 19.0445 0.355117 19.1875 0.410436 19.321C0.465754 19.4544 0.546836 19.5757 0.649051 19.6778C0.751267 19.78 0.872614 19.861 1.00617 19.9163C1.13972 19.9715 1.28285 20 1.42741 20H11.0141V12.25H8.41226V9.25H11.0141V7C10.9602 6.47176 11.0226 5.93813 11.1969 5.43654C11.3712 4.93495 11.6533 4.47755 12.0232 4.09641C12.3932 3.71528 12.8421 3.41964 13.3385 3.23024C13.8349 3.04083 14.3668 2.96225 14.8968 3C15.6756 2.99521 16.4541 3.03528 17.2284 3.12V5.82H15.6373C14.3764 5.82 14.1362 6.42 14.1362 7.29V9.22H17.1383L16.748 12.22H14.1362V20H19.2398C19.3843 20 19.5275 19.9715 19.661 19.9163C19.7946 19.861 19.9159 19.78 20.0181 19.6778C20.1204 19.5757 20.2014 19.4544 20.2568 19.321C20.3121 19.1875 20.3405 19.0445 20.3405 18.9V1.1C20.3405 0.955546 20.3121 0.812506 20.2568 0.679048C20.2014 0.54559 20.1204 0.424327 20.0181 0.322183C19.9159 0.220038 19.7946 0.139013 19.661 0.0837326C19.5275 0.0284524 19.3843 0 19.2398 0V0Z" fill="white"/>
</svg>
