<svg width="21" height="20" viewBox="0 0 21 20" fill="none" xmlns="http://www.w3.org/2000/svg">
<path d="M10.3746 7.52C9.88374 7.52 9.40392 7.66545 8.99581 7.93795C8.58769 8.21046 8.2696 8.59778 8.08176 9.05095C7.89393 9.50411 7.84478 10.0028 7.94054 10.4838C8.0363 10.9649 8.27266 11.4068 8.61974 11.7536C8.96681 12.1005 9.40901 12.3367 9.89042 12.4323C10.3718 12.528 10.8708 12.4789 11.3243 12.2912C11.7778 12.1035 12.1654 11.7856 12.4381 11.3778C12.7108 10.97 12.8563 10.4905 12.8563 10C12.8563 9.67432 12.7921 9.35183 12.6674 9.05095C12.5427 8.75006 12.3599 8.47666 12.1294 8.24638C11.899 8.01609 11.6254 7.83341 11.3243 7.70878C11.0232 7.58415 10.7005 7.52 10.3746 7.52V7.52ZM20.3115 5.07C20.3062 4.29776 20.1639 3.53257 19.8912 2.81C19.6903 2.28126 19.3796 1.80109 18.9794 1.40119C18.5792 1.00128 18.0987 0.690718 17.5696 0.49C16.8465 0.217464 16.0808 0.0752609 15.308 0.0699999C14.0171 -6.70552e-08 13.6368 0 10.3746 0C7.11231 0 6.73205 -6.70552e-08 5.44115 0.0699999C4.66837 0.0752609 3.90266 0.217464 3.17958 0.49C2.65048 0.690718 2.16998 1.00128 1.76979 1.40119C1.3696 1.80109 1.05883 2.28126 0.857971 2.81C0.585245 3.53257 0.442943 4.29776 0.437679 5.07C0.36763 6.36 0.36763 6.74 0.36763 10C0.36763 13.26 0.36763 13.64 0.437679 14.93C0.44845 15.705 0.590559 16.4725 0.857971 17.2C1.05794 17.7263 1.36845 18.2037 1.7686 18.6C2.16707 19.0023 2.6486 19.3129 3.17958 19.51C3.90266 19.7825 4.66837 19.9247 5.44115 19.93C6.73205 20 7.11231 20 10.3746 20C13.6368 20 14.0171 20 15.308 19.93C16.0808 19.9247 16.8465 19.7825 17.5696 19.51C18.1006 19.3129 18.5821 19.0023 18.9806 18.6C19.3807 18.2037 19.6912 17.7263 19.8912 17.2C20.1636 16.4739 20.3059 15.7055 20.3115 14.93C20.3815 13.64 20.3815 13.26 20.3815 10C20.3815 6.74 20.3815 6.36 20.3115 5.07V5.07ZM17.7697 13.07C17.7376 13.6871 17.6058 14.295 17.3794 14.87C17.1852 15.3497 16.8964 15.7854 16.5302 16.1514C16.164 16.5173 15.728 16.8059 15.248 17C14.6671 17.2136 14.0554 17.3318 13.4367 17.35C12.6462 17.35 12.436 17.35 10.3746 17.35C8.31315 17.35 8.103 17.35 7.31245 17.35C6.69375 17.3318 6.08209 17.2136 5.50119 17C5.00495 16.8157 4.55682 16.5217 4.19028 16.14C3.8277 15.7813 3.54768 15.3479 3.36971 14.87C3.15512 14.2901 3.04009 13.6782 3.02948 13.06C3.02948 12.27 3.02948 12.06 3.02948 10C3.02948 7.94 3.02948 7.73 3.02948 6.94C3.04009 6.32183 3.15512 5.70988 3.36971 5.13C3.55412 4.6341 3.84832 4.18628 4.23031 3.82C4.5909 3.45962 5.02413 3.18009 5.50119 3C6.08209 2.78641 6.69375 2.66821 7.31245 2.65V2.65C8.103 2.65 8.31315 2.65 10.3746 2.65C12.436 2.65 12.6462 2.65 13.4367 2.65C14.0554 2.66821 14.6671 2.78641 15.248 3C15.7442 3.18428 16.1923 3.47827 16.5589 3.86C16.9215 4.21875 17.2015 4.65213 17.3794 5.13C17.5932 5.71049 17.7115 6.32173 17.7297 6.94C17.7297 7.73 17.7297 7.94 17.7297 10C17.7297 12.06 17.7997 12.27 17.7697 13.06V13.07ZM16.1686 5.63C16.0495 5.30698 15.8616 5.01364 15.618 4.77021C15.3744 4.52678 15.0809 4.33906 14.7576 4.22C14.3138 4.06626 13.8463 3.99179 13.3767 4C12.5961 4 12.376 4 10.3746 4C8.37319 4 8.15304 4 7.37249 4C6.90043 4.00461 6.43291 4.09263 5.99154 4.26C5.67324 4.37366 5.38281 4.55371 5.13953 4.7882C4.89625 5.02269 4.7057 5.30624 4.58056 5.62C4.43523 6.06537 4.36423 6.5316 4.37041 7C4.37041 7.78 4.37041 8 4.37041 10C4.37041 12 4.37041 12.22 4.37041 13C4.38033 13.4712 4.46825 13.9375 4.63059 14.38C4.74974 14.703 4.93759 14.9964 5.18119 15.2398C5.42478 15.4832 5.71833 15.6709 6.04157 15.79C6.46853 15.9469 6.91783 16.0347 7.37249 16.05V16.05C8.15304 16.05 8.37319 16.05 10.3746 16.05C12.376 16.05 12.5961 16.05 13.3767 16.05C13.8487 16.0454 14.3162 15.9574 14.7576 15.79C15.0809 15.6709 15.3744 15.4832 15.618 15.2398C15.8616 14.9964 16.0495 14.703 16.1686 14.38C16.3361 13.9389 16.4242 13.4717 16.4288 13C16.4288 12.22 16.4288 12 16.4288 10C16.4288 8 16.4288 7.78 16.4288 7C16.4291 6.5278 16.3408 6.05972 16.1686 5.62V5.63ZM10.3746 13.82C9.87305 13.82 9.37645 13.7211 8.91323 13.529C8.45 13.3369 8.02925 13.0554 7.67509 12.7005C7.32092 12.3457 7.04029 11.9245 6.84928 11.4611C6.65826 10.9977 6.56061 10.5012 6.56193 10V10C6.56193 9.24405 6.78638 8.5051 7.20687 7.87669C7.62735 7.24828 8.22496 6.75866 8.92404 6.46983C9.62312 6.181 10.3922 6.10594 11.134 6.25415C11.8758 6.40236 12.5569 6.76717 13.0912 7.30241C13.6254 7.83764 13.9886 8.51924 14.135 9.2609C14.2814 10.0026 14.2042 10.771 13.9134 11.4688C13.6225 12.1666 13.131 12.7625 12.5011 13.1811C11.8711 13.5996 11.1311 13.822 10.3746 13.82V13.82ZM14.3774 6.93C14.1561 6.9066 13.9514 6.80222 13.8026 6.63697C13.6539 6.47172 13.5715 6.25729 13.5715 6.035C13.5715 5.81271 13.6539 5.59828 13.8026 5.43303C13.9514 5.26778 14.1561 5.1634 14.3774 5.14V5.14C14.5986 5.1634 14.8033 5.26778 14.9521 5.43303C15.1009 5.59828 15.1832 5.81271 15.1832 6.035C15.1832 6.25729 15.1009 6.47172 14.9521 6.63697C14.8033 6.80222 14.5986 6.9066 14.3774 6.93Z" fill="white"/>
</svg>
