<svg width="21" height="20" viewBox="0 0 21 20" fill="none" xmlns="http://www.w3.org/2000/svg">
<path d="M18.7685 0.000139831H1.81669C1.62614 -0.00250479 1.43693 0.0323873 1.25987 0.102824C1.08281 0.17326 0.921376 0.27786 0.784775 0.410652C0.648174 0.543443 0.539088 0.701824 0.463747 0.876749C0.388405 1.05167 0.348283 1.23972 0.345673 1.43014V18.5701C0.348283 18.7606 0.388405 18.9486 0.463747 19.1235C0.539088 19.2985 0.648174 19.4568 0.784775 19.5896C0.921376 19.7224 1.08281 19.827 1.25987 19.8975C1.43693 19.9679 1.62614 20.0028 1.81669 20.0001H18.7685C18.959 20.0028 19.1482 19.9679 19.3253 19.8975C19.5023 19.827 19.6638 19.7224 19.8004 19.5896C19.937 19.4568 20.0461 19.2985 20.1214 19.1235C20.1968 18.9486 20.2369 18.7606 20.2395 18.5701V1.43014C20.2369 1.23972 20.1968 1.05167 20.1214 0.876749C20.0461 0.701824 19.937 0.543443 19.8004 0.410652C19.6638 0.27786 19.5023 0.17326 19.3253 0.102824C19.1482 0.0323873 18.959 -0.00250479 18.7685 0.000139831ZM6.37986 16.7401H3.37778V7.74014H6.37986V16.7401ZM4.87882 6.48014C4.4648 6.48014 4.06773 6.31578 3.77497 6.02323C3.48221 5.73067 3.31774 5.33388 3.31774 4.92014C3.31774 4.5064 3.48221 4.10961 3.77497 3.81705C4.06773 3.5245 4.4648 3.36014 4.87882 3.36014C5.09867 3.33522 5.3213 3.35699 5.53215 3.42402C5.74299 3.49105 5.93729 3.60183 6.10233 3.7491C6.26736 3.89637 6.3994 4.07682 6.48981 4.27862C6.58022 4.48043 6.62695 4.69904 6.62695 4.92014C6.62695 5.14124 6.58022 5.35985 6.48981 5.56166C6.3994 5.76346 6.26736 5.94391 6.10233 6.09118C5.93729 6.23845 5.74299 6.34923 5.53215 6.41626C5.3213 6.48329 5.09867 6.50505 4.87882 6.48014ZM17.2074 16.7401H14.2053V11.9101C14.2053 10.7001 13.775 9.91014 12.6842 9.91014C12.3467 9.91261 12.018 10.0184 11.7424 10.2133C11.4669 10.4082 11.2577 10.6828 11.1432 11.0001C11.0649 11.2352 11.0309 11.4827 11.0431 11.7301V16.7301H8.04102C8.04102 16.7301 8.04102 8.55014 8.04102 7.73014H11.0431V9.00014C11.3158 8.52725 11.7125 8.13766 12.1903 7.87334C12.6682 7.60902 13.2092 7.47999 13.755 7.50014C15.7564 7.50014 17.2074 8.79014 17.2074 11.5601V16.7401Z" fill="white"/>
</svg>
