<svg width="147" height="37" viewBox="0 0 147 37" fill="none" xmlns="http://www.w3.org/2000/svg">
<path d="M69.1426 9.13411V25.2391L64.8882 23.0344V21.7269C63.9549 22.7848 62.5671 23.4206 60.6642 23.4206C56.9492 23.4206 53.8887 20.2234 53.8887 16.0813C53.8887 11.9391 56.9492 8.74188 60.6642 8.74188C62.5671 8.74188 63.9549 9.37777 64.8882 10.4356V9.12817H69.1426V9.13411ZM64.8882 16.0872C64.8882 14.0013 63.4701 12.6939 61.5126 12.6939C59.5551 12.6939 58.137 14.0013 58.137 16.0872C58.137 18.1731 59.5551 19.4806 61.5126 19.4806C63.4701 19.4806 64.8882 18.1731 64.8882 16.0872Z" fill="white"/>
<path d="M92.2811 14.5005V23.0344H88.0267V14.857C88.0267 13.4664 87.3479 12.575 85.9844 12.575C84.6208 12.575 83.7723 13.5496 83.7723 15.1898V23.0284H79.518V14.8511C79.518 13.4605 78.8392 12.569 77.4756 12.569C76.112 12.569 75.2636 13.5437 75.2636 15.1839V23.0225H71.0092V9.12221H75.2636V10.3999C75.9181 9.45501 77.1665 8.72998 79.0634 8.72998C80.7361 8.72998 81.9845 9.39558 82.7784 10.5663C83.5723 9.45501 84.8753 8.72998 86.8934 8.72998C90.1539 8.72998 92.2811 11.012 92.2811 14.4826" fill="white"/>
<path d="M114.48 2.73962H110.226V23.0344H114.48V2.73962Z" fill="white"/>
<path d="M116.007 5.40799C116.007 4.04708 117.171 2.90607 118.559 2.90607C119.947 2.90607 121.11 4.04708 121.11 5.40799C121.11 6.7689 119.947 7.90992 118.559 7.90992C117.171 7.90992 116.007 6.7689 116.007 5.40799ZM116.432 9.13414H120.686V23.0344H116.432V9.13414Z" fill="white"/>
<path d="M128.261 9.13408H130.898V13.1395H128.261V23.0403H124.007V13.1395H122.104V9.13408H124.007C124.007 5.24153 126.189 2.90601 130.898 3.18532V7.19078C129.31 7.05409 128.261 7.52357 128.261 9.14002" fill="white"/>
<path d="M147 9.11035L142.152 22.5946C140.564 27.0161 138.043 28.7692 134.073 28.5731V24.6805C136.055 24.6805 136.994 24.0684 137.619 22.3747L131.976 9.11035H136.655L139.8 17.6205L142.467 9.11035H147Z" fill="white"/>
<path d="M102.238 8.7419C100.341 8.7419 98.9474 9.38373 98.0141 10.4356V9.12819H93.7598V27.2478L98.0141 27.2835V21.721C98.9474 22.7788 100.341 23.4147 102.238 23.4147C105.953 23.4147 109.014 20.2175 109.014 16.0753C109.014 11.9332 105.953 8.73596 102.238 8.73596M101.39 19.4687C99.4323 19.4687 98.0141 18.1613 98.0141 16.0753C98.0141 13.9894 99.4323 12.682 101.39 12.682C103.347 12.682 104.765 13.9894 104.765 16.0753C104.765 18.1613 103.347 19.4687 101.39 19.4687Z" fill="white"/>
<path d="M56.8401 31.3008C55.9129 31.3008 55.4462 31.6217 55.4462 32.2576C55.4462 32.5488 55.5553 32.7568 55.7674 32.8816C55.9795 33.0005 56.4644 33.1312 57.228 33.256C57.9855 33.3868 58.5249 33.565 58.84 33.8028C59.1552 34.0345 59.3127 34.4743 59.3127 35.1221C59.3127 35.7698 59.1006 36.2393 58.6764 36.5424C58.2522 36.8455 57.6401 36.994 56.828 36.994C56.3007 36.994 55.6765 36.9346 54.9614 36.8158L54.5796 36.7504L54.6341 35.9362C55.6038 36.0789 56.3432 36.1502 56.834 36.1502C57.3249 36.1502 57.7067 36.0729 57.9673 35.9184C58.2279 35.7639 58.3613 35.5024 58.3613 35.1399C58.3613 34.7774 58.2522 34.5278 58.0279 34.397C57.8037 34.2663 57.3189 34.1415 56.5674 34.0286C55.8159 33.9097 55.2826 33.7374 54.9675 33.5116C54.6523 33.2857 54.4948 32.8697 54.4948 32.2576C54.4948 31.6455 54.7129 31.1939 55.1553 30.9027C55.5977 30.6115 56.1432 30.4629 56.7977 30.4629C57.3189 30.4629 57.9734 30.5223 58.7552 30.6352L59.1127 30.7006L59.0885 31.5029C58.1431 31.3721 57.3916 31.3008 56.8462 31.3008" fill="white"/>
<path d="M60.8096 33.7136C60.8096 32.5666 61.0217 31.7406 61.4399 31.2295C61.8581 30.7184 62.5671 30.4629 63.561 30.4629C64.5549 30.4629 65.2579 30.7184 65.6761 31.2295C66.0882 31.7406 66.2942 32.5666 66.2942 33.7136C66.2942 34.8606 66.1003 35.6926 65.7064 36.2096C65.3125 36.7266 64.5974 36.9881 63.555 36.9881C62.5126 36.9881 61.7975 36.7266 61.4035 36.2096C61.0096 35.6926 60.8157 34.8546 60.8157 33.7136M61.8035 33.6958C61.8035 34.611 61.9187 35.2528 62.1429 35.6213C62.3671 35.9897 62.8398 36.1739 63.5671 36.1739C64.2943 36.1739 64.761 35.9897 64.9791 35.6272C65.2034 35.2647 65.3125 34.6229 65.3125 33.7017C65.3125 32.7806 65.1913 32.1447 64.9428 31.8C64.6943 31.4553 64.2398 31.2771 63.5671 31.2771C62.8944 31.2771 62.4338 31.4494 62.1853 31.8C61.9308 32.1447 61.8096 32.7806 61.8096 33.6958" fill="white"/>
<path d="M69.1911 27.8481H68.2336V36.8633H69.1911V27.8481Z" fill="white"/>
<path d="M75.4151 30.5877H76.3726V36.8633H75.4151V36.4236C74.7727 36.798 74.1424 36.9881 73.5243 36.9881C72.6516 36.9881 72.0758 36.7682 71.791 36.3225C71.5062 35.8768 71.3607 35.0567 71.3607 33.8622V30.5877H72.3243V33.8503C72.3243 34.7655 72.4031 35.3717 72.5667 35.6807C72.7304 35.9897 73.094 36.1443 73.6697 36.1443C73.9485 36.1443 74.2394 36.1027 74.5242 36.0254C74.8151 35.9481 75.0394 35.8709 75.1909 35.7936L75.4212 35.6807V30.5818L75.4151 30.5877Z" fill="white"/>
<path d="M81.8451 31.4018H79.8089V34.403C79.8089 35.1221 79.8634 35.5975 79.9725 35.8233C80.0755 36.0491 80.33 36.162 80.7361 36.162L81.8754 36.0848L81.9361 36.8633C81.3664 36.9524 80.93 37 80.6331 37C79.9664 37 79.5058 36.8395 79.2513 36.5246C78.9968 36.2036 78.8695 35.5975 78.8695 34.706V31.4018H77.9604V30.5877H78.8695V28.6682H79.8149V30.5877H81.8512V31.4018H81.8451Z" fill="white"/>
<path d="M83.3299 28.0739H84.2874V29.1674H83.3299V28.0739ZM83.3299 30.5877H84.2874V36.8633H83.3299V30.5877Z" fill="white"/>
<path d="M86.1601 33.7136C86.1601 32.5666 86.3722 31.7406 86.7904 31.2295C87.2085 30.7184 87.9176 30.4629 88.9115 30.4629C89.9054 30.4629 90.6084 30.7184 91.0266 31.2295C91.4387 31.7406 91.6447 32.5666 91.6447 33.7136C91.6447 34.8606 91.4508 35.6926 91.0569 36.2096C90.6629 36.7266 89.9478 36.9881 88.9054 36.9881C87.8631 36.9881 87.1479 36.7266 86.754 36.2096C86.3601 35.6926 86.1662 34.8546 86.1662 33.7136M87.154 33.6958C87.154 34.611 87.2691 35.2528 87.4934 35.6213C87.7176 35.9897 88.1964 36.1739 88.9176 36.1739C89.6387 36.1739 90.1114 35.9897 90.3357 35.6272C90.5539 35.2647 90.669 34.6229 90.669 33.7017C90.669 32.7806 90.5478 32.1447 90.2993 31.8C90.0508 31.4553 89.5903 31.2771 88.9236 31.2771C88.257 31.2771 87.7903 31.4494 87.5419 31.8C87.2873 32.1447 87.1661 32.7806 87.1661 33.6958" fill="white"/>
<path d="M94.4688 36.8633H93.5052V30.5877H94.4507V31.0275C95.1415 30.6531 95.8021 30.4629 96.4385 30.4629C97.293 30.4629 97.8626 30.6887 98.1596 31.1404C98.4566 31.592 98.602 32.3943 98.602 33.5532V36.8693H97.6566V33.5829C97.6566 32.7152 97.5717 32.115 97.396 31.7941C97.2202 31.4732 96.8506 31.3127 96.2748 31.3127C96.0021 31.3127 95.7173 31.3543 95.4082 31.4316C95.1052 31.5088 94.8749 31.5861 94.7113 31.6633L94.4688 31.7762V36.8752V36.8633Z" fill="white"/>
<path d="M102.699 31.3008C101.772 31.3008 101.305 31.6217 101.305 32.2576C101.305 32.5488 101.414 32.7568 101.626 32.8816C101.838 33.0005 102.323 33.1312 103.087 33.256C103.844 33.3868 104.384 33.565 104.699 33.8028C105.014 34.0345 105.171 34.4743 105.171 35.1221C105.171 35.7698 104.959 36.2393 104.535 36.5424C104.111 36.8455 103.493 36.994 102.687 36.994C102.159 36.994 101.535 36.9346 100.814 36.8158L100.432 36.7504L100.487 35.9362C101.456 36.0789 102.196 36.1502 102.687 36.1502C103.178 36.1502 103.559 36.0729 103.82 35.9184C104.081 35.7639 104.208 35.5024 104.208 35.1399C104.208 34.7774 104.099 34.5278 103.874 34.397C103.65 34.2663 103.165 34.1415 102.414 34.0286C101.662 33.9097 101.129 33.7374 100.814 33.5116C100.499 33.2857 100.341 32.8697 100.341 32.2576C100.341 31.6455 100.559 31.1939 101.002 30.9027C101.444 30.6115 101.99 30.4629 102.644 30.4629C103.165 30.4629 103.82 30.5223 104.602 30.6352L104.959 30.7006L104.935 31.5029C103.99 31.3721 103.238 31.3008 102.693 31.3008" fill="white"/>
<path d="M44.5012 30.7838L35.7804 10.5188C35.7258 10.388 35.5864 10.3048 35.441 10.3108L29.0716 10.6079L26.3383 17.8879C26.2959 18.0008 26.2959 18.1315 26.3383 18.2445L32.9805 35.3895C33.332 36.2928 34.2229 36.899 35.2107 36.899H40.9862L44.5376 31.4018C44.5982 31.1998 44.5861 30.9859 44.5012 30.7838ZM27.6292 17.6205L29.3503 13.0385L36.0652 30.867C36.0652 30.867 36.3197 31.6455 36.0713 32.0793L34.0713 35.0805C34.0713 35.0805 28.6655 21.1564 27.6292 18.5C27.5201 18.2147 27.5201 17.9057 27.6292 17.6205ZM40.3741 35.8055H34.9804C34.9804 35.8055 34.9743 35.7877 34.9562 35.7639L37.1197 32.5132C37.2349 32.3705 37.447 32.1447 37.7197 32.1447H42.7619L40.3741 35.7996V35.8055ZM37.7257 31.0453C37.4045 31.0275 37.2227 30.7363 37.15 30.5877L30.0715 11.7906C30.0473 11.7311 30.0958 11.6658 30.1564 11.6598L34.7743 11.4459C34.8834 11.4459 34.9865 11.5053 35.0289 11.6063L43.3982 31.0572H37.7197L37.7257 31.0453Z" fill="#EA5357"/>
<path d="M21.4476 0C21.2113 0 20.9931 0.065367 20.8052 0.172338L13.3995 4.99197C13.2843 5.06922 13.1934 5.17619 13.1389 5.30693L0 36.9168C0 36.9168 7.40576 36.9168 9.15114 36.9109C10.042 36.9109 10.9086 36.5721 11.5935 36.0135L17.8356 30.8848C18.0659 30.6947 18.272 30.558 18.3629 30.3084L29.9988 0.00593956H21.4476V0ZM14.0661 5.97253C14.1025 5.88339 14.1691 5.80019 14.254 5.74671L19.6719 2.20478C19.6719 2.20478 8.64207 28.9594 8.62389 29.0128L8.49662 29.3219C8.33299 29.6784 8.04815 30.1955 7.64817 30.4807C7.64817 30.4807 7.66029 30.4807 7.66635 30.4748L2.24839 34.3495L14.0661 5.97253ZM10.8662 35.1696C10.3875 35.5678 9.78142 35.7817 9.15114 35.7877C7.37546 35.7995 4.07256 35.8174 2.07264 35.8293L8.46632 31.2533C8.93297 30.9859 9.52688 31.0394 9.52688 31.0394H15.8842L10.8662 35.1637V35.1696ZM17.6962 28.8999L17.369 29.7379C17.369 29.7379 17.2781 29.9459 17.0235 29.9459H10.0602C10.0602 29.9459 10.0481 29.9459 10.036 29.9459H9.44203L9.73899 29.2268L21.1628 1.51541C21.2537 1.35496 21.4415 1.11131 21.7627 1.09348H26.9868H28.3625L28.0655 1.87198C28.0655 1.87198 28.0655 1.88387 28.0655 1.88981C28.0655 1.88981 19.6537 23.8307 17.6962 28.8999Z" fill="#EA5357"/>
</svg>
